MerriweatherSans-Light.ufo
<glyph name="percent" format="2">
  <advance width="949.0"/>
  <unicode hex="0025"/>
  <outline>
    <contour>
      <point x="210.0" y="335.0" type="curve" smooth="yes"/>
      <point x="306.0" y="337.0"/>
      <point x="394.0" y="406.0"/>
      <point x="394.0" y="533.0" type="curve" smooth="yes"/>
      <point x="394.0" y="642.0"/>
      <point x="342.0" y="731.0"/>
      <point x="225.0" y="729.0" type="curve" smooth="yes"/>
      <point x="129.0" y="726.0"/>
      <point x="42.0" y="656.0"/>
      <point x="42.0" y="529.0" type="curve" smooth="yes"/>
      <point x="42.0" y="424.0"/>
      <point x="104.0" y="333.0"/>
    </contour>
    <contour>
      <point x="277.0" y="0.0" type="line"/>
      <point x="348.0" y="0.0" type="line"/>
      <point x="669.0" y="747.0" type="line"/>
      <point x="598.0" y="747.0" type="line"/>
    </contour>
    <contour>
      <point x="215.0" y="390.0" type="curve" smooth="yes"/>
      <point x="152.0" y="389.0"/>
      <point x="114.0" y="452.0"/>
      <point x="114.0" y="532.0" type="curve" smooth="yes"/>
      <point x="114.0" y="619.0"/>
      <point x="157.0" y="673.0"/>
      <point x="220.0" y="674.0" type="curve" smooth="yes"/>
      <point x="286.0" y="675.0"/>
      <point x="321.0" y="615.0"/>
      <point x="321.0" y="530.0" type="curve" smooth="yes"/>
      <point x="321.0" y="442.0"/>
      <point x="278.0" y="391.0"/>
    </contour>
    <contour>
      <point x="725.0" y="27.0" type="curve" smooth="yes"/>
      <point x="820.0" y="30.0"/>
      <point x="907.0" y="98.0"/>
      <point x="907.0" y="225.0" type="curve" smooth="yes"/>
      <point x="907.0" y="334.0"/>
      <point x="856.0" y="424.0"/>
      <point x="739.0" y="420.0" type="curve" smooth="yes"/>
      <point x="643.0" y="417.0"/>
      <point x="556.0" y="348.0"/>
      <point x="556.0" y="221.0" type="curve" smooth="yes"/>
      <point x="556.0" y="116.0"/>
      <point x="618.0" y="25.0"/>
    </contour>
    <contour>
      <point x="729.0" y="82.0" type="curve" smooth="yes"/>
      <point x="666.0" y="82.0"/>
      <point x="628.0" y="144.0"/>
      <point x="628.0" y="224.0" type="curve" smooth="yes"/>
      <point x="628.0" y="312.0"/>
      <point x="671.0" y="365.0"/>
      <point x="734.0" y="366.0" type="curve" smooth="yes"/>
      <point x="800.0" y="367.0"/>
      <point x="834.0" y="307.0"/>
      <point x="834.0" y="223.0" type="curve" smooth="yes"/>
      <point x="834.0" y="134.0"/>
      <point x="792.0" y="83.0"/>
    </contour>
  </outline>
</glyph>
<glyph name="asterisk" format="2">
  <advance width="599.0"/>
  <unicode hex="002A"/>
  <outline>
    <contour>
      <point x="266.0" y="316.0" type="line"/>
      <point x="337.0" y="317.0" type="line"/>
      <point x="329.0" y="454.0" type="line"/>
      <point x="329.0" y="457.0"/>
      <point x="316.0" y="532.0"/>
      <point x="315.0" y="534.0" type="curve"/>
      <point x="380.0" y="483.0" type="line"/>
      <point x="495.0" y="410.0" type="line"/>
      <point x="531.0" y="473.0" type="line"/>
      <point x="409.0" y="536.0" type="line"/>
      <point x="332.0" y="563.0" type="line"/>
      <point x="408.0" y="593.0" type="line"/>
      <point x="529.0" y="658.0" type="line"/>
      <point x="494.0" y="719.0" type="line"/>
      <point x="377.0" y="645.0" type="line"/>
      <point x="375.0" y="643.0"/>
      <point x="316.0" y="593.0"/>
      <point x="315.0" y="592.0" type="curve"/>
      <point x="328.0" y="672.0" type="line"/>
      <point x="333.0" y="810.0" type="line"/>
      <point x="261.0" y="810.0" type="line"/>
      <point x="268.0" y="671.0" type="line"/>
      <point x="269.0" y="668.0"/>
      <point x="282.0" y="593.0"/>
      <point x="282.0" y="591.0" type="curve"/>
      <point x="218.0" y="642.0" type="line"/>
      <point x="103.0" y="716.0" type="line"/>
      <point x="68.0" y="654.0" type="line"/>
      <point x="189.0" y="591.0" type="line"/>
      <point x="192.0" y="590.0"/>
      <point x="264.0" y="564.0"/>
      <point x="266.0" y="563.0" type="curve"/>
      <point x="189.0" y="534.0" type="line"/>
      <point x="69.0" y="468.0" type="line"/>
      <point x="105.0" y="407.0" type="line"/>
      <point x="220.0" y="481.0" type="line"/>
      <point x="283.0" y="535.0" type="line"/>
      <point x="271.0" y="454.0" type="line"/>
    </contour>
  </outline>
</glyph>
<glyph name="plus" format="2">
  <advance width="680.0"/>
  <unicode hex="002B"/>
  <outline>
    <contour>
      <point x="306.0" y="141.0" type="line"/>
      <point x="373.0" y="141.0" type="line"/>
      <point x="373.0" y="263.0" type="line"/>
      <point x="370.0" y="347.0" type="line"/>
      <point x="442.0" y="345.0" type="line"/>
      <point x="567.0" y="345.0" type="line"/>
      <point x="567.0" y="410.0" type="line"/>
      <point x="442.0" y="410.0" type="line"/>
      <point x="370.0" y="406.0" type="line"/>
      <point x="373.0" y="490.0" type="line"/>
      <point x="373.0" y="609.0" type="line"/>
      <point x="306.0" y="609.0" type="line"/>
      <point x="306.0" y="490.0" type="line"/>
      <point x="309.0" y="406.0" type="line"/>
      <point x="229.0" y="410.0" type="line"/>
      <point x="113.0" y="410.0" type="line"/>
      <point x="113.0" y="345.0" type="line"/>
      <point x="229.0" y="345.0" type="line"/>
      <point x="309.0" y="347.0" type="line"/>
      <point x="306.0" y="263.0" type="line"/>
    </contour>
  </outline>
</glyph>
<glyph name="comma" format="2">
  <advance width="293.0"/>
  <unicode hex="002C"/>
  <outline>
    <contour>
      <point x="81.0" y="-210.0" type="line"/>
      <point x="108.0" y="-244.0" type="line"/>
      <point x="170.0" y="-216.0"/>
      <point x="227.0" y="-132.0"/>
      <point x="227.0" y="-22.0" type="curve" smooth="yes"/>
      <point x="227.0" y="31.0"/>
      <point x="208.0" y="99.0"/>
      <point x="149.0" y="126.0" type="curve"/>
      <point x="98.0" y="78.0" type="line"/>
      <point x="98.0" y="54.0" type="line"/>
      <point x="126.0" y="44.0"/>
      <point x="150.0" y="-7.0"/>
      <point x="150.0" y="-47.0" type="curve" smooth="yes"/>
      <point x="150.0" y="-123.0"/>
      <point x="113.0" y="-181.0"/>
      <point x="80.0" y="-200.0" type="curve"/>
    </contour>
  </outline>
</glyph>
<glyph name="period" format="2">
  <advance width="293.0"/>
  <unicode hex="002E"/>
  <outline>
    <contour>
      <point x="144.0" y="-8.0" type="curve" smooth="yes"/>
      <point x="176.0" y="-8.0"/>
      <point x="205.0" y="21.0"/>
      <point x="204.0" y="61.0" type="curve" smooth="yes"/>
      <point x="203.0" y="94.0"/>
      <point x="185.0" y="122.0"/>
      <point x="149.0" y="122.0" type="curve" smooth="yes"/>
      <point x="118.0" y="122.0"/>
      <point x="89.0" y="91.0"/>
      <point x="90.0" y="53.0" type="curve" smooth="yes"/>
      <point x="91.0" y="17.0"/>
      <point x="116.0" y="-8.0"/>
    </contour>
  </outline>
</glyph>
<glyph name="six" format="2">
  <advance width="672.0"/>
  <unicode hex="0036"/>
  <outline>
    <contour>
      <point x="82.0" y="278.0" type="curve" smooth="yes"/>
      <point x="82.0" y="124.0"/>
      <point x="174.0" y="-8.0"/>
      <point x="332.0" y="-8.0" type="curve" smooth="yes"/>
      <point x="503.0" y="-8.0"/>
      <point x="588.0" y="127.0"/>
      <point x="588.0" y="267.0" type="curve" smooth="yes"/>
      <point x="588.0" y="378.0"/>
      <point x="517.0" y="481.0"/>
      <point x="390.0" y="481.0" type="curve" smooth="yes"/>
      <point x="324.0" y="481.0"/>
      <point x="271.0" y="457.0"/>
      <point x="251.0" y="437.0" type="curve"/>
      <point x="274.0" y="388.0" type="line"/>
      <point x="290.0" y="400.0"/>
      <point x="326.0" y="417.0"/>
      <point x="373.0" y="417.0" type="curve" smooth="yes"/>
      <point x="440.0" y="417.0"/>
      <point x="506.0" y="373.0"/>
      <point x="506.0" y="250.0" type="curve" smooth="yes"/>
      <point x="506.0" y="155.0"/>
      <point x="455.0" y="49.0"/>
      <point x="342.0" y="49.0" type="curve" smooth="yes"/>
      <point x="211.0" y="49.0"/>
      <point x="167.0" y="175.0"/>
      <point x="170.0" y="313.0" type="curve" smooth="yes"/>
      <point x="174.0" y="481.0"/>
      <point x="307.0" y="661.0"/>
      <point x="507.0" y="713.0" type="curve"/>
      <point x="484.0" y="766.0" type="line"/>
      <point x="297.0" y="729.0"/>
      <point x="82.0" y="539.0"/>
    </contour>
  </outline>
</glyph>
<glyph name="seven" format="2">
  <advance width="604.0"/>
  <unicode hex="0037"/>
  <outline>
    <contour>
      <point x="196.0" y="0.0" type="curve"/>
      <point x="288.0" y="-1.0" type="line"/>
      <point x="549.0" y="720.0" type="line"/>
      <point x="531.0" y="743.0" type="line"/>
      <point x="74.0" y="743.0" type="line"/>
      <point x="73.0" y="676.0" type="line"/>
      <point x="459.0" y="676.0" type="line"/>
      <point x="399.0" y="515.0"/>
      <point x="271.0" y="160.0"/>
    </contour>
  </outline>
</glyph>
<glyph name="less" format="2">
  <advance width="668.0"/>
  <unicode hex="003C"/>
  <outline>
    <contour>
      <point x="83.0" y="348.0" type="line"/>
      <point x="553.0" y="124.0" type="line"/>
      <point x="553.0" y="202.0" type="line"/>
      <point x="162.0" y="380.0" type="line"/>
      <point x="162.0" y="375.0" type="line"/>
      <point x="553.0" y="555.0" type="line"/>
      <point x="553.0" y="631.0" type="line"/>
      <point x="83.0" y="407.0" type="line"/>
    </contour>
  </outline>
</glyph>
<glyph name="equal" format="2">
  <advance width="682.0"/>
  <unicode hex="003D"/>
  <outline>
    <contour>
      <point x="118.0" y="481.0" type="line"/>
      <point x="564.0" y="481.0" type="line"/>
      <point x="564.0" y="544.0" type="line"/>
      <point x="118.0" y="544.0" type="line"/>
    </contour>
    <contour>
      <point x="118.0" y="209.0" type="line"/>
      <point x="564.0" y="209.0" type="line"/>
      <point x="564.0" y="271.0" type="line"/>
      <point x="118.0" y="271.0" type="line"/>
    </contour>
  </outline>
</glyph>
<glyph name="A" format="2">
  <advance width="680.0"/>
  <unicode hex="0041"/>
  <anchor x="340.0" y="0.0" name="bottom"/>
  <anchor x="330.0" y="-83.0" name="btm"/>
  <anchor x="612.0" y="10.0" name="ogonek"/>
  <anchor x="341.0" y="830.0" name="top"/>
  <outline>
    <contour>
      <point x="104.0" y="0.0" type="line"/>
      <point x="326.0" y="605.0" type="line"/>
      <point x="344.0" y="664.0" type="line"/>
      <point x="363.0" y="605.0" type="line"/>
      <point x="575.0" y="0.0" type="line"/>
      <point x="665.0" y="0.0" type="line"/>
      <point x="384.0" y="751.0" type="line"/>
      <point x="303.0" y="751.0" type="line"/>
      <point x="16.0" y="0.0" type="line"/>
    </contour>
    <contour>
      <point x="145.0" y="204.0" type="line"/>
      <point x="528.0" y="204.0" type="line"/>
      <point x="512.0" y="266.0" type="line"/>
      <point x="160.0" y="266.0" type="line"/>
    </contour>
  </outline>
</glyph>
<glyph name="D" format="2">
  <advance width="722.0"/>
  <unicode hex="0044"/>
  <anchor x="361.0" y="0.0" name="bottom"/>
  <anchor x="313.0" y="-83.0" name="btm"/>
  <anchor x="361.0" y="372.0" name="center"/>
  <anchor x="348.0" y="830.0" name="top"/>
  <outline>
    <contour>
      <point x="101.0" y="0.0" type="line"/>
      <point x="104.0" y="0.0"/>
      <point x="145.0" y="0.0"/>
      <point x="155.0" y="-1.0" type="curve" smooth="yes"/>
      <point x="205.0" y="-1.0"/>
      <point x="271.0" y="-7.0"/>
      <point x="313.0" y="-8.0" type="curve" smooth="yes"/>
      <point x="544.0" y="-11.0"/>
      <point x="676.0" y="149.0"/>
      <point x="676.0" y="393.0" type="curve" smooth="yes"/>
      <point x="676.0" y="618.0"/>
      <point x="560.0" y="750.0"/>
      <point x="324.0" y="750.0" type="curve" smooth="yes"/>
      <point x="266.0" y="750.0"/>
      <point x="206.0" y="744.0"/>
      <point x="159.0" y="744.0" type="curve" smooth="yes"/>
      <point x="153.0" y="743.0"/>
      <point x="106.0" y="743.0"/>
      <point x="101.0" y="743.0" type="curve"/>
    </contour>
    <contour>
      <point x="183.0" y="63.0" type="curve"/>
      <point x="183.0" y="683.0" type="line"/>
      <point x="217.0" y="687.0"/>
      <point x="258.0" y="690.0"/>
      <point x="305.0" y="690.0" type="curve" smooth="yes"/>
      <point x="494.0" y="690.0"/>
      <point x="591.0" y="599.0"/>
      <point x="590.0" y="381.0" type="curve" smooth="yes"/>
      <point x="589.0" y="156.0"/>
      <point x="481.0" y="56.0"/>
      <point x="325.0" y="54.0" type="curve" smooth="yes"/>
      <point x="282.0" y="53.0"/>
      <point x="221.0" y="57.0"/>
    </contour>
  </outline>
</glyph>
<glyph name="F" format="2">
  <advance width="530.0"/>
  <unicode hex="0046"/>
  <anchor x="265.0" y="0.0" name="bottom"/>
  <anchor x="340.0" y="-83.0" name="btm"/>
  <anchor x="325.0" y="830.0" name="top"/>
  <outline>
    <contour>
      <point x="101.0" y="0.0" type="line"/>
      <point x="183.0" y="0.0" type="line"/>
      <point x="183.0" y="341.0" type="line"/>
      <point x="432.0" y="341.0" type="line"/>
      <point x="432.0" y="405.0" type="line"/>
      <point x="183.0" y="405.0" type="line"/>
      <point x="183.0" y="679.0" type="line"/>
      <point x="516.0" y="679.0" type="line"/>
      <point x="516.0" y="743.0" type="line"/>
      <point x="101.0" y="743.0" type="line"/>
    </contour>
  </outline>
</glyph>
<glyph name="G" format="2">
  <advance width="704.0"/>
  <unicode hex="0047"/>
  <anchor x="352.0" y="0.0" name="bottom"/>
  <anchor x="395.0" y="-83.0" name="btm"/>
  <anchor x="399.0" y="830.0" name="top"/>
  <outline>
    <contour>
      <point x="54.0" y="366.0" type="curve" smooth="yes"/>
      <point x="54.0" y="152.0"/>
      <point x="179.0" y="-8.0"/>
      <point x="392.0" y="-8.0" type="curve" smooth="yes"/>
      <point x="542.0" y="-8.0"/>
      <point x="604.0" y="42.0"/>
      <point x="645.0" y="44.0" type="curve"/>
      <point x="645.0" y="366.0" type="line"/>
      <point x="411.0" y="366.0" type="line"/>
      <point x="411.0" y="307.0" type="line"/>
      <point x="588.0" y="301.0" type="line"/>
      <point x="565.0" y="317.0" type="line"/>
      <point x="565.0" y="88.0" type="line"/>
      <point x="537.0" y="74.0"/>
      <point x="470.0" y="56.0"/>
      <point x="391.0" y="56.0" type="curve" smooth="yes"/>
      <point x="229.0" y="56.0"/>
      <point x="140.0" y="190.0"/>
      <point x="140.0" y="376.0" type="curve" smooth="yes"/>
      <point x="140.0" y="579.0"/>
      <point x="254.0" y="686.0"/>
      <point x="393.0" y="686.0" type="curve" smooth="yes"/>
      <point x="497.0" y="686.0"/>
      <point x="558.0" y="666.0"/>
      <point x="600.0" y="647.0" type="curve"/>
      <point x="603.0" y="721.0" type="line"/>
      <point x="545.0" y="732.0"/>
      <point x="504.0" y="751.0"/>
      <point x="398.0" y="751.0" type="curve" smooth="yes"/>
      <point x="206.0" y="751.0"/>
      <point x="54.0" y="620.0"/>
    </contour>
  </outline>
</glyph>
<glyph name="J" format="2">
  <advance width="339.0"/>
  <unicode hex="004A"/>
  <anchor x="170.0" y="0.0" name="bottom"/>
  <anchor x="137.0" y="-83.0" name="btm"/>
  <anchor x="184.0" y="830.0" name="top"/>
  <outline>
    <contour>
      <point x="7.0" y="-162.0" type="line"/>
      <point x="92.0" y="-150.0"/>
      <point x="196.0" y="-87.0"/>
      <point x="218.0" y="32.0" type="curve" smooth="yes"/>
      <point x="229.0" y="97.0"/>
      <point x="227.0" y="176.0"/>
      <point x="227.0" y="262.0" type="curve" smooth="yes"/>
      <point x="227.0" y="743.0" type="line"/>
      <point x="143.0" y="743.0" type="line"/>
      <point x="143.0" y="271.0" type="line" smooth="yes"/>
      <point x="143.0" y="168.0"/>
      <point x="144.0" y="73.0"/>
      <point x="126.0" y="15.0" type="curve" smooth="yes"/>
      <point x="105.0" y="-58.0"/>
      <point x="42.0" y="-102.0"/>
      <point x="-19.0" y="-119.0" type="curve"/>
    </contour>
  </outline>
</glyph>
<glyph name="L" format="2">
  <advance width="521.0"/>
  <unicode hex="004C"/>
  <anchor x="261.0" y="0.0" name="bottom"/>
  <anchor x="286.0" y="-83.0" name="btm"/>
  <anchor x="261.0" y="372.0" name="center"/>
  <anchor x="142.0" y="830.0" name="top"/>
  <anchor x="501.0" y="743.0" name="topright"/>
  <outline>
    <contour>
      <point x="101.0" y="0.0" type="line"/>
      <point x="492.0" y="0.0" type="line"/>
      <point x="492.0" y="65.0" type="line"/>
      <point x="185.0" y="65.0" type="line"/>
      <point x="185.0" y="743.0" type="line"/>
      <point x="101.0" y="743.0" type="line"/>
    </contour>
  </outline>
</glyph>
<glyph name="M" format="2">
  <advance width="940.0"/>
  <unicode hex="004D"/>
  <anchor x="470.0" y="0.0" name="bottom"/>
  <anchor x="471.0" y="-83.0" name="btm"/>
  <anchor x="470.0" y="800.0" name="top"/>
  <outline>
    <contour>
      <point x="73.0" y="0.0" type="line"/>
      <point x="153.0" y="0.0" type="line"/>
      <point x="197.0" y="462.0" type="line"/>
      <point x="216.0" y="682.0" type="line"/>
      <point x="282.0" y="462.0" type="line"/>
      <point x="448.0" y="-7.0" type="line"/>
      <point x="493.0" y="-7.0" type="line"/>
      <point x="651.0" y="462.0" type="line"/>
      <point x="711.0" y="682.0" type="line"/>
      <point x="733.0" y="462.0" type="line"/>
      <point x="785.0" y="0.0" type="line"/>
      <point x="868.0" y="0.0" type="line"/>
      <point x="772.0" y="743.0" type="line"/>
      <point x="661.0" y="743.0" type="line"/>
      <point x="506.0" y="260.0" type="line"/>
      <point x="470.0" y="121.0" type="line"/>
      <point x="434.0" y="260.0" type="line"/>
      <point x="269.0" y="743.0" type="line"/>
      <point x="152.0" y="743.0" type="line"/>
    </contour>
  </outline>
</glyph>
<glyph name="N" format="2">
  <advance width="758.0"/>
  <unicode hex="004E"/>
  <anchor x="379.0" y="0.0" name="bottom"/>
  <anchor x="366.0" y="-83.0" name="btm"/>
  <anchor x="384.0" y="830.0" name="top"/>
  <outline>
    <contour>
      <point x="100.0" y="0.0" type="line"/>
      <point x="176.0" y="0.0" type="line"/>
      <point x="176.0" y="474.0" type="line"/>
      <point x="169.0" y="694.0" type="line"/>
      <point x="136.0" y="694.0" type="line"/>
      <point x="247.0" y="505.0" type="line"/>
      <point x="583.0" y="0.0" type="line"/>
      <point x="658.0" y="0.0" type="line"/>
      <point x="658.0" y="743.0" type="line"/>
      <point x="583.0" y="743.0" type="line"/>
      <point x="583.0" y="257.0" type="line"/>
      <point x="590.0" y="51.0" type="line"/>
      <point x="619.0" y="51.0" type="line"/>
      <point x="519.0" y="226.0" type="line"/>
      <point x="177.0" y="743.0" type="line"/>
      <point x="100.0" y="743.0" type="line"/>
    </contour>
  </outline>
</glyph>
<glyph name="O" format="2">
  <advance width="768.0"/>
  <unicode hex="004F"/>
  <anchor x="384.0" y="0.0" name="bottom"/>
  <anchor x="384.0" y="-83.0" name="btm"/>
  <anchor x="384.0" y="372.0" name="center"/>
  <anchor x="691.0" y="10.0" name="ogonek"/>
  <anchor x="395.0" y="830.0" name="top"/>
  <anchor x="20.0" y="743.0" name="topleft"/>
  <anchor x="748.0" y="743.0" name="topright"/>
  <outline>
    <contour>
      <point x="381.0" y="-8.0" type="curve" smooth="yes"/>
      <point x="569.0" y="-4.0"/>
      <point x="708.0" y="126.0"/>
      <point x="713.0" y="373.0" type="curve" smooth="yes"/>
      <point x="718.0" y="601.0"/>
      <point x="592.0" y="752.0"/>
      <point x="396.0" y="751.0" type="curve" smooth="yes"/>
      <point x="208.0" y="750.0"/>
      <point x="59.0" y="623.0"/>
      <point x="54.0" y="375.0" type="curve" smooth="yes"/>
      <point x="50.0" y="151.0"/>
      <point x="176.0" y="-12.0"/>
    </contour>
    <contour>
      <point x="383.0" y="56.0" type="curve" smooth="yes"/>
      <point x="221.0" y="55.0"/>
      <point x="137.0" y="200.0"/>
      <point x="138.0" y="370.0" type="curve" smooth="yes"/>
      <point x="139.0" y="582.0"/>
      <point x="250.0" y="687.0"/>
      <point x="393.0" y="688.0" type="curve" smooth="yes"/>
      <point x="549.0" y="689.0"/>
      <point x="630.0" y="548.0"/>
      <point x="630.0" y="377.0" type="curve" smooth="yes"/>
      <point x="628.0" y="169.0"/>
      <point x="530.0" y="57.0"/>
    </contour>
  </outline>
</glyph>
<glyph name="P" format="2">
  <advance width="625.0"/>
  <unicode hex="0050"/>
  <anchor x="313.0" y="0.0" name="bottom"/>
  <anchor x="343.0" y="-83.0" name="btm"/>
  <anchor x="331.0" y="830.0" name="top"/>
  <outline>
    <contour>
      <point x="101.0" y="0.0" type="line"/>
      <point x="183.0" y="0.0" type="line"/>
      <point x="183.0" y="261.0" type="line"/>
      <point x="203.0" y="261.0"/>
      <point x="251.0" y="257.0"/>
      <point x="304.0" y="257.0" type="curve" smooth="yes"/>
      <point x="476.0" y="258.0"/>
      <point x="583.0" y="349.0"/>
      <point x="583.0" y="510.0" type="curve" smooth="yes"/>
      <point x="583.0" y="684.0"/>
      <point x="482.0" y="750.0"/>
      <point x="325.0" y="750.0" type="curve" smooth="yes"/>
      <point x="260.0" y="750.0"/>
      <point x="196.0" y="743.0"/>
      <point x="141.0" y="743.0" type="curve" smooth="yes"/>
      <point x="101.0" y="743.0" type="line"/>
    </contour>
    <contour>
      <point x="183.0" y="324.0" type="curve"/>
      <point x="183.0" y="683.0" type="line"/>
      <point x="218.0" y="688.0"/>
      <point x="263.0" y="689.0"/>
      <point x="301.0" y="690.0" type="curve" smooth="yes"/>
      <point x="434.0" y="693.0"/>
      <point x="500.0" y="640.0"/>
      <point x="500.0" y="510.0" type="curve" smooth="yes"/>
      <point x="500.0" y="368.0"/>
      <point x="412.0" y="320.0"/>
      <point x="299.0" y="318.0" type="curve" smooth="yes"/>
      <point x="269.0" y="318.0"/>
      <point x="213.0" y="320.0"/>
    </contour>
  </outline>
</glyph>
<glyph name="Q" format="2">
  <advance width="767.0"/>
  <unicode hex="0051"/>
  <anchor x="384.0" y="0.0" name="bottom"/>
  <anchor x="385.0" y="-83.0" name="btm"/>
  <anchor x="391.0" y="816.0" name="top"/>
  <anchor x="384.0" y="372.0" name="center"/>
  <anchor x="691.0" y="10.0" name="ogonek"/>
  <anchor x="20.0" y="743.0" name="topleft"/>
  <anchor x="748.0" y="743.0" name="topright"/>
  <outline>
    <contour>
      <point x="611.0" y="-140.0" type="curve" smooth="yes"/>
      <point x="647.0" y="-140.0"/>
      <point x="662.0" y="-132.0"/>
      <point x="677.0" y="-122.0" type="curve"/>
      <point x="677.0" y="-62.0" type="line"/>
      <point x="656.0" y="-70.0"/>
      <point x="636.0" y="-73.0"/>
      <point x="610.0" y="-73.0" type="curve" smooth="yes"/>
      <point x="522.0" y="-73.0"/>
      <point x="493.0" y="-37.0"/>
      <point x="454.0" y="25.0" type="curve"/>
      <point x="415.0" y="25.0" type="line"/>
      <point x="378.0" y="11.0" type="line"/>
      <point x="459.0" y="-110.0"/>
      <point x="504.0" y="-140.0"/>
    </contour>
    <component base="O"/>
  </outline>
</glyph>
<glyph name="S" format="2">
  <advance width="563.0"/>
  <unicode hex="0053"/>
  <anchor x="282.0" y="0.0" name="bottom"/>
  <anchor x="284.0" y="-83.0" name="btm"/>
  <anchor x="302.0" y="830.0" name="top"/>
  <outline>
    <contour>
      <point x="277.0" y="-8.0" type="curve" smooth="yes"/>
      <point x="421.0" y="-8.0"/>
      <point x="521.0" y="57.0"/>
      <point x="521.0" y="188.0" type="curve" smooth="yes"/>
      <point x="521.0" y="306.0"/>
      <point x="411.0" y="362.0"/>
      <point x="312.0" y="409.0" type="curve" smooth="yes"/>
      <point x="207.0" y="460.0"/>
      <point x="147.0" y="495.0"/>
      <point x="147.0" y="578.0" type="curve" smooth="yes"/>
      <point x="147.0" y="652.0"/>
      <point x="229.0" y="686.0"/>
      <point x="308.0" y="686.0" type="curve" smooth="yes"/>
      <point x="384.0" y="686.0"/>
      <point x="431.0" y="669.0"/>
      <point x="467.0" y="646.0" type="curve"/>
      <point x="484.0" y="711.0" type="line"/>
      <point x="458.0" y="729.0"/>
      <point x="402.0" y="751.0"/>
      <point x="308.0" y="751.0" type="curve" smooth="yes"/>
      <point x="195.0" y="751.0"/>
      <point x="68.0" y="704.0"/>
      <point x="68.0" y="567.0" type="curve" smooth="yes"/>
      <point x="68.0" y="458.0"/>
      <point x="166.0" y="389.0"/>
      <point x="263.0" y="345.0" type="curve" smooth="yes"/>
      <point x="367.0" y="297.0"/>
      <point x="440.0" y="264.0"/>
      <point x="440.0" y="179.0" type="curve" smooth="yes"/>
      <point x="440.0" y="97.0"/>
      <point x="375.0" y="58.0"/>
      <point x="272.0" y="58.0" type="curve" smooth="yes"/>
      <point x="202.0" y="58.0"/>
      <point x="126.0" y="80.0"/>
      <point x="86.0" y="104.0" type="curve"/>
      <point x="66.0" y="36.0" type="line"/>
      <point x="93.0" y="18.0"/>
      <point x="180.0" y="-8.0"/>
    </contour>
  </outline>
</glyph>
<glyph name="U" format="2">
  <advance width="720.0"/>
  <unicode hex="0055"/>
  <anchor x="360.0" y="0.0" name="bottom"/>
  <anchor x="366.0" y="-83.0" name="btm"/>
  <anchor x="648.0" y="10.0" name="ogonek"/>
  <anchor x="365.0" y="830.0" name="top"/>
  <anchor x="700.0" y="743.0" name="topright"/>
  <outline>
    <contour>
      <point x="363.0" y="-8.0" type="curve" smooth="yes"/>
      <point x="546.0" y="-8.0"/>
      <point x="637.0" y="101.0"/>
      <point x="637.0" y="315.0" type="curve" smooth="yes"/>
      <point x="637.0" y="743.0" type="line"/>
      <point x="555.0" y="743.0" type="line"/>
      <point x="555.0" y="334.0" type="line" smooth="yes"/>
      <point x="555.0" y="121.0"/>
      <point x="483.0" y="57.0"/>
      <point x="366.0" y="57.0" type="curve" smooth="yes"/>
      <point x="240.0" y="57.0"/>
      <point x="166.0" y="118.0"/>
      <point x="166.0" y="334.0" type="curve" smooth="yes"/>
      <point x="166.0" y="744.0" type="line"/>
      <point x="83.0" y="744.0" type="line"/>
      <point x="83.0" y="314.0" type="line" smooth="yes"/>
      <point x="83.0" y="105.0"/>
      <point x="167.0" y="-8.0"/>
    </contour>
  </outline>
</glyph>
<glyph name="V" format="2">
  <advance width="650.0"/>
  <unicode hex="0056"/>
  <anchor x="325.0" y="0.0" name="bottom"/>
  <anchor x="328.0" y="-83.0" name="btm"/>
  <anchor x="328.0" y="830.0" name="top"/>
  <outline>
    <contour>
      <point x="295.0" y="-8.0" type="line"/>
      <point x="365.0" y="-8.0" type="line"/>
      <point x="635.0" y="743.0" type="line"/>
      <point x="548.0" y="743.0" type="line"/>
      <point x="368.0" y="213.0" type="line"/>
      <point x="331.0" y="94.0" type="line"/>
      <point x="293.0" y="213.0" type="line"/>
      <point x="103.0" y="743.0" type="line"/>
      <point x="15.0" y="743.0" type="line"/>
    </contour>
  </outline>
</glyph>
<glyph name="W" format="2">
  <advance width="932.0"/>
  <unicode hex="0057"/>
  <anchor x="466.0" y="0.0" name="bottom"/>
  <anchor x="467.0" y="-83.0" name="btm"/>
  <anchor x="466.0" y="830.0" name="top"/>
  <outline>
    <contour>
      <point x="217.0" y="-8.0" type="line"/>
      <point x="289.0" y="-8.0" type="line"/>
      <point x="450.0" y="527.0" type="line"/>
      <point x="480.0" y="679.0" type="line"/>
      <point x="455.0" y="679.0" type="line"/>
      <point x="486.0" y="527.0" type="line"/>
      <point x="645.0" y="-8.0" type="line"/>
      <point x="726.0" y="-8.0" type="line"/>
      <point x="917.0" y="743.0" type="line"/>
      <point x="833.0" y="743.0" type="line"/>
      <point x="718.0" y="251.0" type="line"/>
      <point x="681.0" y="58.0" type="line"/>
      <point x="695.0" y="58.0" type="line"/>
      <point x="646.0" y="252.0" type="line"/>
      <point x="499.0" y="743.0" type="line"/>
      <point x="438.0" y="743.0" type="line"/>
      <point x="292.0" y="252.0" type="line"/>
      <point x="249.0" y="58.0" type="line"/>
      <point x="262.0" y="58.0" type="line"/>
      <point x="222.0" y="252.0" type="line"/>
      <point x="101.0" y="743.0" type="line"/>
      <point x="16.0" y="743.0" type="line"/>
    </contour>
  </outline>
</glyph>
<glyph name="Y" format="2">
  <advance width="610.0"/>
  <unicode hex="0059"/>
  <anchor x="305.0" y="0.0" name="bottom"/>
  <anchor x="314.0" y="-83.0" name="btm"/>
  <anchor x="314.0" y="830.0" name="top"/>
  <anchor x="20.0" y="743.0" name="topleft"/>
  <outline>
    <contour>
      <point x="268.0" y="0.0" type="line"/>
      <point x="352.0" y="0.0" type="line"/>
      <point x="352.0" y="309.0" type="line"/>
      <point x="337.0" y="259.0" type="line"/>
      <point x="595.0" y="743.0" type="line"/>
      <point x="508.0" y="743.0" type="line"/>
      <point x="333.0" y="401.0" type="line"/>
      <point x="305.0" y="329.0" type="line"/>
      <point x="318.0" y="329.0" type="line"/>
      <point x="286.0" y="401.0" type="line"/>
      <point x="104.0" y="743.0" type="line"/>
      <point x="15.0" y="743.0" type="line"/>
      <point x="282.0" y="260.0" type="line"/>
      <point x="268.0" y="310.0" type="line"/>
    </contour>
  </outline>
</glyph>
<glyph name="bracketleft" format="2">
  <advance width="411.0"/>
  <unicode hex="005B"/>
  <outline>
    <contour>
      <point x="110.0" y="1.0" type="line"/>
      <point x="110.0" y="-73.0"/>
      <point x="124.0" y="-93.0"/>
      <point x="184.0" y="-93.0" type="curve" smooth="yes"/>
      <point x="234.0" y="-93.0"/>
      <point x="292.0" y="-90.0"/>
      <point x="336.0" y="-83.0" type="curve"/>
      <point x="336.0" y="-41.0" type="line"/>
      <point x="188.0" y="-40.0" type="line"/>
      <point x="188.0" y="794.0" type="line"/>
      <point x="336.0" y="794.0" type="line"/>
      <point x="336.0" y="838.0" type="line"/>
      <point x="292.0" y="843.0"/>
      <point x="234.0" y="848.0"/>
      <point x="184.0" y="848.0" type="curve" smooth="yes"/>
      <point x="124.0" y="848.0"/>
      <point x="110.0" y="828.0"/>
      <point x="110.0" y="754.0" type="curve" smooth="yes"/>
    </contour>
  </outline>
</glyph>
<glyph name="asciicircum" format="2">
  <advance width="666.0"/>
  <unicode hex="005E"/>
  <outline>
    <contour>
      <point x="171.0" y="249.0" type="line"/>
      <point x="336.0" y="667.0" type="line"/>
      <point x="329.0" y="667.0" type="line"/>
      <point x="495.0" y="249.0" type="line"/>
      <point x="573.0" y="249.0" type="line"/>
      <point x="370.0" y="748.0" type="line"/>
      <point x="294.0" y="748.0" type="line"/>
      <point x="92.0" y="249.0" type="line"/>
    </contour>
  </outline>
</glyph>
<glyph name="grave" format="2">
  <advance width="272.0"/>
  <unicode hex="0060"/>
  <anchor x="196.0" y="830.0" name="_top"/>
  <outline>
    <contour>
      <point x="248.0" y="675.0" type="line"/>
      <point x="190.0" y="740.0"/>
      <point x="132.0" y="806.0"/>
      <point x="83.0" y="870.0" type="curve"/>
      <point x="24.0" y="819.0" type="line"/>
      <point x="63.0" y="763.0"/>
      <point x="160.0" y="673.0"/>
      <point x="206.0" y="642.0" type="curve"/>
    </contour>
  </outline>
</glyph>
<glyph name="a" format="2">
  <advance width="559.0"/>
  <unicode hex="0061"/>
  <anchor x="280.0" y="0.0" name="bottom"/>
  <anchor x="281.0" y="-100.0" name="btm"/>
  <anchor x="503.0" y="25.0" name="ogonek"/>
  <anchor x="274.0" y="830.0" name="top"/>
  <outline>
    <contour>
      <point x="223.0" y="-8.0" type="curve" smooth="yes"/>
      <point x="303.0" y="-8.0"/>
      <point x="367.0" y="25.0"/>
      <point x="397.0" y="53.0" type="curve"/>
      <point x="410.0" y="86.0" type="line"/>
      <point x="392.0" y="102.0" type="line"/>
      <point x="380.0" y="89.0"/>
      <point x="318.0" y="53.0"/>
      <point x="247.0" y="53.0" type="curve" smooth="yes"/>
      <point x="167.0" y="53.0"/>
      <point x="134.0" y="95.0"/>
      <point x="134.0" y="153.0" type="curve" smooth="yes"/>
      <point x="134.0" y="203.0"/>
      <point x="163.0" y="234.0"/>
      <point x="219.0" y="255.0" type="curve" smooth="yes"/>
      <point x="266.0" y="274.0"/>
      <point x="351.0" y="281.0"/>
      <point x="391.0" y="281.0" type="curve"/>
      <point x="409.0" y="310.0" type="line"/>
      <point x="391.0" y="333.0" type="line"/>
      <point x="333.0" y="333.0"/>
      <point x="239.0" y="325.0"/>
      <point x="174.0" y="300.0" type="curve" smooth="yes"/>
      <point x="96.0" y="271.0"/>
      <point x="54.0" y="220.0"/>
      <point x="54.0" y="147.0" type="curve" smooth="yes"/>
      <point x="54.0" y="50.0"/>
      <point x="125.0" y="-8.0"/>
    </contour>
    <contour>
      <point x="472.0" y="0.0" type="line"/>
      <point x="472.0" y="388.0" type="line" smooth="yes"/>
      <point x="472.0" y="528.0"/>
      <point x="396.0" y="565.0"/>
      <point x="282.0" y="565.0" type="curve" smooth="yes"/>
      <point x="192.0" y="565.0"/>
      <point x="102.0" y="522.0"/>
      <point x="83.0" y="509.0" type="curve"/>
      <point x="103.0" y="451.0" type="line"/>
      <point x="132.0" y="472.0"/>
      <point x="205.0" y="498.0"/>
      <point x="261.0" y="498.0" type="curve" smooth="yes"/>
      <point x="348.0" y="498.0"/>
      <point x="391.0" y="476.0"/>
      <point x="391.0" y="391.0" type="curve" smooth="yes"/>
      <point x="391.0" y="80.0" type="line"/>
      <point x="396.0" y="79.0" type="line"/>
      <point x="396.0" y="0.0" type="line"/>
    </contour>
  </outline>
</glyph>
<glyph name="b" format="2">
  <advance width="607.0"/>
  <unicode hex="0062"/>
  <anchor x="304.0" y="0.0" name="bottom"/>
  <anchor x="315.0" y="-83.0" name="btm"/>
  <anchor x="368.0" y="830.0" name="top"/>
  <outline>
    <contour>
      <point x="90.0" y="811.0" type="line"/>
      <point x="90.0" y="31.0" type="line"/>
      <point x="171.0" y="67.0" type="line"/>
      <point x="171.0" y="481.0" type="line"/>
      <point x="167.0" y="484.0" type="line"/>
      <point x="171.0" y="579.0" type="line"/>
      <point x="171.0" y="811.0" type="line"/>
    </contour>
    <contour>
      <point x="277.0" y="-8.0" type="curve" smooth="yes"/>
      <point x="444.0" y="-8.0"/>
      <point x="557.0" y="117.0"/>
      <point x="557.0" y="299.0" type="curve" smooth="yes"/>
      <point x="557.0" y="477.0"/>
      <point x="459.0" y="564.0"/>
      <point x="337.0" y="564.0" type="curve" smooth="yes"/>
      <point x="237.0" y="564.0"/>
      <point x="183.0" y="512.0"/>
      <point x="157.0" y="485.0" type="curve"/>
      <point x="170.0" y="443.0" type="line"/>
      <point x="198.0" y="468.0"/>
      <point x="253.0" y="500.0"/>
      <point x="315.0" y="500.0" type="curve" smooth="yes"/>
      <point x="420.0" y="500.0"/>
      <point x="475.0" y="426.0"/>
      <point x="474.0" y="288.0" type="curve" smooth="yes"/>
      <point x="473.0" y="129.0"/>
      <point x="384.0" y="52.0"/>
      <point x="286.0" y="52.0" type="curve" smooth="yes"/>
      <point x="234.0" y="52.0"/>
      <point x="190.0" y="62.0"/>
      <point x="171.0" y="76.0" type="curve"/>
      <point x="90.0" y="31.0" type="line"/>
      <point x="109.0" y="18.0"/>
      <point x="195.0" y="-8.0"/>
    </contour>
  </outline>
</glyph>
<glyph name="c" format="2">
  <advance width="494.0"/>
  <unicode hex="0063"/>
  <anchor x="247.0" y="0.0" name="bottom"/>
  <anchor x="280.0" y="-83.0" name="btm"/>
  <anchor x="301.0" y="830.0" name="top"/>
  <outline>
    <contour>
      <point x="52.0" y="270.0" type="curve" smooth="yes"/>
      <point x="52.0" y="111.0"/>
      <point x="139.0" y="-8.0"/>
      <point x="292.0" y="-8.0" type="curve" smooth="yes"/>
      <point x="363.0" y="-8.0"/>
      <point x="427.0" y="13.0"/>
      <point x="462.0" y="45.0" type="curve"/>
      <point x="445.0" y="92.0" type="line"/>
      <point x="421.0" y="77.0"/>
      <point x="369.0" y="54.0"/>
      <point x="305.0" y="54.0" type="curve" smooth="yes"/>
      <point x="210.0" y="54.0"/>
      <point x="127.0" y="130.0"/>
      <point x="131.0" y="286.0" type="curve" smooth="yes"/>
      <point x="135.0" y="432.0"/>
      <point x="219.0" y="501.0"/>
      <point x="310.0" y="501.0" type="curve" smooth="yes"/>
      <point x="362.0" y="501.0"/>
      <point x="408.0" y="491.0"/>
      <point x="436.0" y="471.0" type="curve"/>
      <point x="450.0" y="536.0" type="line"/>
      <point x="430.0" y="549.0"/>
      <point x="380.0" y="564.0"/>
      <point x="314.0" y="564.0" type="curve" smooth="yes"/>
      <point x="145.0" y="564.0"/>
      <point x="51.0" y="438.0"/>
    </contour>
  </outline>
</glyph>
<glyph name="e" format="2">
  <advance width="551.0"/>
  <unicode hex="0065"/>
  <anchor x="276.0" y="0.0" name="bottom"/>
  <anchor x="296.0" y="-83.0" name="btm"/>
  <anchor x="402.0" y="25.0" name="ogonek"/>
  <anchor x="294.0" y="830.0" name="top"/>
  <outline>
    <contour>
      <point x="293.0" y="-8.0" type="curve" smooth="yes"/>
      <point x="362.0" y="-8.0"/>
      <point x="445.0" y="13.0"/>
      <point x="481.0" y="43.0" type="curve"/>
      <point x="466.0" y="91.0" type="line"/>
      <point x="437.0" y="72.0"/>
      <point x="365.0" y="54.0"/>
      <point x="314.0" y="54.0" type="curve" smooth="yes"/>
      <point x="211.0" y="54.0"/>
      <point x="136.0" y="107.0"/>
      <point x="131.0" y="250.0" type="curve" smooth="yes"/>
      <point x="126.0" y="433.0"/>
      <point x="199.0" y="506.0"/>
      <point x="295.0" y="506.0" type="curve" smooth="yes"/>
      <point x="396.0" y="506.0"/>
      <point x="429.0" y="427.0"/>
      <point x="423.0" y="325.0" type="curve"/>
      <point x="107.0" y="325.0" type="line"/>
      <point x="100.0" y="270.0" type="line"/>
      <point x="496.0" y="270.0" type="line"/>
      <point x="500.0" y="293.0"/>
      <point x="500.0" y="320.0"/>
      <point x="500.0" y="355.0" type="curve" smooth="yes"/>
      <point x="497.0" y="482.0"/>
      <point x="418.0" y="566.0"/>
      <point x="300.0" y="564.0" type="curve" smooth="yes"/>
      <point x="140.0" y="563.0"/>
      <point x="51.0" y="443.0"/>
      <point x="51.0" y="276.0" type="curve" smooth="yes"/>
      <point x="51.0" y="98.0"/>
      <point x="137.0" y="-8.0"/>
    </contour>
  </outline>
</glyph>
<glyph name="g" format="2">
  <advance width="598.0"/>
  <unicode hex="0067"/>
  <anchor x="299.0" y="-273.0" name="bottom"/>
  <anchor x="278.0" y="830.0" name="top"/>
  <outline>
    <contour>
      <point x="292.0" y="-252.0" type="curve" smooth="yes"/>
      <point x="441.0" y="-253.0"/>
      <point x="561.0" y="-184.0"/>
      <point x="561.0" y="-74.0" type="curve" smooth="yes"/>
      <point x="561.0" y="-4.0"/>
      <point x="529.0" y="64.0"/>
      <point x="370.0" y="64.0" type="curve" smooth="yes"/>
      <point x="249.0" y="64.0" type="line" smooth="yes"/>
      <point x="190.0" y="64.0"/>
      <point x="169.0" y="79.0"/>
      <point x="169.0" y="126.0" type="curve" smooth="yes"/>
      <point x="169.0" y="160.0"/>
      <point x="196.0" y="193.0"/>
      <point x="218.0" y="203.0" type="curve"/>
      <point x="166.0" y="218.0" type="line"/>
      <point x="124.0" y="189.0"/>
      <point x="95.0" y="145.0"/>
      <point x="95.0" y="106.0" type="curve" smooth="yes"/>
      <point x="94.0" y="70.0"/>
      <point x="104.0" y="34.0"/>
      <point x="152.0" y="16.0" type="curve" smooth="yes"/>
      <point x="158.0" y="14.0"/>
      <point x="164.0" y="9.0"/>
      <point x="170.0" y="8.0" type="curve" smooth="yes"/>
      <point x="192.0" y="2.0"/>
      <point x="222.0" y="0.0"/>
      <point x="261.0" y="0.0" type="curve" smooth="yes"/>
      <point x="336.0" y="0.0" type="line" smooth="yes"/>
      <point x="446.0" y="0.0"/>
      <point x="483.0" y="-27.0"/>
      <point x="483.0" y="-91.0" type="curve" smooth="yes"/>
      <point x="483.0" y="-163.0"/>
      <point x="391.0" y="-196.0"/>
      <point x="295.0" y="-196.0" type="curve" smooth="yes"/>
      <point x="189.0" y="-196.0"/>
      <point x="139.0" y="-163.0"/>
      <point x="139.0" y="-85.0" type="curve" smooth="yes"/>
      <point x="139.0" y="-27.0"/>
      <point x="179.0" y="3.0"/>
      <point x="203.0" y="20.0" type="curve"/>
      <point x="148.0" y="28.0" type="line"/>
      <point x="113.0" y="13.0"/>
      <point x="59.0" y="-32.0"/>
      <point x="59.0" y="-95.0" type="curve" smooth="yes"/>
      <point x="59.0" y="-206.0"/>
      <point x="151.0" y="-252.0"/>
    </contour>
    <contour>
      <point x="282.0" y="186.0" type="curve" smooth="yes"/>
      <point x="404.0" y="186.0"/>
      <point x="502.0" y="254.0"/>
      <point x="502.0" y="380.0" type="curve" smooth="yes"/>
      <point x="502.0" y="508.0"/>
      <point x="401.0" y="567.0"/>
      <point x="285.0" y="564.0" type="curve" smooth="yes"/>
      <point x="166.0" y="562.0"/>
      <point x="69.0" y="502.0"/>
      <point x="69.0" y="370.0" type="curve" smooth="yes"/>
      <point x="69.0" y="258.0"/>
      <point x="162.0" y="186.0"/>
    </contour>
    <contour>
      <point x="283.0" y="240.0" type="curve" smooth="yes"/>
      <point x="196.0" y="240.0"/>
      <point x="150.0" y="298.0"/>
      <point x="150.0" y="374.0" type="curve" smooth="yes"/>
      <point x="150.0" y="478.0"/>
      <point x="217.0" y="508.0"/>
      <point x="289.0" y="509.0" type="curve" smooth="yes"/>
      <point x="371.0" y="509.0"/>
      <point x="421.0" y="466.0"/>
      <point x="421.0" y="377.0" type="curve" smooth="yes"/>
      <point x="421.0" y="278.0"/>
      <point x="364.0" y="240.0"/>
    </contour>
    <contour>
      <point x="438.0" y="490.0" type="line"/>
      <point x="582.0" y="490.0" type="line"/>
      <point x="582.0" y="555.0" type="line"/>
      <point x="529.0" y="555.0" type="line" smooth="yes"/>
      <point x="479.0" y="555.0"/>
      <point x="424.0" y="537.0"/>
      <point x="409.0" y="522.0" type="curve"/>
    </contour>
  </outline>
</glyph>
<glyph name="k" format="2">
  <advance width="569.0"/>
  <unicode hex="006B"/>
  <anchor x="285.0" y="0.0" name="bottom"/>
  <anchor x="297.0" y="-83.0" name="btm"/>
  <anchor x="328.0" y="830.0" name="top"/>
  <outline>
    <contour>
      <point x="530.0" y="556.0" type="line"/>
      <point x="433.0" y="556.0" type="line"/>
      <point x="148.0" y="262.0" type="line"/>
      <point x="170.0" y="248.0" type="line"/>
      <point x="173.0" y="346.0" type="line"/>
      <point x="173.0" y="811.0" type="line"/>
      <point x="92.0" y="811.0" type="line"/>
      <point x="92.0" y="273.0" type="line"/>
      <point x="92.0" y="0.0" type="line"/>
      <point x="173.0" y="0.0" type="line"/>
      <point x="173.0" y="109.0" type="line"/>
      <point x="171.0" y="208.0" type="line"/>
      <point x="162.0" y="187.0" type="line"/>
    </contour>
    <contour>
      <point x="251.0" y="294.0" type="line"/>
      <point x="460.0" y="0.0" type="line"/>
      <point x="554.0" y="0.0" type="line"/>
      <point x="307.0" y="346.0" type="line"/>
    </contour>
  </outline>
</glyph>
<glyph name="q" format="2">
  <advance width="604.0"/>
  <unicode hex="0071"/>
  <anchor x="302.0" y="0.0" name="bottom"/>
  <anchor x="296.0" y="-83.0" name="btm"/>
  <anchor x="284.0" y="830.0" name="top"/>
  <outline>
    <contour>
      <point x="436.0" y="-68.0" type="line"/>
      <point x="436.0" y="-247.0" type="line"/>
      <point x="518.0" y="-247.0" type="line"/>
      <point x="518.0" y="559.0" type="line"/>
      <point x="427.0" y="540.0" type="line"/>
      <point x="444.0" y="500.0" type="line"/>
      <point x="436.0" y="489.0" type="line"/>
      <point x="436.0" y="94.0" type="line"/>
      <point x="438.0" y="59.0" type="line"/>
    </contour>
    <contour>
      <point x="270.0" y="-8.0" type="curve" smooth="yes"/>
      <point x="373.0" y="-8.0"/>
      <point x="426.0" y="47.0"/>
      <point x="451.0" y="71.0" type="curve"/>
      <point x="438.0" y="113.0" type="line"/>
      <point x="411.0" y="90.0"/>
      <point x="357.0" y="56.0"/>
      <point x="292.0" y="56.0" type="curve" smooth="yes"/>
      <point x="192.0" y="56.0"/>
      <point x="131.0" y="126.0"/>
      <point x="133.0" y="271.0" type="curve" smooth="yes"/>
      <point x="135.0" y="420.0"/>
      <point x="215.0" y="505.0"/>
      <point x="321.0" y="505.0" type="curve" smooth="yes"/>
      <point x="382.0" y="505.0"/>
      <point x="419.0" y="493.0"/>
      <point x="437.0" y="477.0" type="curve"/>
      <point x="473.0" y="530.0" type="line"/>
      <point x="461.0" y="542.0"/>
      <point x="401.0" y="564.0"/>
      <point x="329.0" y="564.0" type="curve" smooth="yes"/>
      <point x="161.0" y="564.0"/>
      <point x="50.0" y="438.0"/>
      <point x="50.0" y="260.0" type="curve" smooth="yes"/>
      <point x="50.0" y="72.0"/>
      <point x="156.0" y="-8.0"/>
    </contour>
  </outline>
</glyph>
<glyph name="s" format="2">
  <advance width="480.0"/>
  <unicode hex="0073"/>
  <anchor x="240.0" y="0.0" name="bottom"/>
  <anchor x="245.0" y="-83.0" name="btm"/>
  <anchor x="248.0" y="830.0" name="top"/>
  <outline>
    <contour>
      <point x="60.0" y="32.0" type="line"/>
      <point x="92.0" y="11.0"/>
      <point x="166.0" y="-8.0"/>
      <point x="237.0" y="-8.0" type="curve" smooth="yes"/>
      <point x="355.0" y="-8.0"/>
      <point x="431.0" y="47.0"/>
      <point x="431.0" y="145.0" type="curve" smooth="yes"/>
      <point x="431.0" y="241.0"/>
      <point x="335.0" y="285.0"/>
      <point x="262.0" y="314.0" type="curve" smooth="yes"/>
      <point x="189.0" y="342.0"/>
      <point x="139.0" y="370.0"/>
      <point x="140.0" y="428.0" type="curve" smooth="yes"/>
      <point x="141.0" y="472.0"/>
      <point x="182.0" y="504.0"/>
      <point x="262.0" y="504.0" type="curve" smooth="yes"/>
      <point x="316.0" y="504.0"/>
      <point x="369.0" y="488.0"/>
      <point x="388.0" y="474.0" type="curve"/>
      <point x="402.0" y="536.0" type="line"/>
      <point x="382.0" y="547.0"/>
      <point x="324.0" y="565.0"/>
      <point x="259.0" y="564.0" type="curve" smooth="yes"/>
      <point x="154.0" y="564.0"/>
      <point x="66.0" y="520.0"/>
      <point x="64.0" y="424.0" type="curve" smooth="yes"/>
      <point x="63.0" y="333.0"/>
      <point x="137.0" y="285.0"/>
      <point x="222.0" y="250.0" type="curve" smooth="yes"/>
      <point x="289.0" y="224.0"/>
      <point x="355.0" y="198.0"/>
      <point x="355.0" y="139.0" type="curve" smooth="yes"/>
      <point x="355.0" y="82.0"/>
      <point x="304.0" y="53.0"/>
      <point x="233.0" y="53.0" type="curve" smooth="yes"/>
      <point x="166.0" y="54.0"/>
      <point x="94.0" y="79.0"/>
      <point x="73.0" y="94.0" type="curve"/>
    </contour>
  </outline>
</glyph>
<glyph name="u" format="2">
  <advance width="610.0"/>
  <unicode hex="0075"/>
  <anchor x="305.0" y="0.0" name="bottom"/>
  <anchor x="296.0" y="-83.0" name="btm"/>
  <anchor x="549.0" y="10.0" name="ogonek"/>
  <anchor x="314.0" y="830.0" name="top"/>
  <anchor x="590.0" y="557.0" name="topright"/>
  <outline>
    <contour>
      <point x="252.0" y="-8.0" type="curve" smooth="yes"/>
      <point x="318.0" y="-8.0"/>
      <point x="396.0" y="21.0"/>
      <point x="448.0" y="58.0" type="curve"/>
      <point x="447.0" y="72.0" type="line"/>
      <point x="447.0" y="27.0" type="line" smooth="yes"/>
      <point x="447.0" y="-2.0"/>
      <point x="462.0" y="-6.0"/>
      <point x="488.0" y="-6.0" type="curve" smooth="yes"/>
      <point x="520.0" y="-6.0" type="line"/>
      <point x="520.0" y="557.0" type="line"/>
      <point x="438.0" y="557.0" type="line"/>
      <point x="438.0" y="112.0" type="line"/>
      <point x="407.0" y="88.0"/>
      <point x="341.0" y="60.0"/>
      <point x="285.0" y="60.0" type="curve" smooth="yes"/>
      <point x="198.0" y="60.0"/>
      <point x="170.0" y="87.0"/>
      <point x="170.0" y="227.0" type="curve" smooth="yes"/>
      <point x="170.0" y="557.0" type="line"/>
      <point x="89.0" y="557.0" type="line"/>
      <point x="89.0" y="230.0" type="line" smooth="yes"/>
      <point x="89.0" y="89.0"/>
      <point x="109.0" y="-8.0"/>
    </contour>
  </outline>
</glyph>
<glyph name="v" format="2">
  <advance width="544.0"/>
  <unicode hex="0076"/>
  <anchor x="272.0" y="0.0" name="bottom"/>
  <anchor x="272.0" y="557.0" name="top"/>
  <outline>
    <contour>
      <point x="241.0" y="-9.0" type="line"/>
      <point x="310.0" y="-9.0" type="line"/>
      <point x="526.0" y="557.0" type="line"/>
      <point x="439.0" y="557.0" type="line"/>
      <point x="317.0" y="211.0" type="line"/>
      <point x="265.0" y="38.0" type="line"/>
      <point x="289.0" y="38.0" type="line"/>
      <point x="232.0" y="211.0" type="line"/>
      <point x="106.0" y="557.0" type="line"/>
      <point x="18.0" y="557.0" type="line"/>
    </contour>
  </outline>
</glyph>
<glyph name="w" format="2">
  <advance width="798.0"/>
  <unicode hex="0077"/>
  <anchor x="399.0" y="0.0" name="bottom"/>
  <anchor x="402.0" y="-81.0" name="btm"/>
  <anchor x="402.0" y="834.0" name="top"/>
  <outline>
    <contour>
      <point x="194.0" y="-9.0" type="line"/>
      <point x="271.0" y="-9.0" type="line"/>
      <point x="385.0" y="400.0" type="line"/>
      <point x="410.0" y="515.0" type="line"/>
      <point x="392.0" y="515.0" type="line"/>
      <point x="415.0" y="400.0" type="line"/>
      <point x="531.0" y="-9.0" type="line"/>
      <point x="606.0" y="-9.0" type="line"/>
      <point x="779.0" y="557.0" type="line"/>
      <point x="700.0" y="557.0" type="line"/>
      <point x="592.0" y="172.0" type="line"/>
      <point x="560.0" y="39.0" type="line"/>
      <point x="582.0" y="39.0" type="line"/>
      <point x="550.0" y="174.0" type="line"/>
      <point x="441.0" y="557.0" type="line"/>
      <point x="361.0" y="557.0" type="line"/>
      <point x="253.0" y="174.0" type="line"/>
      <point x="223.0" y="37.0" type="line"/>
      <point x="246.0" y="37.0" type="line"/>
      <point x="212.0" y="174.0" type="line"/>
      <point x="101.0" y="557.0" type="line"/>
      <point x="19.0" y="557.0" type="line"/>
    </contour>
  </outline>
</glyph>
<glyph name="y" format="2">
  <advance width="541.0"/>
  <unicode hex="0079"/>
  <anchor x="271.0" y="0.0" name="bottom"/>
  <anchor x="438.0" y="-103.0" name="btm"/>
  <anchor x="284.0" y="830.0" name="top"/>
  <outline>
    <contour>
      <point x="59.0" y="-241.0" type="line"/>
      <point x="64.0" y="-245.0"/>
      <point x="98.0" y="-248.0"/>
      <point x="113.0" y="-248.0" type="curve" smooth="yes"/>
      <point x="128.0" y="-248.0"/>
      <point x="149.0" y="-245.0"/>
      <point x="163.0" y="-241.0" type="curve" smooth="yes"/>
      <point x="236.0" y="-221.0"/>
      <point x="286.0" y="-147.0"/>
      <point x="330.0" y="-14.0" type="curve" smooth="yes"/>
      <point x="521.0" y="557.0" type="line"/>
      <point x="433.0" y="557.0" type="line"/>
      <point x="317.0" y="175.0" type="line"/>
      <point x="274.0" y="27.0" type="line"/>
      <point x="298.0" y="27.0" type="line"/>
      <point x="248.0" y="175.0" type="line"/>
      <point x="114.0" y="557.0" type="line"/>
      <point x="27.0" y="557.0" type="line"/>
      <point x="236.0" y="0.0" type="line"/>
      <point x="270.0" y="0.0" type="line"/>
      <point x="263.0" y="11.0" type="line"/>
      <point x="227.0" y="-142.0"/>
      <point x="165.0" y="-180.0"/>
      <point x="107.0" y="-180.0" type="curve" smooth="yes"/>
      <point x="93.0" y="-180.0"/>
      <point x="69.0" y="-177.0"/>
      <point x="59.0" y="-174.0" type="curve"/>
    </contour>
  </outline>
</glyph>
<glyph name="z" format="2">
  <advance width="523.0"/>
  <unicode hex="007A"/>
  <anchor x="262.0" y="0.0" name="bottom"/>
  <anchor x="262.0" y="-83.0" name="btm"/>
  <anchor x="262.0" y="279.0" name="center"/>
  <anchor x="268.0" y="830.0" name="top"/>
  <outline>
    <contour>
      <point x="62.0" y="0.0" type="line"/>
      <point x="475.0" y="0.0" type="line"/>
      <point x="475.0" y="60.0" type="line"/>
      <point x="155.0" y="60.0" type="line"/>
      <point x="190.0" y="107.0" type="line"/>
      <point x="480.0" y="521.0" type="line"/>
      <point x="466.0" y="557.0" type="line"/>
      <point x="69.0" y="557.0" type="line"/>
      <point x="69.0" y="494.0" type="line"/>
      <point x="370.0" y="494.0" type="line"/>
      <point x="336.0" y="446.0" type="line"/>
      <point x="45.0" y="32.0" type="line"/>
    </contour>
  </outline>
</glyph>
<glyph name="bar" format="2">
  <advance width="411.0"/>
  <unicode hex="007C"/>
  <outline>
    <contour>
      <point x="168.0" y="-91.0" type="line"/>
      <point x="243.0" y="-91.0" type="line"/>
      <point x="243.0" y="869.0" type="line"/>
      <point x="168.0" y="869.0" type="line"/>
    </contour>
  </outline>
</glyph>
<glyph name="asciitilde" format="2">
  <advance width="702.0"/>
  <unicode hex="007E"/>
  <outline>
    <contour>
      <point x="151.0" y="345.0" type="line"/>
      <point x="174.0" y="377.0"/>
      <point x="206.0" y="407.0"/>
      <point x="255.0" y="407.0" type="curve" smooth="yes"/>
      <point x="332.0" y="407.0"/>
      <point x="348.0" y="322.0"/>
      <point x="443.0" y="322.0" type="curve" smooth="yes"/>
      <point x="521.0" y="322.0"/>
      <point x="574.0" y="371.0"/>
      <point x="593.0" y="416.0" type="curve"/>
      <point x="555.0" y="453.0" type="line"/>
      <point x="532.0" y="421.0"/>
      <point x="497.0" y="392.0"/>
      <point x="447.0" y="392.0" type="curve" smooth="yes"/>
      <point x="373.0" y="392.0"/>
      <point x="353.0" y="476.0"/>
      <point x="258.0" y="476.0" type="curve" smooth="yes"/>
      <point x="182.0" y="476.0"/>
      <point x="125.0" y="417.0"/>
      <point x="108.0" y="379.0" type="curve"/>
    </contour>
  </outline>
</glyph>
<glyph name="cent" format="2">
  <advance width="583.0"/>
  <unicode hex="00A2"/>
  <anchor x="278.0" y="0.0" name="bottom"/>
  <anchor x="311.0" y="-83.0" name="btm"/>
  <anchor x="332.0" y="830.0" name="top"/>
  <outline>
    <contour>
      <point x="312.0" y="531.0" type="line"/>
      <point x="368.0" y="531.0" type="line"/>
      <point x="371.0" y="670.0" type="line"/>
      <point x="315.0" y="670.0" type="line"/>
    </contour>
    <contour>
      <point x="292.0" y="-105.0" type="line"/>
      <point x="348.0" y="-105.0" type="line"/>
      <point x="350.0" y="33.0" type="line"/>
      <point x="294.0" y="33.0" type="line"/>
    </contour>
    <component base="c" xOffset="31.0"/>
  </outline>
</glyph>
<glyph name="sterling" format="2">
  <advance width="755.0"/>
  <unicode hex="00A3"/>
  <outline>
    <contour>
      <point x="69.0" y="26.0" type="curve" smooth="yes"/>
      <point x="69.0" y="7.0"/>
      <point x="93.0" y="-5.0"/>
      <point x="111.0" y="-5.0" type="curve" smooth="yes"/>
      <point x="143.0" y="-5.0"/>
      <point x="174.0" y="14.0"/>
      <point x="191.0" y="33.0" type="curve"/>
      <point x="257.0" y="54.0"/>
      <point x="340.0" y="-12.0"/>
      <point x="479.0" y="-12.0" type="curve" smooth="yes"/>
      <point x="623.0" y="-12.0"/>
      <point x="680.0" y="57.0"/>
      <point x="680.0" y="155.0" type="curve" smooth="yes"/>
      <point x="680.0" y="207.0"/>
      <point x="648.0" y="256.0"/>
      <point x="618.0" y="274.0" type="curve"/>
      <point x="560.0" y="244.0" type="line"/>
      <point x="586.0" y="231.0"/>
      <point x="603.0" y="191.0"/>
      <point x="603.0" y="160.0" type="curve" smooth="yes"/>
      <point x="603.0" y="92.0"/>
      <point x="567.0" y="47.0"/>
      <point x="470.0" y="47.0" type="curve" smooth="yes"/>
      <point x="372.0" y="47.0"/>
      <point x="320.0" y="85.0"/>
      <point x="246.0" y="83.0" type="curve"/>
      <point x="276.0" y="114.0"/>
      <point x="299.0" y="184.0"/>
      <point x="298.0" y="322.0" type="curve" smooth="yes"/>
      <point x="297.0" y="505.0" type="line" smooth="yes"/>
      <point x="296.0" y="646.0"/>
      <point x="366.0" y="689.0"/>
      <point x="434.0" y="689.0" type="curve" smooth="yes"/>
      <point x="499.0" y="689.0"/>
      <point x="536.0" y="670.0"/>
      <point x="563.0" y="646.0" type="curve"/>
      <point x="603.0" y="705.0" type="line"/>
      <point x="568.0" y="732.0"/>
      <point x="519.0" y="751.0"/>
      <point x="442.0" y="751.0" type="curve" smooth="yes"/>
      <point x="302.0" y="751.0"/>
      <point x="216.0" y="653.0"/>
      <point x="216.0" y="516.0" type="curve" smooth="yes"/>
      <point x="216.0" y="227.0" type="line" smooth="yes"/>
      <point x="216.0" y="157.0"/>
      <point x="183.0" y="114.0"/>
      <point x="172.0" y="95.0" type="curve"/>
      <point x="101.0" y="91.0"/>
      <point x="69.0" y="62.0"/>
    </contour>
    <contour>
      <point x="126.0" y="373.0" type="line"/>
      <point x="485.0" y="373.0" type="line"/>
      <point x="485.0" y="430.0" type="line"/>
      <point x="126.0" y="430.0" type="line"/>
    </contour>
  </outline>
</glyph>
<glyph name="currency" format="2">
  <advance width="747.0"/>
  <unicode hex="00A4"/>
  <outline>
    <contour>
      <point x="373.0" y="151.0" type="curve" smooth="yes"/>
      <point x="492.0" y="151.0"/>
      <point x="589.0" y="247.0"/>
      <point x="589.0" y="367.0" type="curve" smooth="yes"/>
      <point x="589.0" y="487.0"/>
      <point x="492.0" y="582.0"/>
      <point x="373.0" y="582.0" type="curve" smooth="yes"/>
      <point x="254.0" y="582.0"/>
      <point x="157.0" y="487.0"/>
      <point x="157.0" y="367.0" type="curve"/>
      <point x="157.0" y="247.0"/>
      <point x="254.0" y="151.0"/>
    </contour>
    <contour>
      <point x="373.0" y="212.0" type="curve" smooth="yes"/>
      <point x="291.0" y="212.0"/>
      <point x="223.0" y="282.0"/>
      <point x="223.0" y="367.0" type="curve" smooth="yes"/>
      <point x="223.0" y="452.0"/>
      <point x="291.0" y="521.0"/>
      <point x="373.0" y="521.0" type="curve" smooth="yes"/>
      <point x="456.0" y="521.0"/>
      <point x="522.0" y="452.0"/>
      <point x="522.0" y="367.0" type="curve" smooth="yes"/>
      <point x="522.0" y="282.0"/>
      <point x="456.0" y="212.0"/>
    </contour>
    <contour>
      <point x="212.0" y="490.0" type="line"/>
      <point x="259.0" y="537.0" type="line"/>
      <point x="152.0" y="645.0" type="line"/>
      <point x="105.0" y="597.0" type="line"/>
    </contour>
    <contour>
      <point x="535.0" y="488.0" type="line"/>
      <point x="644.0" y="597.0" type="line"/>
      <point x="596.0" y="644.0" type="line"/>
      <point x="488.0" y="536.0" type="line"/>
    </contour>
    <contour>
      <point x="153.0" y="88.0" type="line"/>
      <point x="260.0" y="196.0" type="line"/>
      <point x="212.0" y="242.0" type="line"/>
      <point x="105.0" y="135.0" type="line"/>
    </contour>
    <contour>
      <point x="595.0" y="91.0" type="line"/>
      <point x="642.0" y="138.0" type="line"/>
      <point x="535.0" y="245.0" type="line"/>
      <point x="488.0" y="198.0" type="line"/>
    </contour>
  </outline>
</glyph>
<glyph name="yen" format="2">
  <advance width="753.0"/>
  <unicode hex="00A5"/>
  <outline>
    <contour>
      <point x="336.0" y="0.0" type="line"/>
      <point x="417.0" y="0.0" type="line"/>
      <point x="417.0" y="402.0" type="line"/>
      <point x="400.0" y="345.0" type="line"/>
      <point x="662.0" y="743.0" type="line"/>
      <point x="575.0" y="743.0" type="line"/>
      <point x="411.0" y="485.0" type="line"/>
      <point x="369.0" y="397.0" type="line"/>
      <point x="375.0" y="397.0"/>
      <point x="381.0" y="397.0"/>
      <point x="387.0" y="397.0" type="curve"/>
      <point x="342.0" y="482.0" type="line"/>
      <point x="181.0" y="743.0" type="line"/>
      <point x="92.0" y="743.0" type="line"/>
      <point x="355.0" y="338.0" type="line"/>
      <point x="336.0" y="402.0" type="line"/>
    </contour>
    <contour>
      <point x="138.0" y="336.0" type="line"/>
      <point x="608.0" y="336.0" type="line"/>
      <point x="608.0" y="390.0" type="line"/>
      <point x="138.0" y="390.0" type="line"/>
    </contour>
    <contour>
      <point x="138.0" y="157.0" type="line"/>
      <point x="608.0" y="157.0" type="line"/>
      <point x="608.0" y="211.0" type="line"/>
      <point x="138.0" y="211.0" type="line"/>
    </contour>
  </outline>
</glyph>
<glyph name="guillemetleft" format="2">
  <advance width="943.0"/>
  <unicode hex="00AB"/>
  <outline>
    <contour>
      <point x="120.0" y="265.0" type="line"/>
      <point x="428.0" y="52.0" type="line"/>
      <point x="450.0" y="111.0" type="line"/>
      <point x="180.0" y="314.0" type="line"/>
      <point x="180.0" y="286.0" type="line"/>
      <point x="450.0" y="491.0" type="line"/>
      <point x="428.0" y="552.0" type="line"/>
      <point x="120.0" y="333.0" type="line"/>
    </contour>
    <contour>
      <point x="474.0" y="265.0" type="line"/>
      <point x="792.0" y="52.0" type="line"/>
      <point x="814.0" y="111.0" type="line"/>
      <point x="534.0" y="314.0" type="line"/>
      <point x="534.0" y="286.0" type="line"/>
      <point x="814.0" y="491.0" type="line"/>
      <point x="792.0" y="552.0" type="line"/>
      <point x="474.0" y="333.0" type="line"/>
    </contour>
  </outline>
</glyph>
<glyph name="macron" format="2">
  <advance width="314.0"/>
  <unicode hex="00AF"/>
  <anchor x="156.0" y="830.0" name="_top"/>
  <outline>
    <contour>
      <point x="24.0" y="709.0" type="line"/>
      <point x="290.0" y="709.0" type="line"/>
      <point x="290.0" y="770.0" type="line"/>
      <point x="24.0" y="770.0" type="line"/>
    </contour>
  </outline>
</glyph>
<glyph name="plusminus" format="2">
  <advance width="680.0"/>
  <unicode hex="00B1"/>
  <outline>
    <contour>
      <point x="123.0" y="0.0" type="line"/>
      <point x="557.0" y="0.0" type="line"/>
      <point x="557.0" y="62.0" type="line"/>
      <point x="123.0" y="62.0" type="line"/>
    </contour>
    <component base="plus"/>
  </outline>
</glyph>
<glyph name="micro" format="2">
  <advance width="664.0"/>
  <unicode hex="00B5"/>
  <outline>
    <contour>
      <point x="105.0" y="-181.0" type="line"/>
      <point x="182.0" y="-181.0" type="line"/>
      <point x="168.0" y="90.0" type="line"/>
      <point x="156.0" y="84.0" type="line"/>
      <point x="185.0" y="10.0"/>
      <point x="241.0" y="-8.0"/>
      <point x="308.0" y="-8.0" type="curve" smooth="yes"/>
      <point x="387.0" y="-8.0"/>
      <point x="441.0" y="42.0"/>
      <point x="466.0" y="67.0" type="curve"/>
      <point x="464.0" y="14.0"/>
      <point x="485.0" y="-6.0"/>
      <point x="519.0" y="-6.0" type="curve" smooth="yes"/>
      <point x="563.0" y="-6.0"/>
      <point x="604.0" y="28.0"/>
      <point x="612.0" y="42.0" type="curve"/>
      <point x="601.0" y="80.0" type="line"/>
      <point x="581.0" y="63.0"/>
      <point x="564.0" y="59.0"/>
      <point x="557.0" y="59.0" type="curve" smooth="yes"/>
      <point x="543.0" y="59.0"/>
      <point x="537.0" y="68.0"/>
      <point x="537.0" y="111.0" type="curve" smooth="yes"/>
      <point x="537.0" y="557.0" type="line"/>
      <point x="456.0" y="557.0" type="line"/>
      <point x="456.0" y="115.0" type="line"/>
      <point x="432.0" y="96.0"/>
      <point x="372.0" y="56.0"/>
      <point x="315.0" y="56.0" type="curve" smooth="yes"/>
      <point x="230.0" y="57.0"/>
      <point x="187.0" y="97.0"/>
      <point x="187.0" y="188.0" type="curve" smooth="yes"/>
      <point x="187.0" y="557.0" type="line"/>
      <point x="105.0" y="557.0" type="line"/>
    </contour>
  </outline>
</glyph>
<glyph name="paragraph" format="2">
  <advance width="644.0"/>
  <unicode hex="00B6"/>
  <outline>
    <contour>
      <point x="260.0" y="0.0" type="line"/>
      <point x="328.0" y="0.0" type="line"/>
      <point x="328.0" y="771.0" type="line"/>
      <point x="466.0" y="771.0" type="line"/>
      <point x="466.0" y="0.0" type="line"/>
      <point x="534.0" y="0.0" type="line"/>
      <point x="534.0" y="825.0" type="line"/>
      <point x="478.0" y="826.0"/>
      <point x="363.0" y="835.0"/>
      <point x="317.0" y="835.0" type="curve" smooth="yes"/>
      <point x="136.0" y="835.0"/>
      <point x="44.0" y="751.0"/>
      <point x="44.0" y="624.0" type="curve" smooth="yes"/>
      <point x="44.0" y="473.0"/>
      <point x="115.0" y="406.0"/>
      <point x="260.0" y="406.0" type="curve"/>
    </contour>
  </outline>
</glyph>
<glyph name="cedilla" format="2">
  <advance width="229.0"/>
  <unicode hex="00B8"/>
  <anchor x="161.0" y="-83.0" name="_btm"/>
  <outline>
    <contour>
      <point x="23.0" y="-213.0" type="line"/>
      <point x="35.0" y="-221.0"/>
      <point x="68.0" y="-227.0"/>
      <point x="92.0" y="-227.0" type="curve" smooth="yes"/>
      <point x="148.0" y="-227.0"/>
      <point x="199.0" y="-196.0"/>
      <point x="204.0" y="-113.0" type="curve" smooth="yes"/>
      <point x="207.0" y="-58.0"/>
      <point x="198.0" y="-15.0"/>
      <point x="179.0" y="10.0" type="curve"/>
      <point x="162.0" y="12.0" type="line"/>
      <point x="131.0" y="10.0" type="line"/>
      <point x="140.0" y="-10.0"/>
      <point x="147.0" y="-38.0"/>
      <point x="143.0" y="-88.0" type="curve" smooth="yes"/>
      <point x="140.0" y="-146.0"/>
      <point x="112.0" y="-168.0"/>
      <point x="73.0" y="-168.0" type="curve" smooth="yes"/>
      <point x="55.0" y="-168.0"/>
      <point x="38.0" y="-165.0"/>
      <point x="29.0" y="-160.0" type="curve"/>
    </contour>
  </outline>
</glyph>
<glyph name="guillemetright" format="2">
  <advance width="942.0"/>
  <unicode hex="00BB"/>
  <outline>
    <contour>
      <point x="822.0" y="265.0" type="line"/>
      <point x="822.0" y="333.0" type="line"/>
      <point x="514.0" y="552.0" type="line"/>
      <point x="492.0" y="491.0" type="line"/>
      <point x="762.0" y="286.0" type="line"/>
      <point x="762.0" y="314.0" type="line"/>
      <point x="492.0" y="111.0" type="line"/>
      <point x="514.0" y="52.0" type="line"/>
    </contour>
    <contour>
      <point x="468.0" y="265.0" type="line"/>
      <point x="468.0" y="333.0" type="line"/>
      <point x="150.0" y="552.0" type="line"/>
      <point x="128.0" y="491.0" type="line"/>
      <point x="408.0" y="286.0" type="line"/>
      <point x="408.0" y="314.0" type="line"/>
      <point x="128.0" y="111.0" type="line"/>
      <point x="150.0" y="52.0" type="line"/>
    </contour>
  </outline>
</glyph>
<glyph name="AE" format="2">
  <advance width="903.0"/>
  <unicode hex="00C6"/>
  <anchor x="452.0" y="0.0" name="bottom"/>
  <anchor x="676.0" y="-83.0" name="btm"/>
  <anchor x="498.0" y="830.0" name="top"/>
  <outline>
    <contour>
      <point x="-27.0" y="0.0" type="line"/>
      <point x="65.0" y="0.0" type="line"/>
      <point x="401.0" y="702.0" type="line"/>
      <point x="330.0" y="743.0" type="line"/>
    </contour>
    <contour>
      <point x="410.0" y="743.0" type="line"/>
      <point x="330.0" y="743.0" type="line"/>
      <point x="341.0" y="688.0" type="line"/>
      <point x="442.0" y="688.0" type="line"/>
    </contour>
    <contour>
      <point x="116.0" y="204.0" type="line"/>
      <point x="474.0" y="204.0" type="line"/>
      <point x="459.0" y="266.0" type="line"/>
      <point x="132.0" y="266.0" type="line"/>
    </contour>
    <contour>
      <point x="410.0" y="0.0" type="line"/>
      <point x="871.0" y="0.0" type="line"/>
      <point x="871.0" y="65.0" type="line"/>
      <point x="492.0" y="65.0" type="line"/>
      <point x="492.0" y="351.0" type="line"/>
      <point x="749.0" y="351.0" type="line"/>
      <point x="749.0" y="415.0" type="line"/>
      <point x="492.0" y="415.0" type="line"/>
      <point x="492.0" y="679.0" type="line"/>
      <point x="835.0" y="679.0" type="line"/>
      <point x="835.0" y="743.0" type="line"/>
      <point x="410.0" y="743.0" type="line"/>
    </contour>
  </outline>
</glyph>
<glyph name="multiply" format="2">
  <advance width="669.0"/>
  <unicode hex="00D7"/>
  <outline>
    <contour>
      <point x="122.0" y="207.0" type="line"/>
      <point x="170.0" y="159.0" type="line"/>
      <point x="335.0" y="332.0" type="line"/>
      <point x="499.0" y="159.0" type="line"/>
      <point x="547.0" y="207.0" type="line"/>
      <point x="377.0" y="378.0" type="line"/>
      <point x="547.0" y="550.0" type="line"/>
      <point x="499.0" y="598.0" type="line"/>
      <point x="335.0" y="421.0" type="line"/>
      <point x="170.0" y="598.0" type="line"/>
      <point x="122.0" y="550.0" type="line"/>
      <point x="292.0" y="376.0" type="line"/>
    </contour>
  </outline>
</glyph>
<glyph name="Thorn" format="2">
  <advance width="620.0"/>
  <unicode hex="00DE"/>
  <anchor x="310.0" y="0.0" name="bottom"/>
  <anchor x="310.0" y="743.0" name="top"/>
  <outline>
    <contour>
      <point x="301.0" y="143.0" type="curve" smooth="yes"/>
      <point x="474.0" y="143.0"/>
      <point x="579.0" y="225.0"/>
      <point x="579.0" y="387.0" type="curve" smooth="yes"/>
      <point x="579.0" y="542.0"/>
      <point x="482.0" y="609.0"/>
      <point x="326.0" y="609.0" type="curve" smooth="yes"/>
      <point x="268.0" y="609.0"/>
      <point x="196.0" y="600.0"/>
      <point x="149.0" y="599.0" type="curve"/>
      <point x="177.0" y="538.0" type="line"/>
      <point x="207.0" y="544.0"/>
      <point x="262.0" y="549.0"/>
      <point x="299.0" y="550.0" type="curve" smooth="yes"/>
      <point x="430.0" y="552.0"/>
      <point x="496.0" y="500.0"/>
      <point x="496.0" y="386.0" type="curve" smooth="yes"/>
      <point x="496.0" y="247.0"/>
      <point x="413.0" y="203.0"/>
      <point x="293.0" y="203.0" type="curve" smooth="yes"/>
      <point x="260.0" y="203.0"/>
      <point x="210.0" y="206.0"/>
      <point x="177.0" y="210.0" type="curve"/>
      <point x="177.0" y="149.0" type="line"/>
      <point x="197.0" y="148.0"/>
      <point x="250.0" y="143.0"/>
    </contour>
    <contour>
      <point x="101.0" y="0.0" type="line"/>
      <point x="183.0" y="0.0" type="line"/>
      <point x="183.0" y="743.0" type="line"/>
      <point x="101.0" y="743.0" type="line"/>
    </contour>
  </outline>
</glyph>
<glyph name="germandbls" format="2">
  <advance width="621.0"/>
  <unicode hex="00DF"/>
  <anchor x="311.0" y="0.0" name="bottom"/>
  <anchor x="311.0" y="557.0" name="top"/>
  <outline>
    <contour>
      <point x="93.0" y="0.0" type="line"/>
      <point x="175.0" y="0.0" type="line"/>
      <point x="175.0" y="476.0" type="line" smooth="yes"/>
      <point x="175.0" y="649.0"/>
      <point x="243.0" y="713.0"/>
      <point x="336.0" y="713.0" type="curve" smooth="yes"/>
      <point x="396.0" y="713.0"/>
      <point x="447.0" y="690.0"/>
      <point x="447.0" y="628.0" type="curve" smooth="yes"/>
      <point x="447.0" y="531.0"/>
      <point x="342.0" y="506.0"/>
      <point x="342.0" y="417.0" type="curve" smooth="yes"/>
      <point x="342.0" y="276.0"/>
      <point x="516.0" y="264.0"/>
      <point x="517.0" y="143.0" type="curve" smooth="yes"/>
      <point x="517.0" y="78.0"/>
      <point x="464.0" y="50.0"/>
      <point x="410.0" y="50.0" type="curve" smooth="yes"/>
      <point x="351.0" y="50.0"/>
      <point x="313.0" y="63.0"/>
      <point x="294.0" y="73.0" type="curve"/>
      <point x="294.0" y="8.0" type="line"/>
      <point x="313.0" y="0.0"/>
      <point x="358.0" y="-8.0"/>
      <point x="407.0" y="-8.0" type="curve" smooth="yes"/>
      <point x="497.0" y="-8.0"/>
      <point x="599.0" y="35.0"/>
      <point x="599.0" y="152.0" type="curve" smooth="yes"/>
      <point x="599.0" y="314.0"/>
      <point x="418.0" y="327.0"/>
      <point x="418.0" y="427.0" type="curve" smooth="yes"/>
      <point x="418.0" y="496.0"/>
      <point x="528.0" y="523.0"/>
      <point x="528.0" y="639.0" type="curve" smooth="yes"/>
      <point x="528.0" y="729.0"/>
      <point x="441.0" y="771.0"/>
      <point x="350.0" y="771.0" type="curve" smooth="yes"/>
      <point x="209.0" y="771.0"/>
      <point x="93.0" y="685.0"/>
      <point x="93.0" y="481.0" type="curve" smooth="yes"/>
    </contour>
    <contour>
      <point x="21.0" y="495.0" type="line"/>
      <point x="99.0" y="495.0" type="line"/>
      <point x="119.0" y="521.0" type="line"/>
      <point x="106.0" y="560.0" type="line"/>
      <point x="21.0" y="543.0" type="line"/>
    </contour>
  </outline>
</glyph>
<glyph name="ae" format="2">
  <advance width="892.0"/>
  <unicode hex="00E6"/>
  <anchor x="446.0" y="0.0" name="bottom"/>
  <anchor x="449.0" y="830.0" name="top"/>
  <outline>
    <contour>
      <point x="634.0" y="-8.0" type="curve" smooth="yes"/>
      <point x="703.0" y="-8.0"/>
      <point x="786.0" y="13.0"/>
      <point x="823.0" y="43.0" type="curve"/>
      <point x="807.0" y="91.0" type="line"/>
      <point x="778.0" y="72.0"/>
      <point x="704.0" y="54.0"/>
      <point x="654.0" y="54.0" type="curve" smooth="yes"/>
      <point x="551.0" y="54.0"/>
      <point x="477.0" y="105.0"/>
      <point x="472.0" y="250.0" type="curve"/>
      <point x="467.0" y="433.0"/>
      <point x="540.0" y="506.0"/>
      <point x="636.0" y="506.0" type="curve" smooth="yes"/>
      <point x="737.0" y="506.0"/>
      <point x="770.0" y="427.0"/>
      <point x="764.0" y="325.0" type="curve"/>
      <point x="448.0" y="325.0" type="line"/>
      <point x="441.0" y="270.0" type="line"/>
      <point x="836.0" y="270.0" type="line"/>
      <point x="841.0" y="293.0"/>
      <point x="840.0" y="320.0"/>
      <point x="840.0" y="355.0" type="curve"/>
      <point x="837.0" y="482.0"/>
      <point x="759.0" y="566.0"/>
      <point x="641.0" y="564.0" type="curve" smooth="yes"/>
      <point x="481.0" y="563.0"/>
      <point x="391.0" y="443.0"/>
      <point x="391.0" y="276.0" type="curve" smooth="yes"/>
      <point x="391.0" y="92.0"/>
      <point x="478.0" y="-8.0"/>
    </contour>
    <contour>
      <point x="54.0" y="147.0" type="curve" smooth="yes"/>
      <point x="54.0" y="50.0"/>
      <point x="126.0" y="-8.0"/>
      <point x="225.0" y="-8.0" type="curve" smooth="yes"/>
      <point x="323.0" y="-8.0"/>
      <point x="399.0" y="42.0"/>
      <point x="445.0" y="106.0" type="curve"/>
      <point x="433.0" y="131.0" type="line"/>
      <point x="416.0" y="144.0" type="line"/>
      <point x="395.0" y="106.0"/>
      <point x="322.0" y="53.0"/>
      <point x="246.0" y="53.0" type="curve" smooth="yes"/>
      <point x="166.0" y="53.0"/>
      <point x="136.0" y="96.0"/>
      <point x="136.0" y="153.0" type="curve" smooth="yes"/>
      <point x="136.0" y="201.0"/>
      <point x="161.0" y="233.0"/>
      <point x="219.0" y="255.0" type="curve" smooth="yes"/>
      <point x="262.0" y="273.0"/>
      <point x="334.0" y="281.0"/>
      <point x="391.0" y="281.0" type="curve"/>
      <point x="409.0" y="310.0" type="line"/>
      <point x="390.0" y="333.0" type="line"/>
      <point x="326.0" y="333.0"/>
      <point x="239.0" y="326.0"/>
      <point x="174.0" y="300.0" type="curve" smooth="yes"/>
      <point x="99.0" y="271.0"/>
      <point x="54.0" y="220.0"/>
    </contour>
    <contour>
      <point x="100.0" y="455.0" type="line"/>
      <point x="131.0" y="476.0"/>
      <point x="211.0" y="503.0"/>
      <point x="267.0" y="503.0" type="curve" smooth="yes"/>
      <point x="341.0" y="503.0"/>
      <point x="390.0" y="490.0"/>
      <point x="390.0" y="391.0" type="curve" smooth="yes"/>
      <point x="390.0" y="284.0" type="line"/>
      <point x="463.0" y="284.0" type="line"/>
      <point x="463.0" y="388.0" type="line" smooth="yes"/>
      <point x="463.0" y="532.0"/>
      <point x="396.0" y="565.0"/>
      <point x="287.0" y="565.0" type="curve" smooth="yes"/>
      <point x="198.0" y="565.0"/>
      <point x="99.0" y="522.0"/>
      <point x="79.0" y="509.0" type="curve"/>
    </contour>
  </outline>
</glyph>
<glyph name="oslash" format="2">
  <advance width="598.0"/>
  <unicode hex="00F8"/>
  <anchor x="322.0" y="830.0" name="top"/>
  <outline>
    <contour>
      <point x="152.0" y="-82.0" type="line"/>
      <point x="199.0" y="-95.0" type="line"/>
      <point x="446.0" y="639.0" type="line"/>
      <point x="399.0" y="652.0" type="line"/>
    </contour>
    <contour>
      <point x="294.0" y="-8.0" type="curve" smooth="yes"/>
      <point x="438.0" y="-8.0"/>
      <point x="545.0" y="93.0"/>
      <point x="548.0" y="271.0" type="curve" smooth="yes"/>
      <point x="549.0" y="428.0"/>
      <point x="479.0" y="564.0"/>
      <point x="305.0" y="564.0" type="curve" smooth="yes"/>
      <point x="162.0" y="564.0"/>
      <point x="53.0" y="466.0"/>
      <point x="50.0" y="289.0" type="curve"/>
      <point x="48.0" y="131.0"/>
      <point x="117.0" y="-8.0"/>
    </contour>
    <contour>
      <point x="296.0" y="50.0" type="curve" smooth="yes"/>
      <point x="182.0" y="52.0"/>
      <point x="133.0" y="161.0"/>
      <point x="133.0" y="288.0" type="curve" smooth="yes"/>
      <point x="134.0" y="427.0"/>
      <point x="197.0" y="507.0"/>
      <point x="303.0" y="505.0" type="curve"/>
      <point x="415.0" y="504.0"/>
      <point x="465.0" y="402.0"/>
      <point x="465.0" y="274.0" type="curve" smooth="yes"/>
      <point x="464.0" y="135.0"/>
      <point x="403.0" y="49.0"/>
    </contour>
  </outline>
</glyph>
<glyph name="Aogonek" format="2">
  <advance width="680.0"/>
  <unicode hex="0104"/>
  <anchor x="340.0" y="0.0" name="bottom"/>
  <anchor x="330.0" y="-83.0" name="btm"/>
  <anchor x="612.0" y="10.0" name="ogonek"/>
  <anchor x="341.0" y="830.0" name="top"/>
  <outline>
    <contour>
      <point x="440.0" y="-152.0" type="curve"/>
      <point x="441.0" y="-219.0"/>
      <point x="493.0" y="-250.0"/>
      <point x="558.0" y="-250.0" type="curve" smooth="yes"/>
      <point x="599.0" y="-250.0"/>
      <point x="646.0" y="-240.0"/>
      <point x="672.0" y="-220.0" type="curve"/>
      <point x="672.0" y="-175.0" type="line"/>
      <point x="646.0" y="-188.0"/>
      <point x="619.0" y="-194.0"/>
      <point x="594.0" y="-195.0" type="curve" smooth="yes"/>
      <point x="553.0" y="-195.0"/>
      <point x="521.0" y="-182.0"/>
      <point x="521.0" y="-137.0" type="curve"/>
      <point x="520.0" y="-77.0"/>
      <point x="604.0" y="-22.0"/>
      <point x="654.0" y="4.0" type="curve"/>
      <point x="642.0" y="11.0" type="line"/>
      <point x="587.0" y="3.0" type="line"/>
      <point x="529.0" y="-25.0"/>
      <point x="439.0" y="-82.0"/>
    </contour>
    <component base="A"/>
  </outline>
</glyph>
<glyph name="hbar" format="2">
  <advance width="639.0"/>
  <unicode hex="0127"/>
  <anchor x="320.0" y="0.0" name="bottom"/>
  <anchor x="328.0" y="-83.0" name="btm"/>
  <anchor x="320.0" y="492.0" name="center"/>
  <anchor x="135.0" y="869.0" name="top"/>
  <outline>
    <contour>
      <point x="21.0" y="639.0" type="line"/>
      <point x="308.0" y="639.0" type="line"/>
      <point x="308.0" y="688.0" type="line"/>
      <point x="21.0" y="688.0" type="line"/>
    </contour>
    <component base="h"/>
  </outline>
</glyph>
<glyph name="eng" format="2">
  <advance width="632.0"/>
  <unicode hex="014B"/>
  <outline>
    <contour>
      <point x="94.0" y="0.0" type="line"/>
      <point x="176.0" y="0.0" type="line"/>
      <point x="176.0" y="429.0" type="line"/>
      <point x="219.0" y="462.0"/>
      <point x="292.0" y="495.0"/>
      <point x="345.0" y="497.0" type="curve" smooth="yes"/>
      <point x="430.0" y="500.0"/>
      <point x="460.0" y="464.0"/>
      <point x="460.0" y="344.0" type="curve" smooth="yes"/>
      <point x="460.0" y="-18.0" type="line" smooth="yes"/>
      <point x="460.0" y="-144.0"/>
      <point x="436.0" y="-189.0"/>
      <point x="370.0" y="-190.0" type="curve" smooth="yes"/>
      <point x="355.0" y="-190.0"/>
      <point x="327.0" y="-188.0"/>
      <point x="317.0" y="-184.0" type="curve"/>
      <point x="317.0" y="-241.0" type="line"/>
      <point x="325.0" y="-244.0"/>
      <point x="368.0" y="-248.0"/>
      <point x="386.0" y="-248.0" type="curve" smooth="yes"/>
      <point x="491.0" y="-248.0"/>
      <point x="541.0" y="-158.0"/>
      <point x="541.0" y="-7.0" type="curve" smooth="yes"/>
      <point x="541.0" y="346.0" type="line" smooth="yes"/>
      <point x="541.0" y="510.0"/>
      <point x="497.0" y="567.0"/>
      <point x="377.0" y="565.0" type="curve"/>
      <point x="294.0" y="563.0"/>
      <point x="208.0" y="515.0"/>
      <point x="167.0" y="485.0" type="curve"/>
      <point x="167.0" y="556.0" type="line"/>
      <point x="94.0" y="556.0" type="line"/>
    </contour>
  </outline>
</glyph>
<glyph name="OE" format="2">
  <advance width="1004.0"/>
  <unicode hex="0152"/>
  <anchor x="502.0" y="0.0" name="bottom"/>
  <anchor x="519.0" y="-83.0" name="btm"/>
  <anchor x="530.0" y="830.0" name="top"/>
  <outline>
    <contour>
      <point x="54.0" y="373.0" type="curve" smooth="yes"/>
      <point x="49.0" y="151.0"/>
      <point x="179.0" y="-12.0"/>
      <point x="384.0" y="-8.0" type="curve" smooth="yes"/>
      <point x="461.0" y="-6.0"/>
      <point x="514.0" y="17.0"/>
      <point x="563.0" y="58.0" type="curve"/>
      <point x="563.0" y="138.0" type="line"/>
      <point x="532.0" y="94.0"/>
      <point x="471.0" y="55.0"/>
      <point x="387.0" y="55.0" type="curve" smooth="yes"/>
      <point x="222.0" y="55.0"/>
      <point x="137.0" y="200.0"/>
      <point x="137.0" y="369.0" type="curve" smooth="yes"/>
      <point x="137.0" y="591.0"/>
      <point x="266.0" y="688.0"/>
      <point x="396.0" y="688.0" type="curve" smooth="yes"/>
      <point x="480.0" y="688.0"/>
      <point x="535.0" y="656.0"/>
      <point x="564.0" y="615.0" type="curve"/>
      <point x="557.0" y="704.0" type="line"/>
      <point x="512.0" y="740.0"/>
      <point x="450.0" y="752.0"/>
      <point x="398.0" y="751.0" type="curve" smooth="yes"/>
      <point x="202.0" y="745.0"/>
      <point x="58.0" y="619.0"/>
    </contour>
    <contour>
      <point x="534.0" y="0.0" type="line"/>
      <point x="972.0" y="0.0" type="line"/>
      <point x="972.0" y="65.0" type="line"/>
      <point x="617.0" y="65.0" type="line"/>
      <point x="617.0" y="352.0" type="line"/>
      <point x="854.0" y="352.0" type="line"/>
      <point x="854.0" y="416.0" type="line"/>
      <point x="617.0" y="416.0" type="line"/>
      <point x="617.0" y="679.0" type="line"/>
      <point x="936.0" y="679.0" type="line"/>
      <point x="936.0" y="743.0" type="line"/>
      <point x="534.0" y="743.0" type="line"/>
    </contour>
  </outline>
</glyph>
<glyph name="oe" format="2">
  <advance width="966.0"/>
  <unicode hex="0153"/>
  <anchor x="483.0" y="0.0" name="bottom"/>
  <anchor x="494.0" y="-83.0" name="btm"/>
  <anchor x="494.0" y="830.0" name="top"/>
  <outline>
    <contour>
      <point x="708.0" y="-8.0" type="curve" smooth="yes"/>
      <point x="777.0" y="-8.0"/>
      <point x="860.0" y="13.0"/>
      <point x="897.0" y="43.0" type="curve"/>
      <point x="881.0" y="91.0" type="line"/>
      <point x="852.0" y="72.0"/>
      <point x="779.0" y="54.0"/>
      <point x="729.0" y="54.0" type="curve" smooth="yes"/>
      <point x="626.0" y="54.0"/>
      <point x="551.0" y="107.0"/>
      <point x="546.0" y="250.0" type="curve"/>
      <point x="542.0" y="433.0"/>
      <point x="614.0" y="506.0"/>
      <point x="710.0" y="506.0" type="curve" smooth="yes"/>
      <point x="811.0" y="506.0"/>
      <point x="844.0" y="427.0"/>
      <point x="838.0" y="325.0" type="curve"/>
      <point x="523.0" y="325.0" type="line"/>
      <point x="516.0" y="270.0" type="line"/>
      <point x="911.0" y="270.0" type="line"/>
      <point x="915.0" y="293.0"/>
      <point x="915.0" y="320.0"/>
      <point x="915.0" y="355.0" type="curve" smooth="yes"/>
      <point x="912.0" y="482.0"/>
      <point x="833.0" y="566.0"/>
      <point x="715.0" y="564.0" type="curve" smooth="yes"/>
      <point x="556.0" y="563.0"/>
      <point x="466.0" y="443.0"/>
      <point x="466.0" y="276.0" type="curve" smooth="yes"/>
      <point x="466.0" y="98.0"/>
      <point x="552.0" y="-8.0"/>
    </contour>
    <contour>
      <point x="296.0" y="50.0" type="curve" smooth="yes"/>
      <point x="183.0" y="52.0"/>
      <point x="134.0" y="161.0"/>
      <point x="134.0" y="288.0" type="curve" smooth="yes"/>
      <point x="135.0" y="427.0"/>
      <point x="199.0" y="507.0"/>
      <point x="304.0" y="505.0" type="curve"/>
      <point x="415.0" y="504.0"/>
      <point x="467.0" y="402.0"/>
      <point x="466.0" y="274.0" type="curve" smooth="yes"/>
      <point x="466.0" y="135.0"/>
      <point x="403.0" y="49.0"/>
    </contour>
    <contour>
      <point x="294.0" y="-8.0" type="curve" smooth="yes"/>
      <point x="438.0" y="-8.0"/>
      <point x="543.0" y="93.0"/>
      <point x="546.0" y="271.0" type="curve" smooth="yes"/>
      <point x="547.0" y="428.0"/>
      <point x="479.0" y="564.0"/>
      <point x="306.0" y="564.0" type="curve" smooth="yes"/>
      <point x="164.0" y="564.0"/>
      <point x="54.0" y="466.0"/>
      <point x="51.0" y="289.0" type="curve" smooth="yes"/>
      <point x="49.0" y="131.0"/>
      <point x="117.0" y="-8.0"/>
    </contour>
  </outline>
</glyph>
<glyph name="florin" format="2">
  <advance width="546.0"/>
  <unicode hex="0192"/>
  <outline>
    <contour>
      <point x="159.0" y="-174.0" type="line"/>
      <point x="239.0" y="-174.0" type="line"/>
      <point x="294.0" y="495.0" type="line"/>
      <point x="451.0" y="495.0" type="line"/>
      <point x="455.0" y="557.0" type="line"/>
      <point x="299.0" y="557.0" type="line"/>
      <point x="306.0" y="613.0" type="line" smooth="yes"/>
      <point x="317.0" y="720.0"/>
      <point x="367.0" y="757.0"/>
      <point x="429.0" y="757.0" type="curve" smooth="yes"/>
      <point x="473.0" y="757.0"/>
      <point x="499.0" y="753.0"/>
      <point x="506.0" y="748.0" type="curve"/>
      <point x="511.0" y="815.0" type="line"/>
      <point x="504.0" y="818.0"/>
      <point x="483.0" y="823.0"/>
      <point x="439.0" y="823.0" type="curve" smooth="yes"/>
      <point x="333.0" y="823.0"/>
      <point x="244.0" y="759.0"/>
      <point x="224.0" y="590.0" type="curve" smooth="yes"/>
      <point x="220.0" y="557.0" type="line"/>
      <point x="110.0" y="538.0" type="line"/>
      <point x="107.0" y="495.0" type="line"/>
      <point x="215.0" y="495.0" type="line"/>
    </contour>
  </outline>
</glyph>
<glyph name="schwa" format="2">
  <advance width="551.0"/>
  <unicode hex="0259"/>
  <anchor x="256.566" y="-273.078" name="bottom"/>
  <anchor x="258.0" y="-83.0" name="btm"/>
  <anchor x="259.0" y="831.0" name="top"/>
  <outline>
    <contour>
      <point x="258.0" y="565.0" type="curve" smooth="yes"/>
      <point x="189.0" y="565.0"/>
      <point x="106.0" y="544.0"/>
      <point x="70.0" y="514.0" type="curve"/>
      <point x="85.0" y="466.0" type="line"/>
      <point x="114.0" y="485.0"/>
      <point x="186.0" y="503.0"/>
      <point x="237.0" y="503.0" type="curve" smooth="yes"/>
      <point x="340.0" y="503.0"/>
      <point x="415.0" y="450.0"/>
      <point x="420.0" y="307.0" type="curve" smooth="yes"/>
      <point x="425.0" y="124.0"/>
      <point x="352.0" y="51.0"/>
      <point x="256.0" y="51.0" type="curve" smooth="yes"/>
      <point x="155.0" y="51.0"/>
      <point x="122.0" y="130.0"/>
      <point x="128.0" y="232.0" type="curve"/>
      <point x="444.0" y="232.0" type="line"/>
      <point x="451.0" y="287.0" type="line"/>
      <point x="55.0" y="287.0" type="line"/>
      <point x="51.0" y="264.0"/>
      <point x="51.0" y="237.0"/>
      <point x="51.0" y="202.0" type="curve" smooth="yes"/>
      <point x="54.0" y="75.0"/>
      <point x="133.0" y="-9.0"/>
      <point x="251.0" y="-7.0" type="curve" smooth="yes"/>
      <point x="411.0" y="-6.0"/>
      <point x="500.0" y="114.0"/>
      <point x="500.0" y="281.0" type="curve" smooth="yes"/>
      <point x="500.0" y="459.0"/>
      <point x="414.0" y="565.0"/>
    </contour>
  </outline>
</glyph>
<glyph name="commaturnedmod" format="2">
  <unicode hex="02BB"/>
  <outline>
    <contour>
      <point x="5.0" y="650.0" type="curve" smooth="yes"/>
      <point x="9.0" y="650.0" type="line" smooth="yes"/>
      <point x="21.0" y="650.0"/>
      <point x="53.0" y="657.0"/>
      <point x="53.0" y="694.0" type="curve" smooth="yes"/>
      <point x="53.0" y="715.0"/>
      <point x="44.0" y="724.0"/>
      <point x="34.0" y="731.0" type="curve" smooth="yes"/>
      <point x="24.0" y="738.0"/>
      <point x="13.0" y="747.0"/>
      <point x="13.0" y="767.0" type="curve" smooth="yes"/>
      <point x="13.0" y="798.0"/>
      <point x="27.0" y="829.0"/>
      <point x="47.0" y="839.0" type="curve"/>
      <point x="47.0" y="845.0" type="line"/>
      <point x="20.0" y="864.0" type="line"/>
      <point x="19.0" y="864.0" type="line"/>
      <point x="8.0" y="860.0"/>
      <point x="-56.0" y="811.0"/>
      <point x="-56.0" y="730.0" type="curve" smooth="yes"/>
      <point x="-56.0" y="678.0"/>
      <point x="-32.0" y="650.0"/>
    </contour>
  </outline>
</glyph>
<glyph name="caron" format="2">
  <advance width="402.0"/>
  <unicode hex="02C7"/>
  <anchor x="204.0" y="820.0" name="_top"/>
  <outline>
    <contour>
      <point x="23.0" y="805.0" type="line"/>
      <point x="168.0" y="635.0" type="line"/>
      <point x="241.0" y="635.0" type="line"/>
      <point x="383.0" y="804.0" type="line"/>
      <point x="333.0" y="826.0" type="line"/>
      <point x="205.0" y="697.0" type="line"/>
      <point x="71.0" y="826.0" type="line"/>
    </contour>
  </outline>
</glyph>
<glyph name="verticallinemod" format="2">
  <unicode hex="02C8"/>
  <outline>
    <contour>
      <point x="45.0" y="1040.0" type="line"/>
      <point x="-45.0" y="1040.0" type="line"/>
      <point x="-27.0" y="687.0" type="line"/>
      <point x="26.0" y="687.0" type="line"/>
    </contour>
  </outline>
</glyph>
<glyph name="breve" format="2">
  <unicode hex="02D8"/>
  <anchor x="0.0" y="830.0" name="_top"/>
  <outline>
    <contour>
      <point x="0.0" y="652.0" type="curve" smooth="yes"/>
      <point x="103.0" y="652.0"/>
      <point x="171.0" y="740.0"/>
      <point x="165.0" y="827.0" type="curve"/>
      <point x="109.0" y="827.0" type="line"/>
      <point x="109.0" y="803.0"/>
      <point x="94.0" y="715.0"/>
      <point x="0.0" y="715.0" type="curve" smooth="yes"/>
      <point x="-95.0" y="715.0"/>
      <point x="-107.0" y="802.0"/>
      <point x="-107.0" y="827.0" type="curve"/>
      <point x="-165.0" y="827.0" type="line"/>
      <point x="-171.0" y="740.0"/>
      <point x="-108.0" y="652.0"/>
    </contour>
  </outline>
</glyph>
<glyph name="dotaccent" format="2">
  <advance width="161.0"/>
  <unicode hex="02D9"/>
  <anchor x="81.0" y="830.0" name="_top"/>
  <outline>
    <contour>
      <point x="77.0" y="678.0" type="curve" smooth="yes"/>
      <point x="108.0" y="678.0"/>
      <point x="137.0" y="703.0"/>
      <point x="137.0" y="741.0" type="curve" smooth="yes"/>
      <point x="137.0" y="772.0"/>
      <point x="120.0" y="796.0"/>
      <point x="84.0" y="796.0" type="curve" smooth="yes"/>
      <point x="55.0" y="796.0"/>
      <point x="24.0" y="770.0"/>
      <point x="24.0" y="733.0" type="curve" smooth="yes"/>
      <point x="24.0" y="698.0"/>
      <point x="48.0" y="678.0"/>
    </contour>
  </outline>
</glyph>
<glyph name="ring" format="2">
  <advance width="348.0"/>
  <unicode hex="02DA"/>
  <anchor x="174.0" y="830.0" name="_top"/>
  <outline>
    <contour>
      <point x="172.0" y="650.0" type="curve" smooth="yes"/>
      <point x="252.0" y="650.0"/>
      <point x="324.0" y="691.0"/>
      <point x="325.0" y="781.0" type="curve" smooth="yes"/>
      <point x="326.0" y="861.0"/>
      <point x="267.0" y="907.0"/>
      <point x="175.0" y="907.0" type="curve" smooth="yes"/>
      <point x="101.0" y="907.0"/>
      <point x="24.0" y="872.0"/>
      <point x="23.0" y="782.0" type="curve" smooth="yes"/>
      <point x="21.0" y="703.0"/>
      <point x="80.0" y="650.0"/>
    </contour>
    <contour>
      <point x="173.0" y="698.0" type="curve" smooth="yes"/>
      <point x="115.0" y="699.0"/>
      <point x="81.0" y="732.0"/>
      <point x="81.0" y="782.0" type="curve" smooth="yes"/>
      <point x="82.0" y="841.0"/>
      <point x="129.0" y="861.0"/>
      <point x="174.0" y="861.0" type="curve" smooth="yes"/>
      <point x="229.0" y="860.0"/>
      <point x="268.0" y="832.0"/>
      <point x="268.0" y="781.0" type="curve" smooth="yes"/>
      <point x="268.0" y="723.0"/>
      <point x="226.0" y="698.0"/>
    </contour>
  </outline>
</glyph>
<glyph name="tilde" format="2">
  <advance width="448.0"/>
  <unicode hex="02DC"/>
  <anchor x="225.0" y="830.0" name="_top"/>
  <outline>
    <contour>
      <point x="56.0" y="688.0" type="line"/>
      <point x="74.0" y="709.0"/>
      <point x="107.0" y="738.0"/>
      <point x="149.0" y="738.0" type="curve" smooth="yes"/>
      <point x="209.0" y="738.0"/>
      <point x="212.0" y="666.0"/>
      <point x="298.0" y="666.0" type="curve" smooth="yes"/>
      <point x="356.0" y="666.0"/>
      <point x="402.0" y="707.0"/>
      <point x="425.0" y="751.0" type="curve"/>
      <point x="392.0" y="778.0" type="line"/>
      <point x="374.0" y="756.0"/>
      <point x="344.0" y="728.0"/>
      <point x="298.0" y="728.0" type="curve" smooth="yes"/>
      <point x="239.0" y="728.0"/>
      <point x="232.0" y="800.0"/>
      <point x="150.0" y="800.0" type="curve" smooth="yes"/>
      <point x="92.0" y="800.0"/>
      <point x="43.0" y="755.0"/>
      <point x="23.0" y="714.0" type="curve"/>
    </contour>
  </outline>
</glyph>
<glyph name="hungarumlaut" format="2">
  <advance width="497.0"/>
  <unicode hex="02DD"/>
  <anchor x="194.0" y="820.0" name="_top"/>
  <outline>
    <contour>
      <point x="62.0" y="651.0" type="line"/>
      <point x="103.0" y="687.0"/>
      <point x="178.0" y="778.0"/>
      <point x="212.0" y="835.0" type="curve"/>
      <point x="152.0" y="877.0" type="line"/>
      <point x="23.0" y="677.0" type="line"/>
    </contour>
    <contour>
      <point x="301.0" y="651.0" type="line"/>
      <point x="345.0" y="686.0"/>
      <point x="423.0" y="776.0"/>
      <point x="454.0" y="831.0" type="curve"/>
      <point x="396.0" y="873.0" type="line"/>
      <point x="263.0" y="677.0" type="line"/>
    </contour>
  </outline>
</glyph>
<glyph name="acutecomb" format="2">
  <unicode hex="0301"/>
  <anchor x="0.0" y="830.0" name="_top"/>
  <anchor x="-46.0" y="983.0" name="top"/>
  <outline>
    <contour>
      <point x="-38.0" y="645.0" type="line"/>
      <point x="5.0" y="673.0"/>
      <point x="110.0" y="773.0"/>
      <point x="144.0" y="822.0" type="curve"/>
      <point x="85.0" y="873.0" type="line"/>
      <point x="35.0" y="803.0"/>
      <point x="-21.0" y="742.0"/>
      <point x="-80.0" y="678.0" type="curve"/>
    </contour>
  </outline>
</glyph>
<glyph name="tildecomb" format="2">
  <unicode hex="0303"/>
  <anchor x="0.0" y="830.0" name="_top"/>
  <anchor x="0.0" y="1009.0" name="top"/>
  <outline>
    <contour>
      <point x="62.0" y="652.0" type="curve" smooth="yes"/>
      <point x="123.0" y="652.0"/>
      <point x="151.0" y="701.0"/>
      <point x="166.0" y="753.0" type="curve"/>
      <point x="124.0" y="774.0" type="line"/>
      <point x="121.0" y="756.0"/>
      <point x="104.0" y="712.0"/>
      <point x="66.0" y="712.0" type="curve" smooth="yes"/>
      <point x="21.0" y="712.0"/>
      <point x="19.0" y="781.0"/>
      <point x="-55.0" y="781.0" type="curve" smooth="yes"/>
      <point x="-120.0" y="781.0"/>
      <point x="-151.0" y="726.0"/>
      <point x="-161.0" y="682.0" type="curve"/>
      <point x="-123.0" y="659.0" type="line"/>
      <point x="-114.0" y="679.0"/>
      <point x="-101.0" y="721.0"/>
      <point x="-58.0" y="721.0" type="curve" smooth="yes"/>
      <point x="-11.0" y="721.0"/>
      <point x="-11.0" y="652.0"/>
    </contour>
  </outline>
</glyph>
<glyph name="dieresiscomb" format="2">
  <unicode hex="0308"/>
  <anchor x="0.0" y="830.0" name="_top"/>
  <anchor x="0.0" y="1001.0" name="top"/>
  <outline>
    <contour>
      <point x="-114.0" y="658.0" type="curve" smooth="yes"/>
      <point x="-84.0" y="658.0"/>
      <point x="-57.0" y="680.0"/>
      <point x="-57.0" y="716.0" type="curve" smooth="yes"/>
      <point x="-57.0" y="746.0"/>
      <point x="-71.0" y="767.0"/>
      <point x="-106.0" y="767.0" type="curve" smooth="yes"/>
      <point x="-134.0" y="767.0"/>
      <point x="-163.0" y="743.0"/>
      <point x="-163.0" y="709.0" type="curve" smooth="yes"/>
      <point x="-163.0" y="676.0"/>
      <point x="-142.0" y="658.0"/>
    </contour>
    <contour>
      <point x="106.0" y="658.0" type="curve" smooth="yes"/>
      <point x="136.0" y="658.0"/>
      <point x="163.0" y="680.0"/>
      <point x="163.0" y="716.0" type="curve" smooth="yes"/>
      <point x="163.0" y="746.0"/>
      <point x="148.0" y="767.0"/>
      <point x="115.0" y="767.0" type="curve" smooth="yes"/>
      <point x="86.0" y="767.0"/>
      <point x="58.0" y="743.0"/>
      <point x="58.0" y="709.0" type="curve" smooth="yes"/>
      <point x="58.0" y="676.0"/>
      <point x="79.0" y="658.0"/>
    </contour>
  </outline>
</glyph>
<glyph name="hookabovecomb" format="2">
  <unicode hex="0309"/>
  <anchor x="0.0" y="831.0" name="_top"/>
  <anchor x="0.0" y="1009.0" name="top"/>
  <outline>
    <contour>
      <point x="-13.0" y="643.0" type="curve"/>
      <point x="35.0" y="643.0" type="line"/>
      <point x="26.0" y="668.0"/>
      <point x="35.0" y="689.0"/>
      <point x="43.0" y="696.0" type="curve" smooth="yes"/>
      <point x="71.0" y="721.0"/>
      <point x="110.0" y="735.0"/>
      <point x="110.0" y="791.0" type="curve" smooth="yes"/>
      <point x="110.0" y="849.0"/>
      <point x="64.0" y="884.0"/>
      <point x="-2.0" y="884.0" type="curve" smooth="yes"/>
      <point x="-27.0" y="884.0"/>
      <point x="-54.0" y="877.0"/>
      <point x="-72.0" y="869.0" type="curve"/>
      <point x="-68.0" y="814.0" type="line"/>
      <point x="-57.0" y="820.0"/>
      <point x="-40.0" y="824.0"/>
      <point x="-24.0" y="824.0" type="curve" smooth="yes"/>
      <point x="17.0" y="824.0"/>
      <point x="36.0" y="807.0"/>
      <point x="36.0" y="777.0" type="curve"/>
      <point x="36.0" y="741.0"/>
      <point x="-26.0" y="735.0"/>
      <point x="-26.0" y="686.0" type="curve"/>
      <point x="-26.0" y="668.0"/>
      <point x="-19.0" y="657.0"/>
    </contour>
  </outline>
</glyph>
<glyph name="ringcomb" format="2">
  <unicode hex="030A"/>
  <anchor x="0.0" y="830.0" name="_top"/>
  <anchor x="83.0" y="1037.0" name="top"/>
  <outline>
    <contour>
      <point x="-2.0" y="650.0" type="curve" smooth="yes"/>
      <point x="78.0" y="650.0"/>
      <point x="150.0" y="691.0"/>
      <point x="151.0" y="781.0" type="curve" smooth="yes"/>
      <point x="152.0" y="861.0"/>
      <point x="93.0" y="907.0"/>
      <point x="1.0" y="907.0" type="curve" smooth="yes"/>
      <point x="-73.0" y="907.0"/>
      <point x="-150.0" y="872.0"/>
      <point x="-151.0" y="782.0" type="curve" smooth="yes"/>
      <point x="-152.0" y="703.0"/>
      <point x="-94.0" y="650.0"/>
    </contour>
    <contour>
      <point x="-1.0" y="698.0" type="curve" smooth="yes"/>
      <point x="-59.0" y="698.0"/>
      <point x="-93.0" y="732.0"/>
      <point x="-93.0" y="782.0" type="curve" smooth="yes"/>
      <point x="-93.0" y="841.0"/>
      <point x="-45.0" y="861.0"/>
      <point x="0.0" y="861.0" type="curve" smooth="yes"/>
      <point x="55.0" y="861.0"/>
      <point x="94.0" y="832.0"/>
      <point x="94.0" y="781.0" type="curve" smooth="yes"/>
      <point x="94.0" y="723.0"/>
      <point x="52.0" y="698.0"/>
    </contour>
  </outline>
</glyph>
<glyph name="caroncomb" format="2">
  <unicode hex="030C"/>
  <anchor x="0.0" y="830.0" name="_top"/>
  <anchor x="1.0" y="1032.0" name="top"/>
  <outline>
    <contour>
      <point x="-182.0" y="833.0" type="line"/>
      <point x="-37.0" y="663.0" type="line"/>
      <point x="36.0" y="663.0" type="line"/>
      <point x="178.0" y="832.0" type="line"/>
      <point x="128.0" y="854.0" type="line"/>
      <point x="0.0" y="725.0" type="line"/>
      <point x="-134.0" y="854.0" type="line"/>
    </contour>
  </outline>
</glyph>
<glyph name="breveinvertedcomb" format="2">
  <unicode hex="0311"/>
  <anchor x="0.0" y="830.0" name="_top"/>
  <anchor x="0.0" y="983.0" name="top"/>
  <outline>
    <contour>
      <point x="0.0" y="827.0" type="curve" smooth="yes"/>
      <point x="-108.0" y="827.0"/>
      <point x="-171.0" y="739.0"/>
      <point x="-165.0" y="652.0" type="curve"/>
      <point x="-107.0" y="652.0" type="line"/>
      <point x="-107.0" y="677.0"/>
      <point x="-95.0" y="764.0"/>
      <point x="0.0" y="764.0" type="curve" smooth="yes"/>
      <point x="94.0" y="764.0"/>
      <point x="109.0" y="676.0"/>
      <point x="109.0" y="652.0" type="curve"/>
      <point x="165.0" y="652.0" type="line"/>
      <point x="171.0" y="739.0"/>
      <point x="103.0" y="827.0"/>
    </contour>
  </outline>
</glyph>
<glyph name="horncomb" format="2">
  <unicode hex="031B"/>
  <anchor x="82.0" y="557.0" name="_topright"/>
  <anchor x="82.0" y="557.0" name="topright"/>
  <outline>
    <contour>
      <point x="-10.0" y="500.0" type="line"/>
      <point x="87.0" y="500.0"/>
      <point x="174.0" y="578.0"/>
      <point x="174.0" y="664.0" type="curve" smooth="yes"/>
      <point x="174.0" y="671.0"/>
      <point x="173.0" y="678.0"/>
      <point x="172.0" y="686.0" type="curve"/>
      <point x="102.0" y="686.0" type="line"/>
      <point x="103.0" y="682.0"/>
      <point x="102.0" y="676.0"/>
      <point x="101.0" y="669.0" type="curve" smooth="yes"/>
      <point x="95.0" y="628.0"/>
      <point x="72.0" y="557.0"/>
      <point x="-10.0" y="557.0" type="curve"/>
    </contour>
  </outline>
</glyph>
<glyph name="dieresisbelowcomb" format="2">
  <unicode hex="0324"/>
  <anchor x="0.0" y="0.0" name="_bottom"/>
  <anchor x="0.0" y="-83.0" name="_btm"/>
  <anchor x="0.0" y="830.0" name="_top"/>
  <anchor x="0.0" y="-172.0" name="bottom"/>
  <outline>
    <contour>
      <point x="-114.0" y="-172.0" type="curve" smooth="yes"/>
      <point x="-84.0" y="-172.0"/>
      <point x="-57.0" y="-150.0"/>
      <point x="-57.0" y="-114.0" type="curve" smooth="yes"/>
      <point x="-57.0" y="-84.0"/>
      <point x="-71.0" y="-63.0"/>
      <point x="-106.0" y="-63.0" type="curve" smooth="yes"/>
      <point x="-134.0" y="-63.0"/>
      <point x="-163.0" y="-87.0"/>
      <point x="-163.0" y="-121.0" type="curve" smooth="yes"/>
      <point x="-163.0" y="-154.0"/>
      <point x="-142.0" y="-172.0"/>
    </contour>
    <contour>
      <point x="106.0" y="-172.0" type="curve" smooth="yes"/>
      <point x="136.0" y="-172.0"/>
      <point x="163.0" y="-150.0"/>
      <point x="163.0" y="-114.0" type="curve" smooth="yes"/>
      <point x="163.0" y="-84.0"/>
      <point x="148.0" y="-63.0"/>
      <point x="115.0" y="-63.0" type="curve" smooth="yes"/>
      <point x="86.0" y="-63.0"/>
      <point x="58.0" y="-87.0"/>
      <point x="58.0" y="-121.0" type="curve" smooth="yes"/>
      <point x="58.0" y="-154.0"/>
      <point x="79.0" y="-172.0"/>
    </contour>
  </outline>
</glyph>
<glyph name="strokeshortcomb" format="2">
  <unicode hex="0335"/>
  <anchor x="0.0" y="281.0" name="_center"/>
  <outline>
    <contour>
      <point x="201.0" y="311.0" type="line"/>
      <point x="-201.0" y="311.0" type="line"/>
      <point x="-201.0" y="251.0" type="line"/>
      <point x="201.0" y="251.0" type="line"/>
    </contour>
  </outline>
</glyph>
<glyph name="pi" format="2">
  <advance width="765.0"/>
  <unicode hex="03C0"/>
  <outline>
    <contour>
      <point x="63.0" y="447.0" type="curve"/>
      <point x="105.0" y="428.0" type="line"/>
      <point x="116.0" y="461.0"/>
      <point x="155.0" y="488.0"/>
      <point x="209.0" y="488.0" type="curve" smooth="yes"/>
      <point x="573.0" y="488.0" type="line" smooth="yes"/>
      <point x="658.0" y="488.0"/>
      <point x="699.0" y="521.0"/>
      <point x="705.0" y="593.0" type="curve"/>
      <point x="651.0" y="593.0" type="line"/>
      <point x="640.0" y="565.0"/>
      <point x="616.0" y="557.0"/>
      <point x="576.0" y="557.0" type="curve" smooth="yes"/>
      <point x="223.0" y="557.0" type="line" smooth="yes"/>
      <point x="156.0" y="557.0"/>
      <point x="109.0" y="541.0"/>
      <point x="83.0" y="501.0" type="curve" smooth="yes"/>
      <point x="72.0" y="484.0"/>
      <point x="63.0" y="458.0"/>
    </contour>
    <contour>
      <point x="459.0" y="122.0" type="line"/>
      <point x="455.0" y="39.0"/>
      <point x="483.0" y="-12.0"/>
      <point x="553.0" y="-12.0" type="curve" smooth="yes"/>
      <point x="633.0" y="-12.0"/>
      <point x="693.0" y="57.0"/>
      <point x="703.0" y="117.0" type="curve"/>
      <point x="662.0" y="134.0" type="line"/>
      <point x="649.0" y="100.0"/>
      <point x="614.0" y="52.0"/>
      <point x="576.0" y="52.0" type="curve" smooth="yes"/>
      <point x="545.0" y="52.0"/>
      <point x="532.0" y="81.0"/>
      <point x="534.0" y="123.0" type="curve" smooth="yes"/>
      <point x="553.0" y="535.0" type="line"/>
      <point x="487.0" y="534.0" type="line"/>
    </contour>
    <contour>
      <point x="97.0" y="34.0" type="curve"/>
      <point x="147.0" y="-12.0" type="line"/>
      <point x="177.0" y="-4.0"/>
      <point x="200.0" y="8.0"/>
      <point x="219.0" y="25.0" type="curve" smooth="yes"/>
      <point x="264.0" y="66.0"/>
      <point x="291.0" y="97.0"/>
      <point x="297.0" y="209.0" type="curve" smooth="yes"/>
      <point x="315.0" y="534.0" type="line"/>
      <point x="248.0" y="534.0" type="line"/>
      <point x="226.0" y="238.0" type="line" smooth="yes"/>
      <point x="220.0" y="159.0"/>
      <point x="215.0" y="108.0"/>
      <point x="157.0" y="64.0" type="curve" smooth="yes"/>
      <point x="131.0" y="45.0"/>
      <point x="106.0" y="36.0"/>
    </contour>
  </outline>
</glyph>
<glyph name="Germandbls" format="2">
  <advance width="714.0"/>
  <unicode hex="1E9E"/>
  <anchor x="357.0" y="0.0" name="bottom"/>
  <anchor x="357.0" y="743.0" name="top"/>
  <outline>
    <contour>
      <point x="51.0" y="0.0" type="line"/>
      <point x="134.0" y="0.0" type="line"/>
      <point x="134.0" y="409.0" type="line" smooth="yes"/>
      <point x="134.0" y="595.0"/>
      <point x="237.0" y="691.0"/>
      <point x="376.0" y="691.0" type="curve" smooth="yes"/>
      <point x="438.0" y="691.0"/>
      <point x="481.0" y="675.0"/>
      <point x="508.0" y="655.0" type="curve"/>
      <point x="362.0" y="424.0" type="line"/>
      <point x="358.0" y="395.0" type="line"/>
      <point x="522.0" y="395.0"/>
      <point x="591.0" y="353.0"/>
      <point x="591.0" y="227.0" type="curve" smooth="yes"/>
      <point x="591.0" y="120.0"/>
      <point x="521.0" y="52.0"/>
      <point x="431.0" y="52.0" type="curve" smooth="yes"/>
      <point x="369.0" y="52.0"/>
      <point x="309.0" y="72.0"/>
      <point x="281.0" y="95.0" type="curve"/>
      <point x="251.0" y="31.0" type="line"/>
      <point x="289.0" y="8.0"/>
      <point x="336.0" y="-11.0"/>
      <point x="441.0" y="-11.0" type="curve" smooth="yes"/>
      <point x="593.0" y="-11.0"/>
      <point x="669.0" y="104.0"/>
      <point x="669.0" y="227.0" type="curve" smooth="yes"/>
      <point x="669.0" y="378.0"/>
      <point x="569.0" y="442.0"/>
      <point x="449.0" y="442.0" type="curve"/>
      <point x="603.0" y="672.0" type="line"/>
      <point x="604.0" y="706.0" type="line"/>
      <point x="554.0" y="706.0"/>
      <point x="507.0" y="751.0"/>
      <point x="375.0" y="751.0" type="curve" smooth="yes"/>
      <point x="156.0" y="751.0"/>
      <point x="51.0" y="605.0"/>
      <point x="51.0" y="368.0" type="curve" smooth="yes"/>
    </contour>
  </outline>
</glyph>
<glyph name="quotereversed" format="2">
  <advance width="243.0"/>
  <unicode hex="201B"/>
  <outline>
    <contour>
      <point x="141.0" y="848.0" type="line"/>
      <point x="83.0" y="828.0"/>
      <point x="47.0" y="758.0"/>
      <point x="47.0" y="680.0" type="curve" smooth="yes"/>
      <point x="47.0" y="573.0"/>
      <point x="111.0" y="497.0"/>
      <point x="152.0" y="470.0" type="curve"/>
      <point x="187.0" y="493.0" type="line"/>
      <point x="187.0" y="505.0" type="line"/>
      <point x="158.0" y="528.0"/>
      <point x="124.0" y="595.0"/>
      <point x="124.0" y="665.0" type="curve" smooth="yes"/>
      <point x="124.0" y="714.0"/>
      <point x="151.0" y="765.0"/>
      <point x="183.0" y="779.0" type="curve"/>
      <point x="183.0" y="801.0" type="line"/>
    </contour>
  </outline>
</glyph>
<glyph name="dagger" format="2">
  <advance width="501.0"/>
  <unicode hex="2020"/>
  <outline>
    <contour>
      <point x="218.0" y="98.0" type="line"/>
      <point x="283.0" y="98.0" type="line"/>
      <point x="287.0" y="561.0" type="line"/>
      <point x="439.0" y="560.0" type="line"/>
      <point x="439.0" y="621.0" type="line"/>
      <point x="287.0" y="620.0" type="line"/>
      <point x="289.0" y="810.0" type="line"/>
      <point x="212.0" y="810.0" type="line"/>
      <point x="214.0" y="620.0" type="line"/>
      <point x="62.0" y="621.0" type="line"/>
      <point x="62.0" y="560.0" type="line"/>
      <point x="214.0" y="561.0" type="line"/>
    </contour>
  </outline>
</glyph>
<glyph name="bullet" format="2">
  <advance width="416.0"/>
  <unicode hex="2022"/>
  <outline>
    <contour>
      <point x="204.0" y="268.0" type="curve" smooth="yes"/>
      <point x="250.0" y="268.0"/>
      <point x="290.0" y="307.0"/>
      <point x="292.0" y="355.0" type="curve" smooth="yes"/>
      <point x="294.0" y="403.0"/>
      <point x="258.0" y="440.0"/>
      <point x="212.0" y="440.0" type="curve" smooth="yes"/>
      <point x="167.0" y="440.0"/>
      <point x="127.0" y="402.0"/>
      <point x="125.0" y="354.0" type="curve" smooth="yes"/>
      <point x="122.0" y="307.0"/>
      <point x="158.0" y="268.0"/>
    </contour>
  </outline>
</glyph>
<glyph name="ellipsis" format="2">
  <advance width="968.0"/>
  <unicode hex="2026"/>
  <outline>
    <contour>
      <point x="158.0" y="-8.0" type="curve" smooth="yes"/>
      <point x="190.0" y="-8.0"/>
      <point x="219.0" y="21.0"/>
      <point x="218.0" y="60.0" type="curve" smooth="yes"/>
      <point x="217.0" y="91.0"/>
      <point x="199.0" y="119.0"/>
      <point x="164.0" y="119.0" type="curve" smooth="yes"/>
      <point x="133.0" y="119.0"/>
      <point x="104.0" y="88.0"/>
      <point x="104.0" y="52.0" type="curve" smooth="yes"/>
      <point x="105.0" y="17.0"/>
      <point x="130.0" y="-8.0"/>
    </contour>
    <contour>
      <point x="481.0" y="-8.0" type="curve" smooth="yes"/>
      <point x="513.0" y="-8.0"/>
      <point x="542.0" y="21.0"/>
      <point x="541.0" y="60.0" type="curve" smooth="yes"/>
      <point x="540.0" y="91.0"/>
      <point x="522.0" y="119.0"/>
      <point x="486.0" y="119.0" type="curve" smooth="yes"/>
      <point x="456.0" y="119.0"/>
      <point x="426.0" y="88.0"/>
      <point x="427.0" y="52.0" type="curve" smooth="yes"/>
      <point x="428.0" y="17.0"/>
      <point x="453.0" y="-8.0"/>
    </contour>
    <contour>
      <point x="804.0" y="-8.0" type="curve" smooth="yes"/>
      <point x="836.0" y="-8.0"/>
      <point x="864.0" y="21.0"/>
      <point x="864.0" y="60.0" type="curve" smooth="yes"/>
      <point x="863.0" y="91.0"/>
      <point x="845.0" y="119.0"/>
      <point x="810.0" y="119.0" type="curve" smooth="yes"/>
      <point x="778.0" y="119.0"/>
      <point x="749.0" y="88.0"/>
      <point x="750.0" y="52.0" type="curve" smooth="yes"/>
      <point x="751.0" y="17.0"/>
      <point x="775.0" y="-8.0"/>
    </contour>
  </outline>
</glyph>
<glyph name="perthousand" format="2">
  <advance width="1351.0"/>
  <unicode hex="2030"/>
  <outline>
    <contour>
      <point x="1126.0" y="27.0" type="curve" smooth="yes"/>
      <point x="1222.0" y="30.0"/>
      <point x="1310.0" y="98.0"/>
      <point x="1310.0" y="225.0" type="curve" smooth="yes"/>
      <point x="1310.0" y="334.0"/>
      <point x="1258.0" y="424.0"/>
      <point x="1141.0" y="420.0" type="curve" smooth="yes"/>
      <point x="1045.0" y="417.0"/>
      <point x="958.0" y="348.0"/>
      <point x="958.0" y="221.0" type="curve" smooth="yes"/>
      <point x="958.0" y="116.0"/>
      <point x="1020.0" y="25.0"/>
    </contour>
    <contour>
      <point x="1131.0" y="82.0" type="curve" smooth="yes"/>
      <point x="1068.0" y="82.0"/>
      <point x="1031.0" y="144.0"/>
      <point x="1031.0" y="224.0" type="curve" smooth="yes"/>
      <point x="1031.0" y="312.0"/>
      <point x="1073.0" y="365.0"/>
      <point x="1136.0" y="366.0" type="curve" smooth="yes"/>
      <point x="1203.0" y="367.0"/>
      <point x="1237.0" y="307.0"/>
      <point x="1237.0" y="223.0" type="curve" smooth="yes"/>
      <point x="1237.0" y="134.0"/>
      <point x="1194.0" y="83.0"/>
    </contour>
    <component base="percent"/>
  </outline>
</glyph>
<glyph name="minute" format="2">
  <advance width="314.0"/>
  <unicode hex="2032"/>
  <outline>
    <contour>
      <point x="96.0" y="581.0" type="line"/>
      <point x="157.0" y="581.0" type="line"/>
      <point x="233.0" y="874.0" type="line"/>
      <point x="148.0" y="874.0" type="line"/>
    </contour>
  </outline>
</glyph>
<glyph name="guilsinglleft" format="2">
  <advance width="588.0"/>
  <unicode hex="2039"/>
  <outline>
    <contour>
      <point x="120.0" y="265.0" type="line"/>
      <point x="438.0" y="52.0" type="line"/>
      <point x="460.0" y="111.0" type="line"/>
      <point x="180.0" y="314.0" type="line"/>
      <point x="180.0" y="286.0" type="line"/>
      <point x="460.0" y="491.0" type="line"/>
      <point x="438.0" y="552.0" type="line"/>
      <point x="120.0" y="333.0" type="line"/>
    </contour>
  </outline>
</glyph>
<glyph name="fraction" format="2">
  <advance width="260.0"/>
  <unicode hex="2044"/>
  <outline>
    <contour>
      <point x="359.0" y="958.0" type="line"/>
      <point x="-130.0" y="-51.0" type="line"/>
      <point x="-61.0" y="-51.0" type="line"/>
      <point x="428.0" y="958.0" type="line"/>
    </contour>
  </outline>
</glyph>
<glyph name="dong" format="2">
  <advance width="649.0"/>
  <unicode hex="20AB"/>
  <outline>
    <contour>
      <point x="280.0" y="142.0" type="curve" smooth="yes"/>
      <point x="368.0" y="142.0"/>
      <point x="410.0" y="176.0"/>
      <point x="432.0" y="196.0" type="curve"/>
      <point x="432.0" y="142.0" type="line"/>
      <point x="499.0" y="142.0" type="line"/>
      <point x="499.0" y="680.0" type="line"/>
      <point x="629.0" y="680.0" type="line"/>
      <point x="629.0" y="743.0" type="line"/>
      <point x="499.0" y="743.0" type="line"/>
      <point x="499.0" y="827.0" type="line"/>
      <point x="418.0" y="827.0" type="line"/>
      <point x="418.0" y="743.0" type="line"/>
      <point x="250.0" y="743.0" type="line"/>
      <point x="250.0" y="680.0" type="line"/>
      <point x="418.0" y="680.0" type="line"/>
      <point x="418.0" y="600.0" type="line"/>
      <point x="397.0" y="604.0"/>
      <point x="365.0" y="609.0"/>
      <point x="324.0" y="609.0" type="curve" smooth="yes"/>
      <point x="168.0" y="609.0"/>
      <point x="77.0" y="517.0"/>
      <point x="77.0" y="359.0" type="curve" smooth="yes"/>
      <point x="77.0" y="211.0"/>
      <point x="172.0" y="142.0"/>
    </contour>
    <contour>
      <point x="285.0" y="209.0" type="curve" smooth="yes"/>
      <point x="229.0" y="209.0"/>
      <point x="164.0" y="251.0"/>
      <point x="164.0" y="361.0" type="curve" smooth="yes"/>
      <point x="164.0" y="464.0"/>
      <point x="200.0" y="542.0"/>
      <point x="323.0" y="542.0" type="curve" smooth="yes"/>
      <point x="390.0" y="542.0"/>
      <point x="411.0" y="529.0"/>
      <point x="418.0" y="522.0" type="curve"/>
      <point x="418.0" y="256.0" type="line"/>
      <point x="407.0" y="246.0"/>
      <point x="388.0" y="209.0"/>
    </contour>
    <contour>
      <point x="55.0" y="0.0" type="line"/>
      <point x="595.0" y="0.0" type="line"/>
      <point x="595.0" y="74.0" type="line"/>
      <point x="55.0" y="74.0" type="line"/>
    </contour>
  </outline>
</glyph>
<glyph name="euro" format="2">
  <advance width="743.0"/>
  <unicode hex="20AC"/>
  <outline>
    <contour>
      <point x="449.0" y="-14.0" type="curve" smooth="yes"/>
      <point x="590.0" y="-14.0"/>
      <point x="626.0" y="23.0"/>
      <point x="669.0" y="30.0" type="curve"/>
      <point x="647.0" y="91.0" type="line"/>
      <point x="610.0" y="71.0"/>
      <point x="546.0" y="46.0"/>
      <point x="459.0" y="46.0" type="curve" smooth="yes"/>
      <point x="293.0" y="46.0"/>
      <point x="241.0" y="186.0"/>
      <point x="241.0" y="375.0" type="curve" smooth="yes"/>
      <point x="241.0" y="589.0"/>
      <point x="345.0" y="689.0"/>
      <point x="473.0" y="689.0" type="curve" smooth="yes"/>
      <point x="554.0" y="688.0"/>
      <point x="597.0" y="675.0"/>
      <point x="635.0" y="655.0" type="curve"/>
      <point x="655.0" y="720.0" type="line"/>
      <point x="615.0" y="730.0"/>
      <point x="574.0" y="754.0"/>
      <point x="475.0" y="751.0" type="curve" smooth="yes"/>
      <point x="277.0" y="746.0"/>
      <point x="152.0" y="598.0"/>
      <point x="152.0" y="352.0" type="curve" smooth="yes"/>
      <point x="152.0" y="135.0"/>
      <point x="251.0" y="-14.0"/>
    </contour>
    <contour>
      <point x="73.0" y="439.0" type="line"/>
      <point x="540.0" y="439.0" type="line"/>
      <point x="540.0" y="492.0" type="line"/>
      <point x="73.0" y="492.0" type="line"/>
    </contour>
    <contour>
      <point x="58.0" y="257.0" type="line"/>
      <point x="523.0" y="257.0" type="line"/>
      <point x="523.0" y="311.0" type="line"/>
      <point x="58.0" y="311.0" type="line"/>
    </contour>
  </outline>
</glyph>
<glyph name="tugrik" format="2">
  <advance width="625.0"/>
  <unicode hex="20AE"/>
  <anchor x="313.0" y="0.0" name="bottom"/>
  <anchor x="311.0" y="-83.0" name="btm"/>
  <anchor x="313.0" y="372.0" name="center"/>
  <anchor x="309.0" y="830.0" name="top"/>
  <outline>
    <contour>
      <point x="98.0" y="341.0" type="line"/>
      <point x="529.0" y="481.0" type="line"/>
      <point x="531.0" y="543.0" type="line"/>
      <point x="100.0" y="402.0" type="line"/>
    </contour>
    <contour>
      <point x="94.0" y="123.0" type="line"/>
      <point x="525.0" y="263.0" type="line"/>
      <point x="527.0" y="325.0" type="line"/>
      <point x="96.0" y="185.0" type="line"/>
    </contour>
    <component base="T"/>
  </outline>
</glyph>
<glyph name="guarani" format="2">
  <advance width="726.0"/>
  <unicode hex="20B2"/>
  <outline>
    <contour>
      <point x="54.0" y="366.0" type="curve" smooth="yes"/>
      <point x="54.0" y="167.0"/>
      <point x="162.0" y="16.0"/>
      <point x="348.0" y="-5.0" type="curve"/>
      <point x="347.0" y="-126.0" type="line"/>
      <point x="424.0" y="-126.0" type="line"/>
      <point x="425.0" y="-7.0" type="line"/>
      <point x="552.0" y="0.0"/>
      <point x="606.0" y="42.0"/>
      <point x="645.0" y="44.0" type="curve"/>
      <point x="645.0" y="366.0" type="line"/>
      <point x="411.0" y="366.0" type="line"/>
      <point x="411.0" y="307.0" type="line"/>
      <point x="565.0" y="301.0" type="line"/>
      <point x="565.0" y="88.0" type="line"/>
      <point x="537.0" y="74.0"/>
      <point x="470.0" y="56.0"/>
      <point x="391.0" y="56.0" type="curve" smooth="yes"/>
      <point x="229.0" y="56.0"/>
      <point x="140.0" y="190.0"/>
      <point x="140.0" y="376.0" type="curve" smooth="yes"/>
      <point x="140.0" y="579.0"/>
      <point x="254.0" y="686.0"/>
      <point x="393.0" y="686.0" type="curve" smooth="yes"/>
      <point x="497.0" y="686.0"/>
      <point x="559.0" y="667.0"/>
      <point x="600.0" y="647.0" type="curve"/>
      <point x="603.0" y="721.0" type="line"/>
      <point x="552.0" y="731.0"/>
      <point x="514.0" y="746.0"/>
      <point x="433.0" y="750.0" type="curve"/>
      <point x="433.0" y="860.0" type="line"/>
      <point x="355.0" y="860.0" type="line"/>
      <point x="355.0" y="749.0" type="line"/>
      <point x="184.0" y="730.0"/>
      <point x="54.0" y="601.0"/>
    </contour>
  </outline>
</glyph>
<glyph name="hryvnia" format="2">
  <advance width="563.0"/>
  <unicode hex="20B4"/>
  <anchor x="284.0" y="-83.0" name="btm"/>
  <anchor x="302.0" y="830.0" name="top"/>
  <outline>
    <contour>
      <point x="0.0" y="301.0" type="line"/>
      <point x="0.0" y="230.0" type="line"/>
      <point x="70.0" y="230.0" type="line"/>
      <point x="67.0" y="217.0"/>
      <point x="65.0" y="203.0"/>
      <point x="65.0" y="188.0" type="curve" smooth="yes"/>
      <point x="65.0" y="57.0"/>
      <point x="165.0" y="-8.0"/>
      <point x="286.0" y="-8.0" type="curve" smooth="yes"/>
      <point x="383.0" y="-8.0"/>
      <point x="470.0" y="18.0"/>
      <point x="497.0" y="36.0" type="curve"/>
      <point x="477.0" y="104.0" type="line"/>
      <point x="437.0" y="80.0"/>
      <point x="361.0" y="58.0"/>
      <point x="291.0" y="58.0" type="curve" smooth="yes"/>
      <point x="211.0" y="58.0"/>
      <point x="146.0" y="97.0"/>
      <point x="146.0" y="179.0" type="curve" smooth="yes"/>
      <point x="146.0" y="198.0"/>
      <point x="150.0" y="215.0"/>
      <point x="157.0" y="230.0" type="curve"/>
      <point x="563.0" y="230.0" type="line"/>
      <point x="563.0" y="301.0" type="line"/>
    </contour>
    <contour>
      <point x="563.0" y="442.0" type="line"/>
      <point x="563.0" y="512.0" type="line"/>
      <point x="486.0" y="512.0" type="line"/>
      <point x="492.0" y="529.0"/>
      <point x="495.0" y="547.0"/>
      <point x="495.0" y="567.0" type="curve" smooth="yes"/>
      <point x="495.0" y="704.0"/>
      <point x="368.0" y="751.0"/>
      <point x="255.0" y="751.0" type="curve" smooth="yes"/>
      <point x="161.0" y="751.0"/>
      <point x="105.0" y="729.0"/>
      <point x="79.0" y="711.0" type="curve"/>
      <point x="96.0" y="646.0" type="line"/>
      <point x="132.0" y="669.0"/>
      <point x="179.0" y="686.0"/>
      <point x="255.0" y="686.0" type="curve" smooth="yes"/>
      <point x="334.0" y="686.0"/>
      <point x="416.0" y="652.0"/>
      <point x="416.0" y="578.0" type="curve" smooth="yes"/>
      <point x="416.0" y="552.0"/>
      <point x="410.0" y="531.0"/>
      <point x="399.0" y="512.0" type="curve"/>
      <point x="1.0" y="512.0" type="line"/>
      <point x="1.0" y="442.0" type="line"/>
    </contour>
  </outline>
</glyph>
<glyph name="cedi" format="2">
  <advance width="676.0"/>
  <unicode hex="20B5"/>
  <outline>
    <contour>
      <point x="292.0" y="-173.0" type="line"/>
      <point x="348.0" y="-173.0" type="line"/>
      <point x="362.0" y="-7.0" type="line"/>
      <point x="372.0" y="-7.0"/>
      <point x="379.0" y="-8.0"/>
      <point x="388.0" y="-8.0" type="curve" smooth="yes"/>
      <point x="494.0" y="-8.0"/>
      <point x="541.0" y="17.0"/>
      <point x="585.0" y="31.0" type="curve"/>
      <point x="584.0" y="102.0" type="line"/>
      <point x="558.0" y="84.0"/>
      <point x="484.0" y="58.0"/>
      <point x="392.0" y="58.0" type="curve" smooth="yes"/>
      <point x="384.0" y="58.0"/>
      <point x="376.0" y="57.0"/>
      <point x="368.0" y="59.0" type="curve"/>
      <point x="424.0" y="683.0" type="line"/>
      <point x="516.0" y="679.0"/>
      <point x="554.0" y="656.0"/>
      <point x="574.0" y="649.0" type="curve"/>
      <point x="586.0" y="723.0" type="line"/>
      <point x="559.0" y="729.0"/>
      <point x="516.0" y="746.0"/>
      <point x="430.0" y="750.0" type="curve"/>
      <point x="442.0" y="886.0" type="line"/>
      <point x="387.0" y="886.0" type="line"/>
      <point x="375.0" y="750.0" type="line"/>
      <point x="197.0" y="743.0"/>
      <point x="52.0" y="606.0"/>
      <point x="52.0" y="368.0" type="curve" smooth="yes"/>
      <point x="52.0" y="174.0"/>
      <point x="150.0" y="36.0"/>
      <point x="308.0" y="0.0" type="curve"/>
    </contour>
    <contour>
      <point x="313.0" y="69.0" type="line"/>
      <point x="199.0" y="105.0"/>
      <point x="134.0" y="224.0"/>
      <point x="134.0" y="374.0" type="curve" smooth="yes"/>
      <point x="134.0" y="560.0"/>
      <point x="229.0" y="669.0"/>
      <point x="368.0" y="682.0" type="curve"/>
    </contour>
  </outline>
</glyph>
<glyph name="bitcoin" format="2">
  <advance width="659.0"/>
  <unicode hex="20BF"/>
  <anchor x="330.0" y="0.0" name="bottom"/>
  <anchor x="348.0" y="-83.0" name="btm"/>
  <anchor x="316.0" y="830.0" name="top"/>
  <outline>
    <contour>
      <point x="210.0" y="713.0" type="line"/>
      <point x="266.0" y="713.0" type="line"/>
      <point x="269.0" y="852.0" type="line"/>
      <point x="213.0" y="852.0" type="line"/>
    </contour>
    <contour>
      <point x="354.0" y="713.0" type="line"/>
      <point x="410.0" y="713.0" type="line"/>
      <point x="413.0" y="852.0" type="line"/>
      <point x="357.0" y="852.0" type="line"/>
    </contour>
    <contour>
      <point x="188.0" y="-92.0" type="line"/>
      <point x="244.0" y="-92.0" type="line"/>
      <point x="247.0" y="47.0" type="line"/>
      <point x="191.0" y="47.0" type="line"/>
    </contour>
    <contour>
      <point x="332.0" y="-92.0" type="line"/>
      <point x="388.0" y="-92.0" type="line"/>
      <point x="391.0" y="47.0" type="line"/>
      <point x="335.0" y="47.0" type="line"/>
    </contour>
    <component base="B"/>
  </outline>
</glyph>
<glyph name="numero" format="2">
  <advance width="1254.0"/>
  <unicode hex="2116"/>
  <outline>
    <contour>
      <point x="101.0" y="0.0" type="line"/>
      <point x="176.0" y="0.0" type="line"/>
      <point x="176.0" y="506.0" type="line"/>
      <point x="168.0" y="695.0" type="line"/>
      <point x="136.0" y="693.0" type="line"/>
      <point x="245.0" y="487.0" type="line"/>
      <point x="545.0" y="0.0" type="line"/>
      <point x="617.0" y="0.0" type="line"/>
      <point x="617.0" y="743.0" type="line"/>
      <point x="542.0" y="743.0" type="line"/>
      <point x="542.0" y="225.0" type="line"/>
      <point x="548.0" y="38.0" type="line"/>
      <point x="584.0" y="38.0" type="line"/>
      <point x="483.0" y="240.0" type="line"/>
      <point x="173.0" y="743.0" type="line"/>
      <point x="101.0" y="743.0" type="line"/>
    </contour>
    <contour>
      <point x="974.0" y="217.0" type="curve" smooth="yes"/>
      <point x="1105.0" y="217.0"/>
      <point x="1203.0" y="312.0"/>
      <point x="1205.0" y="476.0" type="curve" smooth="yes"/>
      <point x="1206.0" y="623.0"/>
      <point x="1140.0" y="748.0"/>
      <point x="981.0" y="748.0" type="curve" smooth="yes"/>
      <point x="851.0" y="748.0"/>
      <point x="750.0" y="657.0"/>
      <point x="748.0" y="492.0" type="curve" smooth="yes"/>
      <point x="747.0" y="346.0"/>
      <point x="808.0" y="217.0"/>
    </contour>
    <contour>
      <point x="976.0" y="275.0" type="curve" smooth="yes"/>
      <point x="875.0" y="276.0"/>
      <point x="828.0" y="372.0"/>
      <point x="829.0" y="491.0" type="curve" smooth="yes"/>
      <point x="829.0" y="619.0"/>
      <point x="887.0" y="690.0"/>
      <point x="979.0" y="689.0" type="curve" smooth="yes"/>
      <point x="1078.0" y="688.0"/>
      <point x="1125.0" y="598.0"/>
      <point x="1125.0" y="479.0" type="curve" smooth="yes"/>
      <point x="1124.0" y="350.0"/>
      <point x="1069.0" y="273.0"/>
    </contour>
    <contour>
      <point x="779.0" y="42.0" type="line"/>
      <point x="1178.0" y="42.0" type="line"/>
      <point x="1178.0" y="104.0" type="line"/>
      <point x="779.0" y="104.0" type="line"/>
    </contour>
  </outline>
</glyph>
<glyph name="upArrow" format="2">
  <advance width="746.0"/>
  <unicode hex="2191"/>
  <outline>
    <contour>
      <point x="406.0" y="539.0" type="line"/>
      <point x="401.0" y="589.0" type="line"/>
      <point x="615.0" y="374.0" type="line"/>
      <point x="661.0" y="418.0" type="line"/>
      <point x="373.0" y="707.0" type="line"/>
      <point x="85.0" y="418.0" type="line"/>
      <point x="131.0" y="374.0" type="line"/>
      <point x="346.0" y="589.0" type="line"/>
      <point x="340.0" y="539.0" type="line"/>
      <point x="340.0" y="70.0" type="line"/>
      <point x="406.0" y="70.0" type="line"/>
    </contour>
  </outline>
</glyph>
<glyph name="rightArrow" format="2">
  <advance width="747.0"/>
  <unicode hex="2192"/>
  <outline>
    <contour>
      <point x="404.0" y="86.0" type="line"/>
      <point x="692.0" y="374.0" type="line"/>
      <point x="404.0" y="662.0" type="line"/>
      <point x="359.0" y="616.0" type="line"/>
      <point x="575.0" y="402.0" type="line"/>
      <point x="524.0" y="407.0" type="line"/>
      <point x="55.0" y="407.0" type="line"/>
      <point x="56.0" y="341.0" type="line"/>
      <point x="524.0" y="341.0" type="line"/>
      <point x="575.0" y="347.0" type="line"/>
      <point x="359.0" y="132.0" type="line"/>
    </contour>
  </outline>
</glyph>
<glyph name="partialdiff" format="2">
  <advance width="667.0"/>
  <unicode hex="2202"/>
  <outline>
    <contour>
      <point x="322.0" y="-14.0" type="curve" smooth="yes"/>
      <point x="539.0" y="-14.0"/>
      <point x="600.0" y="204.0"/>
      <point x="596.0" y="420.0" type="curve" smooth="yes"/>
      <point x="592.0" y="620.0"/>
      <point x="510.0" y="822.0"/>
      <point x="271.0" y="822.0" type="curve" smooth="yes"/>
      <point x="212.0" y="822.0"/>
      <point x="136.0" y="806.0"/>
      <point x="90.0" y="772.0" type="curve"/>
      <point x="118.0" y="726.0" type="line"/>
      <point x="146.0" y="745.0"/>
      <point x="202.0" y="761.0"/>
      <point x="256.0" y="761.0" type="curve" smooth="yes"/>
      <point x="446.0" y="761.0"/>
      <point x="510.0" y="619.0"/>
      <point x="518.0" y="455.0" type="curve" smooth="yes"/>
      <point x="519.0" y="438.0"/>
      <point x="519.0" y="418.0"/>
      <point x="519.0" y="398.0" type="curve" smooth="yes"/>
      <point x="519.0" y="265.0"/>
      <point x="496.0" y="47.0"/>
      <point x="329.0" y="46.0" type="curve" smooth="yes"/>
      <point x="219.0" y="45.0"/>
      <point x="165.0" y="118.0"/>
      <point x="159.0" y="226.0" type="curve" smooth="yes"/>
      <point x="150.0" y="378.0"/>
      <point x="265.0" y="452.0"/>
      <point x="368.0" y="452.0" type="curve" smooth="yes"/>
      <point x="439.0" y="452.0"/>
      <point x="498.0" y="442.0"/>
      <point x="554.0" y="400.0" type="curve"/>
      <point x="543.0" y="474.0" type="line"/>
      <point x="488.0" y="500.0"/>
      <point x="435.0" y="509.0"/>
      <point x="374.0" y="509.0" type="curve" smooth="yes"/>
      <point x="207.0" y="509.0"/>
      <point x="69.0" y="399.0"/>
      <point x="80.0" y="213.0" type="curve" smooth="yes"/>
      <point x="88.0" y="75.0"/>
      <point x="188.0" y="-14.0"/>
    </contour>
  </outline>
</glyph>
<glyph name="increment" format="2">
  <advance width="770.0"/>
  <unicode hex="2206"/>
  <outline>
    <contour>
      <point x="33.0" y="0.0" type="line"/>
      <point x="735.0" y="0.0" type="line"/>
      <point x="743.0" y="12.0" type="line"/>
      <point x="377.0" y="736.0" type="line"/>
      <point x="363.0" y="736.0" type="line"/>
      <point x="27.0" y="10.0" type="line"/>
    </contour>
    <contour>
      <point x="132.0" y="65.0" type="line"/>
      <point x="373.0" y="595.0" type="line"/>
      <point x="632.0" y="65.0" type="line"/>
    </contour>
  </outline>
</glyph>
<glyph name="product" format="2">
  <advance width="795.0"/>
  <unicode hex="220F"/>
  <outline>
    <contour>
      <point x="249.0" y="-83.0" type="line"/>
      <point x="249.0" y="687.0" type="line"/>
      <point x="244.0" y="681.0" type="line"/>
      <point x="552.0" y="681.0" type="line"/>
      <point x="547.0" y="687.0" type="line"/>
      <point x="547.0" y="-83.0" type="line"/>
      <point x="630.0" y="-83.0" type="line"/>
      <point x="630.0" y="687.0" type="line"/>
      <point x="625.0" y="682.0" type="line"/>
      <point x="732.0" y="682.0" type="line"/>
      <point x="732.0" y="743.0" type="line"/>
      <point x="63.0" y="743.0" type="line"/>
      <point x="63.0" y="682.0" type="line"/>
      <point x="170.0" y="682.0" type="line"/>
      <point x="166.0" y="689.0" type="line"/>
      <point x="166.0" y="-83.0" type="line"/>
    </contour>
  </outline>
</glyph>
<glyph name="summation" format="2">
  <advance width="736.0"/>
  <unicode hex="2211"/>
  <outline>
    <contour>
      <point x="107.0" y="-83.0" type="line"/>
      <point x="622.0" y="-83.0" type="line"/>
      <point x="622.0" y="-25.0" type="line"/>
      <point x="163.0" y="-25.0" type="line"/>
      <point x="190.0" y="-55.0" type="line"/>
      <point x="463.0" y="334.0" type="line"/>
      <point x="180.0" y="716.0" type="line"/>
      <point x="142.0" y="682.0" type="line"/>
      <point x="616.0" y="682.0" type="line"/>
      <point x="616.0" y="743.0" type="line"/>
      <point x="109.0" y="743.0" type="line"/>
      <point x="98.0" y="712.0" type="line"/>
      <point x="377.0" y="332.0" type="line"/>
      <point x="98.0" y="-63.0" type="line"/>
    </contour>
  </outline>
</glyph>
<glyph name="minus" format="2">
  <advance width="659.0"/>
  <unicode hex="2212"/>
  <outline>
    <contour>
      <point x="121.0" y="344.0" type="line"/>
      <point x="539.0" y="344.0" type="line"/>
      <point x="539.0" y="410.0" type="line"/>
      <point x="121.0" y="410.0" type="line"/>
    </contour>
  </outline>
</glyph>
<glyph name="bulletoperator" format="2">
  <advance width="320.0"/>
  <unicode hex="2219"/>
  <outline>
    <contour>
      <point x="156.0" y="279.0" type="curve" smooth="yes"/>
      <point x="196.0" y="279.0"/>
      <point x="232.0" y="313.0"/>
      <point x="230.0" y="359.0" type="curve" smooth="yes"/>
      <point x="229.0" y="397.0"/>
      <point x="207.0" y="430.0"/>
      <point x="163.0" y="430.0" type="curve" smooth="yes"/>
      <point x="125.0" y="430.0"/>
      <point x="88.0" y="394.0"/>
      <point x="89.0" y="350.0" type="curve" smooth="yes"/>
      <point x="90.0" y="309.0"/>
      <point x="121.0" y="279.0"/>
    </contour>
  </outline>
</glyph>
<glyph name="radical" format="2">
  <advance width="782.0"/>
  <unicode hex="221A"/>
  <outline>
    <contour>
      <point x="352.0" y="-173.0" type="line"/>
      <point x="418.0" y="-173.0" type="line"/>
      <point x="767.0" y="913.0" type="line"/>
      <point x="687.0" y="913.0" type="line"/>
      <point x="372.0" y="-99.0" type="line"/>
      <point x="396.0" y="-99.0" type="line"/>
      <point x="210.0" y="349.0" type="line"/>
      <point x="139.0" y="349.0" type="line"/>
      <point x="47.0" y="292.0" type="line"/>
      <point x="83.0" y="233.0" type="line"/>
      <point x="153.0" y="276.0" type="line"/>
    </contour>
  </outline>
</glyph>
<glyph name="lessequal" format="2">
  <advance width="668.0"/>
  <unicode hex="2264"/>
  <outline>
    <contour>
      <point x="84.0" y="0.0" type="line"/>
      <point x="556.0" y="0.0" type="line"/>
      <point x="556.0" y="61.0" type="line"/>
      <point x="84.0" y="61.0" type="line"/>
    </contour>
    <contour>
      <point x="556.0" y="128.0" type="line"/>
      <point x="556.0" y="204.0" type="line"/>
      <point x="161.0" y="380.0" type="line"/>
      <point x="161.0" y="375.0" type="line"/>
      <point x="556.0" y="551.0" type="line"/>
      <point x="556.0" y="626.0" type="line"/>
      <point x="84.0" y="407.0" type="line"/>
      <point x="84.0" y="347.0" type="line"/>
    </contour>
  </outline>
</glyph>
<glyph name="whiteSquare" format="2">
  <advance width="562.0"/>
  <unicode hex="25A1"/>
  <outline>
    <contour>
      <point x="495.0" y="490.0" type="line"/>
      <point x="67.0" y="490.0" type="line"/>
      <point x="67.0" y="62.0" type="line"/>
      <point x="495.0" y="62.0" type="line"/>
    </contour>
    <contour>
      <point x="120.0" y="115.0" type="line"/>
      <point x="120.0" y="437.0" type="line"/>
      <point x="442.0" y="437.0" type="line"/>
      <point x="442.0" y="115.0" type="line"/>
    </contour>
  </outline>
</glyph>
<glyph name="lozenge" format="2">
  <advance width="607.0"/>
  <unicode hex="25CA"/>
  <outline>
    <contour>
      <point x="41.0" y="378.0" type="line"/>
      <point x="41.0" y="372.0" type="line"/>
      <point x="302.0" y="0.0" type="line"/>
      <point x="305.0" y="0.0" type="line"/>
      <point x="566.0" y="372.0" type="line"/>
      <point x="566.0" y="378.0" type="line"/>
      <point x="305.0" y="740.0" type="line"/>
      <point x="303.0" y="740.0" type="line"/>
    </contour>
    <contour>
      <point x="303.0" y="633.0" type="line"/>
      <point x="304.0" y="633.0" type="line"/>
      <point x="485.0" y="377.0" type="line"/>
      <point x="485.0" y="375.0" type="line"/>
      <point x="304.0" y="109.0" type="line"/>
      <point x="303.0" y="109.0" type="line"/>
      <point x="122.0" y="374.0" type="line"/>
      <point x="122.0" y="377.0" type="line"/>
    </contour>
  </outline>
</glyph>
<glyph name="leftanglebracket-math" format="2">
  <advance width="406.0"/>
  <unicode hex="27E8"/>
  <outline>
    <contour>
      <point x="301.0" y="901.0" type="line"/>
      <point x="40.0" y="314.0" type="line"/>
      <point x="307.0" y="-257.0" type="line"/>
      <point x="366.0" y="-257.0" type="line"/>
      <point x="107.0" y="312.0" type="line"/>
      <point x="366.0" y="901.0" type="line"/>
    </contour>
  </outline>
</glyph>
<glyph name=".notdef" format="2">
  <advance width="914.0"/>
  <outline>
    <contour>
      <point x="111.0" y="0.0" type="line"/>
      <point x="803.0" y="0.0" type="line"/>
      <point x="803.0" y="691.0" type="line"/>
      <point x="111.0" y="691.0" type="line"/>
    </contour>
    <contour>
      <point x="286.0" y="107.0" type="line"/>
      <point x="224.0" y="177.0" type="line"/>
      <point x="398.0" y="344.0" type="line"/>
      <point x="223.0" y="521.0" type="line"/>
      <point x="283.0" y="583.0" type="line"/>
      <point x="458.0" y="403.0" type="line"/>
      <point x="629.0" y="582.0" type="line"/>
      <point x="692.0" y="521.0" type="line"/>
      <point x="515.0" y="346.0" type="line"/>
      <point x="692.0" y="167.0" type="line"/>
      <point x="632.0" y="107.0" type="line"/>
      <point x="456.0" y="287.0" type="line"/>
    </contour>
  </outline>
</glyph>
<glyph name="acutecomb.case" format="2">
  <anchor x="0.0" y="830.0" name="_top"/>
  <anchor x="0.0" y="1018.0" name="top"/>
  <outline>
    <contour>
      <point x="-24.0" y="803.0" type="line"/>
      <point x="36.0" y="833.0"/>
      <point x="113.0" y="890.0"/>
      <point x="164.0" y="942.0" type="curve"/>
      <point x="110.0" y="991.0" type="line"/>
      <point x="90.0" y="969.0"/>
      <point x="-38.0" y="855.0"/>
      <point x="-60.0" y="838.0" type="curve"/>
    </contour>
  </outline>
</glyph>
<glyph name="ae.sc" format="2">
  <advance width="872.0"/>
  <anchor x="436.0" y="0.0" name="bottom"/>
  <anchor x="651.0" y="-72.0" name="btm"/>
  <anchor x="455.0" y="913.0" name="top"/>
  <outline>
    <contour>
      <point x="-25.0" y="0.0" type="line"/>
      <point x="68.0" y="0.0" type="line"/>
      <point x="389.0" y="605.0" type="line"/>
      <point x="317.0" y="646.0" type="line"/>
    </contour>
    <contour>
      <point x="396.0" y="646.0" type="line"/>
      <point x="317.0" y="646.0" type="line"/>
      <point x="328.0" y="591.0" type="line"/>
      <point x="428.0" y="591.0" type="line"/>
    </contour>
    <contour>
      <point x="113.0" y="170.0" type="line"/>
      <point x="461.0" y="170.0" type="line"/>
      <point x="446.0" y="233.0" type="line"/>
      <point x="129.0" y="233.0" type="line"/>
    </contour>
    <contour>
      <point x="396.0" y="0.0" type="line"/>
      <point x="839.0" y="0.0" type="line"/>
      <point x="839.0" y="66.0" type="line"/>
      <point x="479.0" y="66.0" type="line"/>
      <point x="479.0" y="301.0" type="line"/>
      <point x="722.0" y="301.0" type="line"/>
      <point x="722.0" y="366.0" type="line"/>
      <point x="479.0" y="366.0" type="line"/>
      <point x="479.0" y="581.0" type="line"/>
      <point x="804.0" y="581.0" type="line"/>
      <point x="804.0" y="646.0" type="line"/>
      <point x="396.0" y="646.0" type="line"/>
    </contour>
  </outline>
</glyph>
<glyph name="breve.case" format="2">
  <advance width="377.0"/>
  <anchor x="189.0" y="830.0" name="_top"/>
  <outline>
    <contour>
      <point x="189.0" y="802.0" type="curve" smooth="yes"/>
      <point x="292.0" y="802.0"/>
      <point x="359.0" y="876.0"/>
      <point x="354.0" y="960.0" type="curve"/>
      <point x="298.0" y="960.0" type="line"/>
      <point x="297.0" y="938.0"/>
      <point x="282.0" y="866.0"/>
      <point x="189.0" y="866.0" type="curve" smooth="yes"/>
      <point x="94.0" y="866.0"/>
      <point x="82.0" y="936.0"/>
      <point x="81.0" y="960.0" type="curve"/>
      <point x="24.0" y="960.0" type="line"/>
      <point x="18.0" y="876.0"/>
      <point x="80.0" y="802.0"/>
    </contour>
  </outline>
</glyph>
<glyph name="brevecomb.case" format="2">
  <anchor x="0.0" y="830.0" name="_top"/>
  <anchor x="0.0" y="983.0" name="top"/>
  <outline>
    <contour>
      <point x="0.0" y="815.0" type="curve" smooth="yes"/>
      <point x="103.0" y="815.0"/>
      <point x="161.0" y="886.0"/>
      <point x="155.0" y="968.0" type="curve"/>
      <point x="99.0" y="968.0" type="line"/>
      <point x="99.0" y="944.0"/>
      <point x="94.0" y="878.0"/>
      <point x="0.0" y="878.0" type="curve" smooth="yes"/>
      <point x="-95.0" y="878.0"/>
      <point x="-97.0" y="943.0"/>
      <point x="-97.0" y="968.0" type="curve"/>
      <point x="-155.0" y="968.0" type="line"/>
      <point x="-161.0" y="886.0"/>
      <point x="-108.0" y="815.0"/>
    </contour>
  </outline>
</glyph>
<glyph name="brevecomb_acutecomb.case" format="2">
  <anchor x="0.0" y="830.0" name="_top"/>
  <anchor x="0.0" y="1157.0" name="top"/>
  <outline>
    <contour>
      <point x="0.0" y="802.0" type="curve" smooth="yes"/>
      <point x="103.0" y="802.0"/>
      <point x="170.0" y="876.0"/>
      <point x="165.0" y="960.0" type="curve"/>
      <point x="109.0" y="960.0" type="line"/>
      <point x="108.0" y="938.0"/>
      <point x="93.0" y="866.0"/>
      <point x="0.0" y="866.0" type="curve" smooth="yes"/>
      <point x="-95.0" y="866.0"/>
      <point x="-107.0" y="936.0"/>
      <point x="-108.0" y="960.0" type="curve"/>
      <point x="-165.0" y="960.0" type="line"/>
      <point x="-171.0" y="876.0"/>
      <point x="-109.0" y="802.0"/>
    </contour>
    <contour>
      <point x="-32.0" y="969.0" type="line"/>
      <point x="28.0" y="999.0"/>
      <point x="105.0" y="1056.0"/>
      <point x="156.0" y="1108.0" type="curve"/>
      <point x="102.0" y="1157.0" type="line"/>
      <point x="82.0" y="1135.0"/>
      <point x="-46.0" y="1021.0"/>
      <point x="-68.0" y="1004.0" type="curve"/>
    </contour>
  </outline>
</glyph>
<glyph name="brevecomb_gravecomb" format="2">
  <anchor x="0.0" y="830.0" name="_top"/>
  <anchor x="0.0" y="983.0" name="top"/>
  <outline>
    <contour>
      <point x="0.0" y="652.0" type="curve" smooth="yes"/>
      <point x="103.0" y="652.0"/>
      <point x="161.0" y="723.0"/>
      <point x="155.0" y="810.0" type="curve"/>
      <point x="99.0" y="810.0" type="line"/>
      <point x="99.0" y="786.0"/>
      <point x="94.0" y="715.0"/>
      <point x="0.0" y="715.0" type="curve" smooth="yes"/>
      <point x="-95.0" y="715.0"/>
      <point x="-97.0" y="785.0"/>
      <point x="-97.0" y="810.0" type="curve"/>
      <point x="-155.0" y="810.0" type="line"/>
      <point x="-161.0" y="723.0"/>
      <point x="-108.0" y="652.0"/>
    </contour>
    <contour>
      <point x="10.0" y="824.0" type="curve"/>
      <point x="46.0" y="856.0" type="line"/>
      <point x="-13.0" y="920.0"/>
      <point x="-18.0" y="925.0"/>
      <point x="-68.0" y="995.0" type="curve"/>
      <point x="-123.0" y="949.0" type="line"/>
      <point x="-89.0" y="900.0"/>
      <point x="-33.0" y="852.0"/>
    </contour>
  </outline>
</glyph>
<glyph name="brevecomb_hookabovecomb" format="2">
  <anchor x="0.0" y="830.0" name="_top"/>
  <anchor x="0.0" y="1025.0" name="top"/>
  <outline>
    <contour>
      <point x="0.0" y="652.0" type="curve" smooth="yes"/>
      <point x="103.0" y="652.0"/>
      <point x="161.0" y="723.0"/>
      <point x="155.0" y="810.0" type="curve"/>
      <point x="99.0" y="810.0" type="line"/>
      <point x="99.0" y="786.0"/>
      <point x="94.0" y="715.0"/>
      <point x="0.0" y="715.0" type="curve" smooth="yes"/>
      <point x="-95.0" y="715.0"/>
      <point x="-97.0" y="785.0"/>
      <point x="-97.0" y="810.0" type="curve"/>
      <point x="-155.0" y="810.0" type="line"/>
      <point x="-161.0" y="723.0"/>
      <point x="-108.0" y="652.0"/>
    </contour>
    <contour>
      <point x="-17.0" y="809.0" type="curve"/>
      <point x="33.0" y="809.0" type="line"/>
      <point x="25.0" y="831.0"/>
      <point x="33.0" y="850.0"/>
      <point x="41.0" y="856.0" type="curve" smooth="yes"/>
      <point x="68.0" y="876.0"/>
      <point x="96.0" y="892.0"/>
      <point x="96.0" y="942.0" type="curve" smooth="yes"/>
      <point x="96.0" y="993.0"/>
      <point x="55.0" y="1025.0"/>
      <point x="-7.0" y="1025.0" type="curve" smooth="yes"/>
      <point x="-30.0" y="1025.0"/>
      <point x="-56.0" y="1019.0"/>
      <point x="-73.0" y="1012.0" type="curve"/>
      <point x="-69.0" y="960.0" type="line"/>
      <point x="-59.0" y="966.0"/>
      <point x="-43.0" y="969.0"/>
      <point x="-27.0" y="969.0" type="curve" smooth="yes"/>
      <point x="11.0" y="969.0"/>
      <point x="29.0" y="956.0"/>
      <point x="29.0" y="929.0" type="curve" smooth="yes"/>
      <point x="29.0" y="898.0"/>
      <point x="-29.0" y="890.0"/>
      <point x="-29.0" y="847.0" type="curve" smooth="yes"/>
      <point x="-29.0" y="831.0"/>
      <point x="-23.0" y="821.0"/>
    </contour>
  </outline>
</glyph>
<glyph name="brevecomb_tildecomb.case" format="2">
  <anchor x="0.0" y="830.0" name="_top"/>
  <anchor x="12.0" y="1218.0" name="top"/>
  <outline>
    <contour>
      <point x="0.0" y="812.0" type="curve" smooth="yes"/>
      <point x="99.0" y="812.0"/>
      <point x="153.0" y="875.0"/>
      <point x="148.0" y="957.0" type="curve"/>
      <point x="95.0" y="957.0" type="line"/>
      <point x="94.0" y="935.0"/>
      <point x="89.0" y="875.0"/>
      <point x="0.0" y="875.0" type="curve" smooth="yes"/>
      <point x="-91.0" y="875.0"/>
      <point x="-93.0" y="933.0"/>
      <point x="-94.0" y="957.0" type="curve"/>
      <point x="-148.0" y="957.0" type="line"/>
      <point x="-154.0" y="875.0"/>
      <point x="-105.0" y="812.0"/>
    </contour>
    <contour>
      <point x="59.0" y="1027.0" type="curve" smooth="yes"/>
      <point x="116.0" y="1027.0"/>
      <point x="142.0" y="1073.0"/>
      <point x="155.0" y="1123.0" type="curve"/>
      <point x="117.0" y="1142.0" type="line"/>
      <point x="114.0" y="1125.0"/>
      <point x="98.0" y="1083.0"/>
      <point x="63.0" y="1083.0" type="curve" smooth="yes"/>
      <point x="22.0" y="1083.0"/>
      <point x="20.0" y="1148.0"/>
      <point x="-49.0" y="1148.0" type="curve" smooth="yes"/>
      <point x="-109.0" y="1148.0"/>
      <point x="-137.0" y="1097.0"/>
      <point x="-146.0" y="1054.0" type="curve"/>
      <point x="-111.0" y="1033.0" type="line"/>
      <point x="-103.0" y="1051.0"/>
      <point x="-91.0" y="1092.0"/>
      <point x="-51.0" y="1092.0" type="curve" smooth="yes"/>
      <point x="-8.0" y="1092.0"/>
      <point x="-8.0" y="1027.0"/>
    </contour>
  </outline>
</glyph>
<glyph name="circumflexcomb_acutecomb.case" format="2">
  <anchor x="-1.0" y="830.0" name="_top"/>
  <anchor x="68.0" y="1089.0" name="top"/>
  <outline>
    <contour>
      <point x="-122.0" y="800.0" type="line"/>
      <point x="-1.0" y="909.0" type="line"/>
      <point x="118.0" y="800.0" type="line"/>
      <point x="172.0" y="823.0" type="line"/>
      <point x="35.0" y="968.0" type="line"/>
      <point x="-38.0" y="968.0" type="line"/>
      <point x="-173.0" y="822.0" type="line"/>
    </contour>
    <contour>
      <point x="176.0" y="918.0" type="line"/>
      <point x="219.0" y="946.0"/>
      <point x="275.0" y="994.0"/>
      <point x="309.0" y="1043.0" type="curve"/>
      <point x="254.0" y="1089.0" type="line"/>
      <point x="204.0" y="1019.0"/>
      <point x="199.0" y="1014.0"/>
      <point x="140.0" y="950.0" type="curve"/>
    </contour>
  </outline>
</glyph>
<glyph name="circumflexcomb_gravecomb.case" format="2">
  <anchor x="-1.0" y="830.0" name="_top"/>
  <anchor x="43.0" y="1114.0" name="top"/>
  <outline>
    <contour>
      <point x="-122.0" y="800.0" type="line"/>
      <point x="-1.0" y="909.0" type="line"/>
      <point x="118.0" y="800.0" type="line"/>
      <point x="172.0" y="823.0" type="line"/>
      <point x="35.0" y="968.0" type="line"/>
      <point x="-38.0" y="968.0" type="line"/>
      <point x="-173.0" y="822.0" type="line"/>
    </contour>
    <contour>
      <point x="258.0" y="961.0" type="line"/>
      <point x="236.0" y="978.0"/>
      <point x="108.0" y="1092.0"/>
      <point x="89.0" y="1114.0" type="curve"/>
      <point x="34.0" y="1065.0" type="line"/>
      <point x="80.0" y="1016.0"/>
      <point x="169.0" y="953.0"/>
      <point x="223.0" y="926.0" type="curve"/>
    </contour>
  </outline>
</glyph>
<glyph name="circumflexcomb_gravecomb" format="2">
  <anchor x="0.0" y="830.0" name="_top"/>
  <anchor x="40.0" y="945.0" name="top"/>
  <outline>
    <contour>
      <point x="-120.0" y="637.0" type="line"/>
      <point x="0.0" y="737.0" type="line"/>
      <point x="118.0" y="637.0" type="line"/>
      <point x="170.0" y="658.0" type="line"/>
      <point x="38.0" y="799.0" type="line"/>
      <point x="-35.0" y="799.0" type="line"/>
      <point x="-170.0" y="658.0" type="line"/>
    </contour>
    <contour>
      <point x="213.0" y="774.0" type="curve"/>
      <point x="249.0" y="806.0" type="line"/>
      <point x="190.0" y="870.0"/>
      <point x="185.0" y="875.0"/>
      <point x="135.0" y="945.0" type="curve"/>
      <point x="80.0" y="899.0" type="line"/>
      <point x="114.0" y="850.0"/>
      <point x="170.0" y="802.0"/>
    </contour>
  </outline>
</glyph>
<glyph name="circumflexcomb_hookabovecomb.case" format="2">
  <anchor x="-1.0" y="830.0" name="_top"/>
  <anchor x="155.0" y="1128.0" name="top"/>
  <outline>
    <contour>
      <point x="-122.0" y="800.0" type="line"/>
      <point x="-1.0" y="909.0" type="line"/>
      <point x="118.0" y="800.0" type="line"/>
      <point x="172.0" y="823.0" type="line"/>
      <point x="35.0" y="968.0" type="line"/>
      <point x="-38.0" y="968.0" type="line"/>
      <point x="-173.0" y="822.0" type="line"/>
    </contour>
    <contour>
      <point x="132.0" y="941.0" type="curve"/>
      <point x="180.0" y="941.0" type="line"/>
      <point x="171.0" y="966.0"/>
      <point x="180.0" y="987.0"/>
      <point x="188.0" y="994.0" type="curve" smooth="yes"/>
      <point x="216.0" y="1019.0"/>
      <point x="255.0" y="1033.0"/>
      <point x="255.0" y="1089.0" type="curve" smooth="yes"/>
      <point x="255.0" y="1147.0"/>
      <point x="209.0" y="1182.0"/>
      <point x="143.0" y="1182.0" type="curve" smooth="yes"/>
      <point x="118.0" y="1182.0"/>
      <point x="91.0" y="1175.0"/>
      <point x="73.0" y="1167.0" type="curve"/>
      <point x="77.0" y="1112.0" type="line"/>
      <point x="88.0" y="1118.0"/>
      <point x="105.0" y="1122.0"/>
      <point x="121.0" y="1122.0" type="curve" smooth="yes"/>
      <point x="162.0" y="1122.0"/>
      <point x="181.0" y="1105.0"/>
      <point x="181.0" y="1075.0" type="curve"/>
      <point x="181.0" y="1039.0"/>
      <point x="119.0" y="1033.0"/>
      <point x="119.0" y="984.0" type="curve"/>
      <point x="119.0" y="966.0"/>
      <point x="126.0" y="955.0"/>
    </contour>
  </outline>
</glyph>
<glyph name="circumflexcomb_tildecomb.case" format="2">
  <anchor x="-1.0" y="830.0" name="_top"/>
  <anchor x="12.0" y="1218.0" name="top"/>
  <outline>
    <contour>
      <point x="-122.0" y="800.0" type="line"/>
      <point x="-1.0" y="909.0" type="line"/>
      <point x="118.0" y="800.0" type="line"/>
      <point x="172.0" y="823.0" type="line"/>
      <point x="35.0" y="968.0" type="line"/>
      <point x="-38.0" y="968.0" type="line"/>
      <point x="-173.0" y="822.0" type="line"/>
    </contour>
    <contour>
      <point x="59.0" y="1027.0" type="curve" smooth="yes"/>
      <point x="116.0" y="1027.0"/>
      <point x="142.0" y="1073.0"/>
      <point x="155.0" y="1123.0" type="curve"/>
      <point x="117.0" y="1142.0" type="line"/>
      <point x="114.0" y="1125.0"/>
      <point x="98.0" y="1083.0"/>
      <point x="63.0" y="1083.0" type="curve" smooth="yes"/>
      <point x="22.0" y="1083.0"/>
      <point x="20.0" y="1148.0"/>
      <point x="-49.0" y="1148.0" type="curve" smooth="yes"/>
      <point x="-109.0" y="1148.0"/>
      <point x="-137.0" y="1097.0"/>
      <point x="-146.0" y="1054.0" type="curve"/>
      <point x="-111.0" y="1033.0" type="line"/>
      <point x="-103.0" y="1051.0"/>
      <point x="-91.0" y="1092.0"/>
      <point x="-51.0" y="1092.0" type="curve" smooth="yes"/>
      <point x="-8.0" y="1092.0"/>
      <point x="-8.0" y="1027.0"/>
    </contour>
  </outline>
</glyph>
<glyph name="commaaccentcomb.case" format="2">
  <anchor x="81.0" y="0.0" name="_bottom"/>
  <anchor x="76.0" y="-83.0" name="_btm"/>
  <anchor x="81.0" y="-273.0" name="bottom"/>
  <outline>
    <contour>
      <point x="65.0" y="-273.0" type="line"/>
      <point x="92.0" y="-262.0"/>
      <point x="133.0" y="-214.0"/>
      <point x="133.0" y="-149.0" type="curve" smooth="yes"/>
      <point x="133.0" y="-96.0"/>
      <point x="110.0" y="-58.0"/>
      <point x="86.0" y="-47.0" type="curve"/>
      <point x="28.0" y="-82.0" type="line"/>
      <point x="28.0" y="-100.0" type="line"/>
      <point x="46.0" y="-105.0"/>
      <point x="63.0" y="-134.0"/>
      <point x="63.0" y="-168.0" type="curve" smooth="yes"/>
      <point x="63.0" y="-205.0"/>
      <point x="50.0" y="-237.0"/>
      <point x="37.0" y="-248.0" type="curve"/>
      <point x="37.0" y="-258.0" type="line"/>
    </contour>
  </outline>
</glyph>
<glyph name="d.sc" format="2">
  <advance width="696.0"/>
  <anchor x="348.0" y="0.0" name="bottom"/>
  <anchor x="359.0" y="-109.0" name="btm"/>
  <anchor x="348.0" y="323.0" name="center"/>
  <anchor x="368.0" y="909.0" name="top"/>
  <outline>
    <contour>
      <point x="98.0" y="0.0" type="line"/>
      <point x="103.0" y="0.0"/>
      <point x="137.0" y="0.0"/>
      <point x="148.0" y="0.0" type="curve" smooth="yes"/>
      <point x="196.0" y="0.0"/>
      <point x="255.0" y="-6.0"/>
      <point x="303.0" y="-7.0" type="curve" smooth="yes"/>
      <point x="523.0" y="-10.0"/>
      <point x="651.0" y="125.0"/>
      <point x="651.0" y="342.0" type="curve" smooth="yes"/>
      <point x="651.0" y="538.0"/>
      <point x="540.0" y="653.0"/>
      <point x="313.0" y="653.0" type="curve" smooth="yes"/>
      <point x="257.0" y="653.0"/>
      <point x="198.0" y="647.0"/>
      <point x="153.0" y="647.0" type="curve" smooth="yes"/>
      <point x="145.0" y="647.0"/>
      <point x="105.0" y="646.0"/>
      <point x="98.0" y="646.0" type="curve"/>
    </contour>
    <contour>
      <point x="181.0" y="64.0" type="curve"/>
      <point x="181.0" y="586.0" type="line"/>
      <point x="210.0" y="589.0"/>
      <point x="247.0" y="592.0"/>
      <point x="294.0" y="592.0" type="curve" smooth="yes"/>
      <point x="473.0" y="592.0"/>
      <point x="565.0" y="520.0"/>
      <point x="564.0" y="329.0" type="curve" smooth="yes"/>
      <point x="563.0" y="137.0"/>
      <point x="461.0" y="58.0"/>
      <point x="315.0" y="56.0" type="curve" smooth="yes"/>
      <point x="268.0" y="55.0"/>
      <point x="221.0" y="58.0"/>
    </contour>
  </outline>
</glyph>
<glyph name="dblgravecomb.case" format="2">
  <anchor x="0.0" y="830.0" name="_top"/>
  <anchor x="-47.0" y="1004.0" name="top"/>
  <outline>
    <contour>
      <point x="-41.0" y="851.0" type="line"/>
      <point x="-63.0" y="868.0"/>
      <point x="-191.0" y="982.0"/>
      <point x="-210.0" y="1004.0" type="curve"/>
      <point x="-265.0" y="955.0" type="line"/>
      <point x="-219.0" y="906.0"/>
      <point x="-130.0" y="843.0"/>
      <point x="-76.0" y="816.0" type="curve"/>
    </contour>
    <contour>
      <point x="171.0" y="851.0" type="line"/>
      <point x="149.0" y="868.0"/>
      <point x="21.0" y="982.0"/>
      <point x="2.0" y="1004.0" type="curve"/>
      <point x="-53.0" y="955.0" type="line"/>
      <point x="-7.0" y="906.0"/>
      <point x="82.0" y="843.0"/>
      <point x="136.0" y="816.0" type="curve"/>
    </contour>
  </outline>
</glyph>
<glyph name="dotaccentcomb.case" format="2">
  <anchor x="0.0" y="830.0" name="_top"/>
  <anchor x="0.0" y="966.0" name="top"/>
  <outline>
    <contour>
      <point x="-4.0" y="816.0" type="curve" smooth="yes"/>
      <point x="28.0" y="816.0"/>
      <point x="56.0" y="840.0"/>
      <point x="56.0" y="877.0" type="curve" smooth="yes"/>
      <point x="56.0" y="907.0"/>
      <point x="40.0" y="930.0"/>
      <point x="4.0" y="930.0" type="curve" smooth="yes"/>
      <point x="-26.0" y="930.0"/>
      <point x="-56.0" y="904.0"/>
      <point x="-56.0" y="869.0" type="curve" smooth="yes"/>
      <point x="-56.0" y="835.0"/>
      <point x="-33.0" y="816.0"/>
    </contour>
  </outline>
</glyph>
<glyph name="e.sc" format="2">
  <advance width="568.0"/>
  <anchor x="284.0" y="0.0" name="bottom"/>
  <anchor x="315.0" y="-72.0" name="btm"/>
  <anchor x="511.0" y="10.0" name="ogonek"/>
  <anchor x="317.0" y="896.0" name="top"/>
  <anchor x="20.0" y="646.0" name="topleft"/>
  <outline>
    <contour>
      <point x="98.0" y="0.0" type="line"/>
      <point x="535.0" y="0.0" type="line"/>
      <point x="535.0" y="66.0" type="line"/>
      <point x="181.0" y="66.0" type="line"/>
      <point x="181.0" y="301.0" type="line"/>
      <point x="415.0" y="301.0" type="line"/>
      <point x="415.0" y="366.0" type="line"/>
      <point x="181.0" y="366.0" type="line"/>
      <point x="181.0" y="581.0" type="line"/>
      <point x="502.0" y="581.0" type="line"/>
      <point x="502.0" y="646.0" type="line"/>
      <point x="98.0" y="646.0" type="line"/>
    </contour>
  </outline>
</glyph>
<glyph name="eight.dnom" format="2">
  <advance width="488.0"/>
  <outline>
    <contour>
      <point x="247.0" y="-6.0" type="curve" smooth="yes"/>
      <point x="349.0" y="-6.0"/>
      <point x="437.0" y="41.0"/>
      <point x="436.0" y="139.0" type="curve" smooth="yes"/>
      <point x="435.0" y="288.0"/>
      <point x="143.0" y="297.0"/>
      <point x="143.0" y="422.0" type="curve" smooth="yes"/>
      <point x="143.0" y="469.0"/>
      <point x="188.0" y="497.0"/>
      <point x="245.0" y="497.0" type="curve" smooth="yes"/>
      <point x="304.0" y="497.0"/>
      <point x="345.0" y="467.0"/>
      <point x="342.0" y="416.0" type="curve" smooth="yes"/>
      <point x="340.0" y="372.0"/>
      <point x="311.0" y="323.0"/>
      <point x="251.0" y="305.0" type="curve"/>
      <point x="295.0" y="273.0" type="line"/>
      <point x="378.0" y="306.0"/>
      <point x="413.0" y="372.0"/>
      <point x="413.0" y="426.0" type="curve" smooth="yes"/>
      <point x="413.0" y="500.0"/>
      <point x="345.0" y="550.0"/>
      <point x="248.0" y="550.0" type="curve" smooth="yes"/>
      <point x="155.0" y="550.0"/>
      <point x="73.0" y="506.0"/>
      <point x="73.0" y="418.0" type="curve" smooth="yes"/>
      <point x="73.0" y="245.0"/>
      <point x="360.0" y="253.0"/>
      <point x="360.0" y="130.0" type="curve" smooth="yes"/>
      <point x="360.0" y="76.0"/>
      <point x="306.0" y="47.0"/>
      <point x="250.0" y="47.0" type="curve" smooth="yes"/>
      <point x="165.0" y="47.0"/>
      <point x="123.0" y="81.0"/>
      <point x="123.0" y="140.0" type="curve" smooth="yes"/>
      <point x="123.0" y="189.0"/>
      <point x="169.0" y="235.0"/>
      <point x="231.0" y="254.0" type="curve"/>
      <point x="184.0" y="286.0" type="line"/>
      <point x="88.0" y="248.0"/>
      <point x="50.0" y="186.0"/>
      <point x="50.0" y="134.0" type="curve" smooth="yes"/>
      <point x="50.0" y="30.0"/>
      <point x="155.0" y="-6.0"/>
    </contour>
  </outline>
</glyph>
<glyph name="eight.osf" format="2">
  <advance width="633.0"/>
  <outline>
    <contour>
      <point x="326.0" y="-8.0" type="curve" smooth="yes"/>
      <point x="453.0" y="-8.0"/>
      <point x="569.0" y="55.0"/>
      <point x="568.0" y="191.0" type="curve" smooth="yes"/>
      <point x="566.0" y="395.0"/>
      <point x="181.0" y="400.0"/>
      <point x="181.0" y="589.0" type="curve" smooth="yes"/>
      <point x="181.0" y="664.0"/>
      <point x="244.0" y="707.0"/>
      <point x="325.0" y="707.0" type="curve" smooth="yes"/>
      <point x="413.0" y="707.0"/>
      <point x="465.0" y="656.0"/>
      <point x="463.0" y="583.0" type="curve" smooth="yes"/>
      <point x="462.0" y="507.0"/>
      <point x="407.0" y="439.0"/>
      <point x="334.0" y="415.0" type="curve"/>
      <point x="379.0" y="380.0" type="line"/>
      <point x="488.0" y="426.0"/>
      <point x="538.0" y="516.0"/>
      <point x="538.0" y="594.0" type="curve" smooth="yes"/>
      <point x="538.0" y="697.0"/>
      <point x="450.0" y="764.0"/>
      <point x="328.0" y="764.0" type="curve" smooth="yes"/>
      <point x="209.0" y="764.0"/>
      <point x="106.0" y="706.0"/>
      <point x="106.0" y="584.0" type="curve" smooth="yes"/>
      <point x="106.0" y="346.0"/>
      <point x="487.0" y="362.0"/>
      <point x="487.0" y="181.0" type="curve" smooth="yes"/>
      <point x="487.0" y="99.0"/>
      <point x="415.0" y="50.0"/>
      <point x="329.0" y="50.0" type="curve" smooth="yes"/>
      <point x="216.0" y="50.0"/>
      <point x="155.0" y="104.0"/>
      <point x="155.0" y="194.0" type="curve" smooth="yes"/>
      <point x="155.0" y="274.0"/>
      <point x="222.0" y="338.0"/>
      <point x="305.0" y="366.0" type="curve"/>
      <point x="255.0" y="400.0" type="line"/>
      <point x="133.0" y="352.0"/>
      <point x="77.0" y="270.0"/>
      <point x="77.0" y="188.0" type="curve" smooth="yes"/>
      <point x="77.0" y="47.0"/>
      <point x="206.0" y="-8.0"/>
    </contour>
  </outline>
</glyph>
<glyph name="eight.sc" format="2">
  <advance width="633.0"/>
  <outline>
    <contour>
      <point x="326.0" y="-8.0" type="curve" smooth="yes"/>
      <point x="453.0" y="-8.0"/>
      <point x="569.0" y="55.0"/>
      <point x="568.0" y="191.0" type="curve" smooth="yes"/>
      <point x="566.0" y="389.0"/>
      <point x="181.0" y="394.0"/>
      <point x="181.0" y="577.0" type="curve" smooth="yes"/>
      <point x="181.0" y="652.0"/>
      <point x="244.0" y="695.0"/>
      <point x="325.0" y="695.0" type="curve" smooth="yes"/>
      <point x="413.0" y="695.0"/>
      <point x="465.0" y="644.0"/>
      <point x="463.0" y="571.0" type="curve" smooth="yes"/>
      <point x="461.0" y="495.0"/>
      <point x="407.0" y="430.0"/>
      <point x="334.0" y="406.0" type="curve"/>
      <point x="379.0" y="371.0" type="line"/>
      <point x="488.0" y="417.0"/>
      <point x="538.0" y="504.0"/>
      <point x="538.0" y="582.0" type="curve" smooth="yes"/>
      <point x="538.0" y="685.0"/>
      <point x="450.0" y="752.0"/>
      <point x="328.0" y="752.0" type="curve" smooth="yes"/>
      <point x="209.0" y="752.0"/>
      <point x="106.0" y="694.0"/>
      <point x="106.0" y="572.0" type="curve" smooth="yes"/>
      <point x="106.0" y="340.0"/>
      <point x="487.0" y="356.0"/>
      <point x="487.0" y="181.0" type="curve" smooth="yes"/>
      <point x="487.0" y="99.0"/>
      <point x="415.0" y="49.0"/>
      <point x="329.0" y="49.0" type="curve" smooth="yes"/>
      <point x="216.0" y="49.0"/>
      <point x="155.0" y="104.0"/>
      <point x="155.0" y="194.0" type="curve" smooth="yes"/>
      <point x="155.0" y="262.0"/>
      <point x="222.0" y="329.0"/>
      <point x="305.0" y="357.0" type="curve"/>
      <point x="255.0" y="391.0" type="line"/>
      <point x="133.0" y="343.0"/>
      <point x="77.0" y="258.0"/>
      <point x="77.0" y="188.0" type="curve" smooth="yes"/>
      <point x="77.0" y="47.0"/>
      <point x="206.0" y="-8.0"/>
    </contour>
  </outline>
</glyph>
<glyph name="eight.tf" format="2">
  <advance width="620.0"/>
  <outline>
    <contour>
      <point x="319.0" y="-8.0" type="curve" smooth="yes"/>
      <point x="445.0" y="-8.0"/>
      <point x="558.0" y="55.0"/>
      <point x="557.0" y="191.0" type="curve" smooth="yes"/>
      <point x="555.0" y="390.0"/>
      <point x="177.0" y="394.0"/>
      <point x="177.0" y="578.0" type="curve" smooth="yes"/>
      <point x="177.0" y="653.0"/>
      <point x="240.0" y="696.0"/>
      <point x="318.0" y="696.0" type="curve" smooth="yes"/>
      <point x="403.0" y="696.0"/>
      <point x="455.0" y="645.0"/>
      <point x="453.0" y="572.0" type="curve" smooth="yes"/>
      <point x="451.0" y="496.0"/>
      <point x="398.0" y="430.0"/>
      <point x="327.0" y="406.0" type="curve"/>
      <point x="372.0" y="371.0" type="line"/>
      <point x="480.0" y="418.0"/>
      <point x="528.0" y="506.0"/>
      <point x="528.0" y="583.0" type="curve" smooth="yes"/>
      <point x="528.0" y="686.0"/>
      <point x="441.0" y="753.0"/>
      <point x="321.0" y="753.0" type="curve" smooth="yes"/>
      <point x="204.0" y="753.0"/>
      <point x="103.0" y="695.0"/>
      <point x="103.0" y="573.0" type="curve" smooth="yes"/>
      <point x="103.0" y="340.0"/>
      <point x="476.0" y="357.0"/>
      <point x="476.0" y="181.0" type="curve" smooth="yes"/>
      <point x="476.0" y="99.0"/>
      <point x="405.0" y="49.0"/>
      <point x="322.0" y="49.0" type="curve" smooth="yes"/>
      <point x="212.0" y="49.0"/>
      <point x="152.0" y="104.0"/>
      <point x="152.0" y="194.0" type="curve" smooth="yes"/>
      <point x="152.0" y="260.0"/>
      <point x="214.0" y="328.0"/>
      <point x="299.0" y="358.0" type="curve"/>
      <point x="249.0" y="392.0" type="line"/>
      <point x="128.0" y="343.0"/>
      <point x="74.0" y="258.0"/>
      <point x="74.0" y="188.0" type="curve" smooth="yes"/>
      <point x="74.0" y="47.0"/>
      <point x="202.0" y="-8.0"/>
    </contour>
  </outline>
</glyph>
<glyph name="eight.tosf" format="2">
  <advance width="677.0"/>
  <outline>
    <contour>
      <point x="348.0" y="-8.0" type="curve" smooth="yes"/>
      <point x="477.0" y="-8.0"/>
      <point x="604.0" y="51.0"/>
      <point x="603.0" y="191.0" type="curve" smooth="yes"/>
      <point x="601.0" y="396.0"/>
      <point x="192.0" y="400.0"/>
      <point x="192.0" y="590.0" type="curve" smooth="yes"/>
      <point x="192.0" y="665.0"/>
      <point x="261.0" y="708.0"/>
      <point x="348.0" y="708.0" type="curve" smooth="yes"/>
      <point x="446.0" y="708.0"/>
      <point x="498.0" y="656.0"/>
      <point x="496.0" y="582.0" type="curve" smooth="yes"/>
      <point x="494.0" y="508.0"/>
      <point x="438.0" y="441.0"/>
      <point x="358.0" y="415.0" type="curve"/>
      <point x="404.0" y="380.0" type="line"/>
      <point x="519.0" y="427.0"/>
      <point x="572.0" y="517.0"/>
      <point x="572.0" y="595.0" type="curve" smooth="yes"/>
      <point x="572.0" y="698.0"/>
      <point x="478.0" y="765.0"/>
      <point x="351.0" y="765.0" type="curve" smooth="yes"/>
      <point x="228.0" y="765.0"/>
      <point x="117.0" y="707.0"/>
      <point x="117.0" y="585.0" type="curve" smooth="yes"/>
      <point x="117.0" y="346.0"/>
      <point x="523.0" y="363.0"/>
      <point x="523.0" y="181.0" type="curve" smooth="yes"/>
      <point x="523.0" y="99.0"/>
      <point x="444.0" y="50.0"/>
      <point x="352.0" y="50.0" type="curve" smooth="yes"/>
      <point x="231.0" y="50.0"/>
      <point x="164.0" y="104.0"/>
      <point x="164.0" y="194.0" type="curve" smooth="yes"/>
      <point x="164.0" y="276.0"/>
      <point x="240.0" y="340.0"/>
      <point x="326.0" y="367.0" type="curve"/>
      <point x="274.0" y="401.0" type="line"/>
      <point x="145.0" y="352.0"/>
      <point x="86.0" y="270.0"/>
      <point x="86.0" y="188.0" type="curve" smooth="yes"/>
      <point x="86.0" y="47.0"/>
      <point x="224.0" y="-8.0"/>
    </contour>
  </outline>
</glyph>
<glyph name="eng.sc" format="2">
  <advance width="744.0"/>
  <outline>
    <contour>
      <point x="179.0" y="0.0" type="line"/>
      <point x="179.0" y="409.0" type="line"/>
      <point x="173.0" y="593.0" type="line"/>
      <point x="137.0" y="593.0" type="line"/>
      <point x="241.0" y="428.0" type="line"/>
      <point x="557.0" y="17.0" type="line"/>
      <point x="555.0" y="-41.0"/>
      <point x="456.0" y="-109.0"/>
      <point x="366.0" y="-132.0" type="curve"/>
      <point x="387.0" y="-172.0" type="line"/>
      <point x="477.0" y="-160.0"/>
      <point x="592.0" y="-97.0"/>
      <point x="625.0" y="9.0" type="curve" smooth="yes"/>
      <point x="645.0" y="74.0"/>
      <point x="645.0" y="137.0"/>
      <point x="645.0" y="203.0" type="curve" smooth="yes"/>
      <point x="645.0" y="646.0" type="line"/>
      <point x="563.0" y="646.0" type="line"/>
      <point x="563.0" y="226.0" type="line"/>
      <point x="573.0" y="51.0" type="line"/>
      <point x="602.0" y="51.0" type="line"/>
      <point x="509.0" y="205.0" type="line"/>
      <point x="175.0" y="646.0" type="line"/>
      <point x="97.0" y="646.0" type="line"/>
      <point x="98.0" y="0.0" type="line"/>
    </contour>
  </outline>
</glyph>
<glyph name="exclamdown.case" format="2">
  <advance width="292.0"/>
  <outline>
    <contour>
      <point x="180.0" y="638.0" type="line"/>
      <point x="107.0" y="638.0" type="line"/>
      <point x="99.0" y="0.0" type="line"/>
      <point x="190.0" y="0.0" type="line"/>
    </contour>
    <contour>
      <point x="149.0" y="877.0" type="curve" smooth="yes"/>
      <point x="117.0" y="877.0"/>
      <point x="88.0" y="848.0"/>
      <point x="89.0" y="808.0" type="curve" smooth="yes"/>
      <point x="90.0" y="775.0"/>
      <point x="108.0" y="747.0"/>
      <point x="144.0" y="747.0" type="curve" smooth="yes"/>
      <point x="175.0" y="747.0"/>
      <point x="204.0" y="778.0"/>
      <point x="203.0" y="816.0" type="curve" smooth="yes"/>
      <point x="202.0" y="852.0"/>
      <point x="178.0" y="877.0"/>
    </contour>
  </outline>
</glyph>
<glyph name="five.dnom" format="2">
  <advance width="448.0"/>
  <outline>
    <contour>
      <point x="106.0" y="-8.0" type="curve" smooth="yes"/>
      <point x="292.0" y="-8.0"/>
      <point x="390.0" y="97.0"/>
      <point x="390.0" y="190.0" type="curve" smooth="yes"/>
      <point x="390.0" y="287.0"/>
      <point x="332.0" y="342.0"/>
      <point x="218.0" y="342.0" type="curve" smooth="yes"/>
      <point x="191.0" y="342.0"/>
      <point x="159.0" y="338.0"/>
      <point x="127.0" y="331.0" type="curve"/>
      <point x="143.0" y="477.0" type="line"/>
      <point x="365.0" y="477.0" type="line"/>
      <point x="372.0" y="542.0" type="line"/>
      <point x="84.0" y="542.0" type="line"/>
      <point x="62.0" y="278.0" type="line"/>
      <point x="81.0" y="268.0" type="line"/>
      <point x="118.0" y="279.0"/>
      <point x="156.0" y="285.0"/>
      <point x="186.0" y="285.0" type="curve" smooth="yes"/>
      <point x="274.0" y="285.0"/>
      <point x="311.0" y="256.0"/>
      <point x="311.0" y="185.0" type="curve" smooth="yes"/>
      <point x="311.0" y="107.0"/>
      <point x="215.0" y="47.0"/>
      <point x="85.0" y="47.0" type="curve" smooth="yes"/>
      <point x="76.0" y="47.0"/>
      <point x="68.0" y="48.0"/>
      <point x="60.0" y="48.0" type="curve"/>
      <point x="60.0" y="-3.0" type="line"/>
      <point x="73.0" y="-7.0"/>
      <point x="93.0" y="-8.0"/>
    </contour>
  </outline>
</glyph>
<glyph name="five.tf" format="2">
  <advance width="620.0"/>
  <outline>
    <contour>
      <point x="167.0" y="-8.0" type="curve" smooth="yes"/>
      <point x="410.0" y="-8.0"/>
      <point x="547.0" y="110.0"/>
      <point x="547.0" y="266.0" type="curve" smooth="yes"/>
      <point x="547.0" y="381.0"/>
      <point x="478.0" y="464.0"/>
      <point x="325.0" y="464.0" type="curve" smooth="yes"/>
      <point x="281.0" y="464.0"/>
      <point x="230.0" y="456.0"/>
      <point x="178.0" y="441.0" type="curve"/>
      <point x="204.0" y="674.0" type="line"/>
      <point x="508.0" y="674.0" type="line"/>
      <point x="516.0" y="744.0" type="line"/>
      <point x="139.0" y="744.0" type="line"/>
      <point x="108.0" y="385.0" type="line"/>
      <point x="129.0" y="373.0" type="line"/>
      <point x="182.0" y="391.0"/>
      <point x="242.0" y="403.0"/>
      <point x="289.0" y="403.0" type="curve" smooth="yes"/>
      <point x="413.0" y="403.0"/>
      <point x="464.0" y="349.0"/>
      <point x="464.0" y="260.0" type="curve" smooth="yes"/>
      <point x="464.0" y="119.0"/>
      <point x="329.0" y="51.0"/>
      <point x="146.0" y="51.0" type="curve" smooth="yes"/>
      <point x="129.0" y="51.0"/>
      <point x="119.0" y="52.0"/>
      <point x="105.0" y="54.0" type="curve"/>
      <point x="104.0" y="-2.0" type="line"/>
      <point x="122.0" y="-7.0"/>
      <point x="150.0" y="-8.0"/>
    </contour>
  </outline>
</glyph>
<glyph name="five.tosf" format="2">
  <advance width="677.0"/>
  <outline>
    <contour>
      <point x="185.0" y="-170.0" type="curve" smooth="yes"/>
      <point x="446.0" y="-168.0"/>
      <point x="589.0" y="-21.0"/>
      <point x="589.0" y="116.0" type="curve" smooth="yes"/>
      <point x="589.0" y="249.0"/>
      <point x="502.0" y="332.0"/>
      <point x="346.0" y="332.0" type="curve" smooth="yes"/>
      <point x="299.0" y="332.0"/>
      <point x="248.0" y="324.0"/>
      <point x="192.0" y="308.0" type="curve"/>
      <point x="220.0" y="542.0" type="line"/>
      <point x="553.0" y="542.0" type="line"/>
      <point x="561.0" y="612.0" type="line"/>
      <point x="155.0" y="612.0" type="line"/>
      <point x="122.0" y="252.0" type="line"/>
      <point x="143.0" y="240.0" type="line"/>
      <point x="205.0" y="260.0"/>
      <point x="264.0" y="271.0"/>
      <point x="312.0" y="271.0" type="curve" smooth="yes"/>
      <point x="439.0" y="271.0"/>
      <point x="506.0" y="217.0"/>
      <point x="506.0" y="111.0" type="curve" smooth="yes"/>
      <point x="506.0" y="-13.0"/>
      <point x="358.0" y="-111.0"/>
      <point x="162.0" y="-111.0" type="curve" smooth="yes"/>
      <point x="142.0" y="-111.0"/>
      <point x="131.0" y="-110.0"/>
      <point x="118.0" y="-108.0" type="curve"/>
      <point x="117.0" y="-164.0" type="line"/>
      <point x="142.0" y="-170.0"/>
      <point x="165.0" y="-170.0"/>
    </contour>
  </outline>
</glyph>
<glyph name="four.dnom" format="2">
  <advance width="485.0"/>
  <outline>
    <contour>
      <point x="42.0" y="110.0" type="line"/>
      <point x="462.0" y="110.0" type="line"/>
      <point x="462.0" y="169.0" type="line"/>
      <point x="109.0" y="169.0" type="line"/>
      <point x="141.0" y="221.0" type="line"/>
      <point x="193.0" y="318.0"/>
      <point x="260.0" y="454.0"/>
      <point x="315.0" y="557.0" type="curve"/>
      <point x="220.0" y="557.0" type="line"/>
      <point x="155.0" y="427.0"/>
      <point x="88.0" y="275.0"/>
      <point x="24.0" y="146.0" type="curve"/>
    </contour>
    <contour>
      <point x="296.0" y="0.0" type="line"/>
      <point x="373.0" y="0.0" type="line"/>
      <point x="373.0" y="350.0" type="line"/>
      <point x="301.0" y="350.0" type="line"/>
      <point x="296.0" y="169.0" type="line"/>
    </contour>
  </outline>
</glyph>
<glyph name="four.tf" format="2">
  <advance width="620.0"/>
  <outline>
    <contour>
      <point x="67.0" y="184.0" type="line"/>
      <point x="590.0" y="184.0" type="line"/>
      <point x="590.0" y="247.0" type="line"/>
      <point x="138.0" y="247.0" type="line"/>
      <point x="170.0" y="303.0" type="line"/>
      <point x="196.0" y="347.0"/>
      <point x="348.0" y="660.0"/>
      <point x="379.0" y="725.0" type="curve"/>
      <point x="328.0" y="756.0" type="line"/>
      <point x="300.0" y="756.0" type="line"/>
      <point x="271.0" y="697.0"/>
      <point x="75.0" y="267.0"/>
      <point x="47.0" y="223.0" type="curve"/>
    </contour>
    <contour>
      <point x="391.0" y="0.0" type="line"/>
      <point x="472.0" y="0.0" type="line"/>
      <point x="472.0" y="486.0" type="line"/>
      <point x="397.0" y="486.0" type="line"/>
      <point x="391.0" y="247.0" type="line"/>
    </contour>
  </outline>
</glyph>
<glyph name="four.tosf" format="2">
  <advance width="677.0"/>
  <outline>
    <contour>
      <point x="78.0" y="0.0" type="line"/>
      <point x="635.0" y="0.0" type="line"/>
      <point x="635.0" y="63.0" type="line"/>
      <point x="149.0" y="63.0" type="line"/>
      <point x="182.0" y="119.0" type="line"/>
      <point x="199.0" y="161.0"/>
      <point x="414.0" y="549.0"/>
      <point x="435.0" y="608.0" type="curve"/>
      <point x="384.0" y="639.0" type="line"/>
      <point x="355.0" y="639.0" type="line"/>
      <point x="337.0" y="580.0"/>
      <point x="75.0" y="83.0"/>
      <point x="58.0" y="39.0" type="curve"/>
    </contour>
    <contour>
      <point x="426.0" y="-184.0" type="line"/>
      <point x="507.0" y="-184.0" type="line"/>
      <point x="507.0" y="301.0" type="line"/>
      <point x="432.0" y="301.0" type="line"/>
      <point x="426.0" y="63.0" type="line"/>
    </contour>
  </outline>
</glyph>
<glyph name="g.sc" format="2">
  <advance width="679.0"/>
  <anchor x="340.0" y="0.0" name="bottom"/>
  <anchor x="381.0" y="-72.0" name="btm"/>
  <anchor x="377.0" y="892.0" name="top"/>
  <outline>
    <contour>
      <point x="53.0" y="319.0" type="curve" smooth="yes"/>
      <point x="53.0" y="133.0"/>
      <point x="173.0" y="-7.0"/>
      <point x="379.0" y="-7.0" type="curve" smooth="yes"/>
      <point x="523.0" y="-7.0"/>
      <point x="581.0" y="37.0"/>
      <point x="621.0" y="39.0" type="curve"/>
      <point x="621.0" y="321.0" type="line"/>
      <point x="395.0" y="321.0" type="line"/>
      <point x="395.0" y="261.0" type="line"/>
      <point x="563.0" y="255.0" type="line"/>
      <point x="540.0" y="271.0" type="line"/>
      <point x="540.0" y="84.0" type="line"/>
      <point x="513.0" y="69.0"/>
      <point x="448.0" y="58.0"/>
      <point x="378.0" y="58.0" type="curve" smooth="yes"/>
      <point x="223.0" y="58.0"/>
      <point x="140.0" y="175.0"/>
      <point x="140.0" y="329.0" type="curve" smooth="yes"/>
      <point x="140.0" y="495.0"/>
      <point x="247.0" y="587.0"/>
      <point x="378.0" y="587.0" type="curve" smooth="yes"/>
      <point x="479.0" y="587.0"/>
      <point x="536.0" y="571.0"/>
      <point x="578.0" y="552.0" type="curve"/>
      <point x="581.0" y="628.0" type="line"/>
      <point x="524.0" y="638.0"/>
      <point x="484.0" y="653.0"/>
      <point x="383.0" y="653.0" type="curve" smooth="yes"/>
      <point x="199.0" y="653.0"/>
      <point x="53.0" y="540.0"/>
    </contour>
  </outline>
</glyph>
<glyph name="guilsinglleft.case" format="2">
  <advance width="588.0"/>
  <outline>
    <contour>
      <point x="120.0" y="340.0" type="line"/>
      <point x="438.0" y="127.0" type="line"/>
      <point x="460.0" y="186.0" type="line"/>
      <point x="180.0" y="389.0" type="line"/>
      <point x="180.0" y="361.0" type="line"/>
      <point x="460.0" y="566.0" type="line"/>
      <point x="438.0" y="627.0" type="line"/>
      <point x="120.0" y="408.0" type="line"/>
    </contour>
  </outline>
</glyph>
<glyph name="hbar.sc" format="2">
  <advance width="732.0"/>
  <outline>
    <contour>
      <point x="98.0" y="0.0" type="line"/>
      <point x="182.0" y="0.0" type="line"/>
      <point x="182.0" y="292.0" type="line"/>
      <point x="551.0" y="292.0" type="line"/>
      <point x="551.0" y="0.0" type="line"/>
      <point x="634.0" y="0.0" type="line"/>
      <point x="634.0" y="646.0" type="line"/>
      <point x="551.0" y="646.0" type="line"/>
      <point x="551.0" y="357.0" type="line"/>
      <point x="182.0" y="357.0" type="line"/>
      <point x="182.0" y="646.0" type="line"/>
      <point x="98.0" y="646.0" type="line"/>
    </contour>
    <contour>
      <point x="7.0" y="456.0" type="line"/>
      <point x="733.0" y="456.0" type="line"/>
      <point x="733.0" y="510.0" type="line"/>
      <point x="7.0" y="510.0" type="line"/>
    </contour>
  </outline>
</glyph>
<glyph name="hookabovecomb.case" format="2">
  <anchor x="0.0" y="830.0" name="_top"/>
  <anchor x="0.0" y="977.0" name="top"/>
  <outline>
    <contour>
      <point x="-13.0" y="820.0" type="curve"/>
      <point x="35.0" y="820.0" type="line"/>
      <point x="26.0" y="845.0"/>
      <point x="35.0" y="866.0"/>
      <point x="43.0" y="873.0" type="curve" smooth="yes"/>
      <point x="71.0" y="898.0"/>
      <point x="110.0" y="912.0"/>
      <point x="110.0" y="968.0" type="curve" smooth="yes"/>
      <point x="110.0" y="1026.0"/>
      <point x="64.0" y="1061.0"/>
      <point x="-2.0" y="1061.0" type="curve" smooth="yes"/>
      <point x="-27.0" y="1061.0"/>
      <point x="-54.0" y="1054.0"/>
      <point x="-72.0" y="1046.0" type="curve"/>
      <point x="-68.0" y="991.0" type="line"/>
      <point x="-57.0" y="997.0"/>
      <point x="-40.0" y="1001.0"/>
      <point x="-24.0" y="1001.0" type="curve" smooth="yes"/>
      <point x="17.0" y="1001.0"/>
      <point x="36.0" y="984.0"/>
      <point x="36.0" y="954.0" type="curve"/>
      <point x="36.0" y="918.0"/>
      <point x="-26.0" y="912.0"/>
      <point x="-26.0" y="863.0" type="curve"/>
      <point x="-26.0" y="845.0"/>
      <point x="-19.0" y="834.0"/>
    </contour>
  </outline>
</glyph>
<glyph name="j.sc" format="2">
  <advance width="331.0"/>
  <anchor x="166.0" y="0.0" name="bottom"/>
  <anchor x="132.0" y="-72.0" name="btm"/>
  <anchor x="178.0" y="722.0" name="top"/>
  <outline>
    <contour>
      <point x="9.0" y="-141.0" type="line"/>
      <point x="90.0" y="-130.0"/>
      <point x="192.0" y="-75.0"/>
      <point x="213.0" y="32.0" type="curve" smooth="yes"/>
      <point x="224.0" y="90.0"/>
      <point x="222.0" y="152.0"/>
      <point x="222.0" y="245.0" type="curve" smooth="yes"/>
      <point x="222.0" y="646.0" type="line"/>
      <point x="137.0" y="646.0" type="line"/>
      <point x="137.0" y="248.0" type="line" smooth="yes"/>
      <point x="137.0" y="172.0"/>
      <point x="138.0" y="73.0"/>
      <point x="121.0" y="21.0" type="curve" smooth="yes"/>
      <point x="100.0" y="-44.0"/>
      <point x="40.0" y="-81.0"/>
      <point x="-17.0" y="-97.0" type="curve"/>
    </contour>
  </outline>
</glyph>
<glyph name="macroncomb.case" format="2">
  <anchor x="0.0" y="830.0" name="_top"/>
  <anchor x="0.0" y="983.0" name="top"/>
  <outline>
    <contour>
      <point x="-134.0" y="851.0" type="line"/>
      <point x="134.0" y="851.0" type="line"/>
      <point x="134.0" y="912.0" type="line"/>
      <point x="-134.0" y="912.0" type="line"/>
    </contour>
  </outline>
</glyph>
<glyph name="n.sc" format="2">
  <advance width="732.0"/>
  <anchor x="366.0" y="0.0" name="bottom"/>
  <anchor x="353.0" y="-72.0" name="btm"/>
  <anchor x="371.0" y="722.0" name="top"/>
  <outline>
    <contour>
      <point x="97.0" y="0.0" type="line"/>
      <point x="174.0" y="0.0" type="line"/>
      <point x="174.0" y="408.0" type="line"/>
      <point x="167.0" y="597.0" type="line"/>
      <point x="133.0" y="597.0" type="line"/>
      <point x="241.0" y="424.0" type="line"/>
      <point x="558.0" y="0.0" type="line"/>
      <point x="635.0" y="0.0" type="line"/>
      <point x="635.0" y="646.0" type="line"/>
      <point x="559.0" y="646.0" type="line"/>
      <point x="559.0" y="228.0" type="line"/>
      <point x="566.0" y="51.0" type="line"/>
      <point x="595.0" y="51.0" type="line"/>
      <point x="499.0" y="209.0" type="line"/>
      <point x="175.0" y="646.0" type="line"/>
      <point x="97.0" y="646.0" type="line"/>
    </contour>
  </outline>
</glyph>
<glyph name="nine.dnom" format="2">
  <advance width="491.0"/>
  <outline>
    <contour>
      <point x="50.0" y="356.0" type="curve" smooth="yes"/>
      <point x="50.0" y="269.0"/>
      <point x="106.0" y="188.0"/>
      <point x="205.0" y="188.0" type="curve" smooth="yes"/>
      <point x="264.0" y="188.0"/>
      <point x="299.0" y="206.0"/>
      <point x="312.0" y="219.0" type="curve"/>
      <point x="293.0" y="263.0" type="line"/>
      <point x="278.0" y="256.0"/>
      <point x="264.0" y="247.0"/>
      <point x="225.0" y="247.0" type="curve" smooth="yes"/>
      <point x="169.0" y="247.0"/>
      <point x="127.0" y="293.0"/>
      <point x="127.0" y="381.0" type="curve" smooth="yes"/>
      <point x="127.0" y="436.0"/>
      <point x="170.0" y="496.0"/>
      <point x="238.0" y="496.0" type="curve" smooth="yes"/>
      <point x="336.0" y="496.0"/>
      <point x="362.0" y="410.0"/>
      <point x="359.0" y="306.0" type="curve" smooth="yes"/>
      <point x="356.0" y="196.0"/>
      <point x="251.0" y="43.0"/>
      <point x="90.0" y="6.0" type="curve"/>
      <point x="117.0" y="-41.0" type="line"/>
      <point x="264.0" y="-13.0"/>
      <point x="441.0" y="137.0"/>
      <point x="441.0" y="341.0" type="curve"/>
      <point x="441.0" y="454.0"/>
      <point x="376.0" y="550.0"/>
      <point x="250.0" y="550.0" type="curve" smooth="yes"/>
      <point x="125.0" y="550.0"/>
      <point x="50.0" y="471.0"/>
    </contour>
  </outline>
</glyph>
<glyph name="nine.tf" format="2">
  <advance width="620.0"/>
  <outline>
    <contour>
      <point x="76.0" y="504.0" type="curve" smooth="yes"/>
      <point x="76.0" y="393.0"/>
      <point x="143.0" y="288.0"/>
      <point x="261.0" y="288.0" type="curve" smooth="yes"/>
      <point x="331.0" y="288.0"/>
      <point x="374.0" y="312.0"/>
      <point x="389.0" y="329.0" type="curve"/>
      <point x="370.0" y="373.0" type="line"/>
      <point x="353.0" y="363.0"/>
      <point x="331.0" y="348.0"/>
      <point x="282.0" y="348.0" type="curve" smooth="yes"/>
      <point x="213.0" y="348.0"/>
      <point x="158.0" y="410.0"/>
      <point x="158.0" y="529.0" type="curve" smooth="yes"/>
      <point x="158.0" y="607.0"/>
      <point x="211.0" y="698.0"/>
      <point x="303.0" y="698.0" type="curve" smooth="yes"/>
      <point x="418.0" y="698.0"/>
      <point x="458.0" y="587.0"/>
      <point x="455.0" y="450.0" type="curve" smooth="yes"/>
      <point x="452.0" y="297.0"/>
      <point x="346.0" y="92.0"/>
      <point x="150.0" y="42.0" type="curve"/>
      <point x="178.0" y="-5.0" type="line"/>
      <point x="351.0" y="31.0"/>
      <point x="542.0" y="227.0"/>
      <point x="542.0" y="484.0" type="curve"/>
      <point x="542.0" y="629.0"/>
      <point x="464.0" y="753.0"/>
      <point x="315.0" y="753.0" type="curve" smooth="yes"/>
      <point x="164.0" y="753.0"/>
      <point x="76.0" y="645.0"/>
    </contour>
  </outline>
</glyph>
<glyph name="nine.tosf" format="2">
  <advance width="677.0"/>
  <outline>
    <contour>
      <point x="87.0" y="429.0" type="curve" smooth="yes"/>
      <point x="87.0" y="311.0"/>
      <point x="159.0" y="199.0"/>
      <point x="287.0" y="199.0" type="curve" smooth="yes"/>
      <point x="357.0" y="199.0"/>
      <point x="406.0" y="222.0"/>
      <point x="424.0" y="243.0" type="curve"/>
      <point x="405.0" y="289.0" type="line"/>
      <point x="386.0" y="278.0"/>
      <point x="359.0" y="263.0"/>
      <point x="308.0" y="263.0" type="curve" smooth="yes"/>
      <point x="232.0" y="263.0"/>
      <point x="169.0" y="328.0"/>
      <point x="169.0" y="455.0" type="curve" smooth="yes"/>
      <point x="169.0" y="538.0"/>
      <point x="227.0" y="635.0"/>
      <point x="331.0" y="635.0" type="curve" smooth="yes"/>
      <point x="456.0" y="635.0"/>
      <point x="503.0" y="517.0"/>
      <point x="500.0" y="370.0" type="curve" smooth="yes"/>
      <point x="497.0" y="209.0"/>
      <point x="363.0" y="-5.0"/>
      <point x="150.0" y="-57.0" type="curve"/>
      <point x="178.0" y="-107.0" type="line"/>
      <point x="365.0" y="-69.0"/>
      <point x="587.0" y="132.0"/>
      <point x="587.0" y="407.0" type="curve"/>
      <point x="587.0" y="561.0"/>
      <point x="503.0" y="693.0"/>
      <point x="344.0" y="693.0" type="curve" smooth="yes"/>
      <point x="182.0" y="693.0"/>
      <point x="87.0" y="579.0"/>
    </contour>
  </outline>
</glyph>
<glyph name="ohorn.sc" format="2">
  <advance width="741.0"/>
  <anchor x="371.0" y="0.0" name="bottom"/>
  <anchor x="370.0" y="-72.0" name="btm"/>
  <anchor x="382.0" y="872.0" name="top"/>
  <outline>
    <contour>
      <point x="368.0" y="-7.0" type="curve" smooth="yes"/>
      <point x="547.0" y="-4.0"/>
      <point x="682.0" y="107.0"/>
      <point x="687.0" y="324.0" type="curve" smooth="yes"/>
      <point x="692.0" y="523.0"/>
      <point x="571.0" y="653.0"/>
      <point x="382.0" y="653.0" type="curve" smooth="yes"/>
      <point x="201.0" y="653.0"/>
      <point x="58.0" y="543.0"/>
      <point x="53.0" y="327.0" type="curve" smooth="yes"/>
      <point x="49.0" y="132.0"/>
      <point x="171.0" y="-11.0"/>
    </contour>
    <contour>
      <point x="370.0" y="58.0" type="curve" smooth="yes"/>
      <point x="215.0" y="58.0"/>
      <point x="137.0" y="184.0"/>
      <point x="138.0" y="322.0" type="curve" smooth="yes"/>
      <point x="139.0" y="503.0"/>
      <point x="245.0" y="589.0"/>
      <point x="379.0" y="589.0" type="curve" smooth="yes"/>
      <point x="527.0" y="589.0"/>
      <point x="604.0" y="467.0"/>
      <point x="603.0" y="328.0" type="curve" smooth="yes"/>
      <point x="602.0" y="153.0"/>
      <point x="508.0" y="58.0"/>
    </contour>
    <contour>
      <point x="557.0" y="498.0" type="line"/>
      <point x="654.0" y="498.0"/>
      <point x="741.0" y="578.0"/>
      <point x="741.0" y="664.0" type="curve" smooth="yes"/>
      <point x="741.0" y="671.0"/>
      <point x="740.0" y="678.0"/>
      <point x="739.0" y="686.0" type="curve"/>
      <point x="669.0" y="686.0" type="line"/>
      <point x="670.0" y="682.0"/>
      <point x="669.0" y="676.0"/>
      <point x="668.0" y="669.0" type="curve" smooth="yes"/>
      <point x="662.0" y="628.0"/>
      <point x="639.0" y="555.0"/>
      <point x="557.0" y="555.0" type="curve"/>
    </contour>
  </outline>
</glyph>
<glyph name="one.dnom" format="2">
  <advance width="351.0"/>
  <outline>
    <contour>
      <point x="175.0" y="0.0" type="line"/>
      <point x="251.0" y="0.0" type="line"/>
      <point x="251.0" y="543.0" type="line"/>
      <point x="217.0" y="551.0" type="line"/>
      <point x="216.0" y="550.0" type="line"/>
      <point x="196.0" y="531.0"/>
      <point x="143.0" y="484.0"/>
      <point x="45.0" y="470.0" type="curve"/>
      <point x="54.0" y="416.0" type="line"/>
      <point x="112.0" y="416.0"/>
      <point x="146.0" y="431.0"/>
      <point x="175.0" y="440.0" type="curve"/>
    </contour>
  </outline>
</glyph>
<glyph name="one.osf" format="2">
  <advance width="446.0"/>
  <outline>
    <contour>
      <point x="200.0" y="0.0" type="line"/>
      <point x="285.0" y="0.0" type="line"/>
      <point x="285.0" y="613.0" type="line"/>
      <point x="247.0" y="624.0" type="line"/>
      <point x="220.0" y="601.0"/>
      <point x="127.0" y="546.0"/>
      <point x="62.0" y="526.0" type="curve"/>
      <point x="72.0" y="477.0" type="line"/>
      <point x="115.0" y="487.0"/>
      <point x="159.0" y="504.0"/>
      <point x="200.0" y="521.0" type="curve"/>
    </contour>
  </outline>
</glyph>
<glyph name="one.sc" format="2">
  <advance width="446.0"/>
  <outline>
    <contour>
      <point x="200.0" y="0.0" type="line"/>
      <point x="285.0" y="0.0" type="line"/>
      <point x="285.0" y="743.0" type="line"/>
      <point x="247.0" y="754.0" type="line"/>
      <point x="220.0" y="731.0"/>
      <point x="127.0" y="676.0"/>
      <point x="62.0" y="656.0" type="curve"/>
      <point x="72.0" y="607.0" type="line"/>
      <point x="115.0" y="617.0"/>
      <point x="159.0" y="634.0"/>
      <point x="200.0" y="651.0" type="curve"/>
    </contour>
  </outline>
</glyph>
<glyph name="one.tf" format="2">
  <advance width="620.0"/>
  <outline>
    <contour>
      <point x="82.0" y="68.0" type="line"/>
      <point x="82.0" y="0.0" type="line"/>
      <point x="588.0" y="0.0" type="line"/>
      <point x="588.0" y="68.0" type="line"/>
      <point x="393.0" y="68.0" type="line"/>
      <point x="393.0" y="743.0" type="line"/>
      <point x="361.0" y="754.0" type="line"/>
      <point x="355.0" y="754.0" type="line"/>
      <point x="327.0" y="728.0"/>
      <point x="215.0" y="662.0"/>
      <point x="88.0" y="642.0" type="curve"/>
      <point x="101.0" y="592.0" type="line"/>
      <point x="199.0" y="599.0"/>
      <point x="267.0" y="629.0"/>
      <point x="308.0" y="646.0" type="curve"/>
      <point x="308.0" y="68.0" type="line"/>
    </contour>
  </outline>
</glyph>
<glyph name="p.sc" format="2">
  <advance width="603.0"/>
  <anchor x="302.0" y="0.0" name="bottom"/>
  <anchor x="330.0" y="-72.0" name="btm"/>
  <anchor x="321.0" y="722.0" name="top"/>
  <outline>
    <contour>
      <point x="98.0" y="0.0" type="line"/>
      <point x="181.0" y="0.0" type="line"/>
      <point x="181.0" y="225.0" type="line"/>
      <point x="200.0" y="225.0"/>
      <point x="243.0" y="223.0"/>
      <point x="293.0" y="223.0" type="curve" smooth="yes"/>
      <point x="461.0" y="223.0"/>
      <point x="562.0" y="304.0"/>
      <point x="562.0" y="444.0" type="curve" smooth="yes"/>
      <point x="562.0" y="593.0"/>
      <point x="464.0" y="653.0"/>
      <point x="314.0" y="653.0" type="curve" smooth="yes"/>
      <point x="251.0" y="653.0"/>
      <point x="191.0" y="646.0"/>
      <point x="138.0" y="646.0" type="curve" smooth="yes"/>
      <point x="98.0" y="646.0" type="line"/>
    </contour>
    <contour>
      <point x="181.0" y="289.0" type="curve"/>
      <point x="181.0" y="585.0" type="line"/>
      <point x="218.0" y="590.0"/>
      <point x="250.0" y="591.0"/>
      <point x="289.0" y="592.0" type="curve" smooth="yes"/>
      <point x="413.0" y="595.0"/>
      <point x="478.0" y="554.0"/>
      <point x="478.0" y="443.0" type="curve" smooth="yes"/>
      <point x="478.0" y="318.0"/>
      <point x="393.0" y="285.0"/>
      <point x="288.0" y="285.0" type="curve" smooth="yes"/>
      <point x="260.0" y="285.0"/>
      <point x="210.0" y="285.0"/>
    </contour>
  </outline>
</glyph>
<glyph name="q.sc" format="2">
  <advance width="740.0"/>
  <anchor x="370.0" y="0.0" name="bottom"/>
  <anchor x="371.0" y="-72.0" name="btm"/>
  <anchor x="376.0" y="716.0" name="top"/>
  <outline>
    <contour>
      <point x="626.0" y="-124.0" type="curve" smooth="yes"/>
      <point x="660.0" y="-124.0"/>
      <point x="695.0" y="-116.0"/>
      <point x="710.0" y="-107.0" type="curve"/>
      <point x="710.0" y="-46.0" type="line"/>
      <point x="691.0" y="-53.0"/>
      <point x="653.0" y="-55.0"/>
      <point x="626.0" y="-55.0" type="curve" smooth="yes"/>
      <point x="543.0" y="-55.0"/>
      <point x="476.0" y="-29.0"/>
      <point x="439.0" y="25.0" type="curve"/>
      <point x="399.0" y="25.0" type="line"/>
      <point x="361.0" y="12.0" type="line"/>
      <point x="440.0" y="-98.0"/>
      <point x="525.0" y="-124.0"/>
    </contour>
    <contour>
      <point x="368.0" y="-7.0" type="curve" smooth="yes"/>
      <point x="547.0" y="-4.0"/>
      <point x="682.0" y="107.0"/>
      <point x="687.0" y="324.0" type="curve" smooth="yes"/>
      <point x="692.0" y="523.0"/>
      <point x="571.0" y="653.0"/>
      <point x="382.0" y="653.0" type="curve" smooth="yes"/>
      <point x="201.0" y="653.0"/>
      <point x="58.0" y="543.0"/>
      <point x="53.0" y="327.0" type="curve" smooth="yes"/>
      <point x="49.0" y="132.0"/>
      <point x="171.0" y="-11.0"/>
    </contour>
    <contour>
      <point x="370.0" y="58.0" type="curve" smooth="yes"/>
      <point x="215.0" y="58.0"/>
      <point x="137.0" y="184.0"/>
      <point x="138.0" y="322.0" type="curve" smooth="yes"/>
      <point x="139.0" y="503.0"/>
      <point x="245.0" y="589.0"/>
      <point x="379.0" y="589.0" type="curve" smooth="yes"/>
      <point x="527.0" y="589.0"/>
      <point x="604.0" y="467.0"/>
      <point x="603.0" y="328.0" type="curve" smooth="yes"/>
      <point x="602.0" y="153.0"/>
      <point x="508.0" y="58.0"/>
    </contour>
  </outline>
</glyph>
<glyph name="questiondown.case" format="2">
  <advance width="511.0"/>
  <outline>
    <contour>
      <point x="322.0" y="659.0" type="curve"/>
      <point x="260.0" y="658.0" type="line"/>
      <point x="275.0" y="614.0"/>
      <point x="292.0" y="570.0"/>
      <point x="288.0" y="524.0" type="curve" smooth="yes"/>
      <point x="282.0" y="430.0"/>
      <point x="76.0" y="412.0"/>
      <point x="59.0" y="261.0" type="curve" smooth="yes"/>
      <point x="38.0" y="122.0"/>
      <point x="118.0" y="-11.0"/>
      <point x="344.0" y="-11.0" type="curve" smooth="yes"/>
      <point x="388.0" y="-11.0"/>
      <point x="436.0" y="2.0"/>
      <point x="446.0" y="10.0" type="curve"/>
      <point x="446.0" y="70.0" type="line"/>
      <point x="431.0" y="64.0"/>
      <point x="400.0" y="58.0"/>
      <point x="356.0" y="58.0" type="curve" smooth="yes"/>
      <point x="201.0" y="58.0"/>
      <point x="116.0" y="136.0"/>
      <point x="140.0" y="265.0" type="curve" smooth="yes"/>
      <point x="152.0" y="373.0"/>
      <point x="370.0" y="407.0"/>
      <point x="367.0" y="515.0" type="curve" smooth="yes"/>
      <point x="366.0" y="572.0"/>
      <point x="342.0" y="633.0"/>
    </contour>
    <contour>
      <point x="268.0" y="894.0" type="curve" smooth="yes"/>
      <point x="237.0" y="894.0"/>
      <point x="209.0" y="866.0"/>
      <point x="210.0" y="826.0" type="curve" smooth="yes"/>
      <point x="211.0" y="794.0"/>
      <point x="228.0" y="768.0"/>
      <point x="263.0" y="768.0" type="curve" smooth="yes"/>
      <point x="293.0" y="768.0"/>
      <point x="322.0" y="798.0"/>
      <point x="321.0" y="835.0" type="curve" smooth="yes"/>
      <point x="320.0" y="870.0"/>
      <point x="296.0" y="894.0"/>
    </contour>
  </outline>
</glyph>
